<?xml version="1.0" encoding="utf-8"?>
<!-- Generator: Adobe Illustrator 22.1.0, SVG Export Plug-In . SVG Version: 6.00 Build 0)  -->
<svg version="1.1" id="Layer_1" xmlns="http://www.w3.org/2000/svg" xmlns:xlink="http://www.w3.org/1999/xlink" x="0px" y="0px"
	 viewBox="0 0 48 48" style="enable-background:new 0 0 48 48;" xml:space="preserve">
<style type="text/css">
	.st0{fill:#EFEFEF;}
	.st1{fill:#808080;}
</style>
<g>
	<path class="st1" d="M37,42H26.8c-0.3,0-0.5-0.2-0.5-0.5v-8.9h-4.7v8.9c0,0.3-0.2,0.5-0.5,0.5H11c-0.3,0-0.5-0.2-0.5-0.5V25.1h-4
		c-0.2,0-0.4-0.1-0.4-0.3c-0.1-0.2,0-0.4,0.1-0.5L23.7,6.1c0.2-0.2,0.5-0.2,0.7,0l17.5,18.1c0.1,0.1,0.2,0.3,0.1,0.5
		c-0.1,0.2-0.3,0.3-0.4,0.3h-4v16.4C37.5,41.8,37.3,42,37,42z M27.3,41h9.2V24.6c0-0.3,0.2-0.5,0.5-0.5h3.4L24,7.2L7.6,24.1H11
		c0.3,0,0.5,0.2,0.5,0.5V41h9.2v-8.9c0-0.3,0.2-0.5,0.5-0.5h5.6c0.3,0,0.5,0.2,0.5,0.5V41z"/>
</g>
</svg>
