<?xml version="1.0" encoding="utf-8"?>
<!-- Generator: Adobe Illustrator 22.1.0, SVG Export Plug-In . SVG Version: 6.00 Build 0)  -->
<svg version="1.1" id="Layer_1" xmlns="http://www.w3.org/2000/svg" xmlns:xlink="http://www.w3.org/1999/xlink" x="0px" y="0px"
	 viewBox="0 0 48 48" style="enable-background:new 0 0 48 48;" xml:space="preserve">
<style type="text/css">
	.st0{fill:#EFEFEF;}
	.st1{fill:#808080;}
</style>
<path class="st1" d="M42,17.9l-2.5-9.5C39.4,8.1,39.2,8,39,8H24H9C8.8,8,8.6,8.1,8.5,8.4L6,17.9c0,0.1,0,0.3,0.1,0.4
	c0.1,0.1,0.2,0.2,0.4,0.2h3.3v19.1c0,1.3,1.1,2.4,2.4,2.4h23.6c1.3,0,2.4-1.1,2.4-2.4V18.5h3.3c0.2,0,0.3-0.1,0.4-0.2
	C42,18.2,42,18.1,42,17.9z M9.4,9h14l-2.2,8.6h-14L9.4,9z M10.7,37.6V18.5h10.8c0.2,0,0.4-0.1,0.5-0.4l1.5-5.9V39H12.2
	C11.4,39,10.7,38.4,10.7,37.6z M37.3,37.6c0,0.8-0.7,1.5-1.5,1.5H24.5V12.3l1.5,5.9c0.1,0.2,0.2,0.4,0.5,0.4h10.8V37.6z M26.9,17.5
	L24.6,9h14l2.2,8.6H26.9z"/>
</svg>
