<?xml version="1.0" encoding="utf-8"?>
<!-- Generator: Adobe Illustrator 22.1.0, SVG Export Plug-In . SVG Version: 6.00 Build 0)  -->
<svg version="1.1" id="Layer_1" xmlns="http://www.w3.org/2000/svg" xmlns:xlink="http://www.w3.org/1999/xlink" x="0px" y="0px"
	 viewBox="0 0 48 48" style="enable-background:new 0 0 48 48;" xml:space="preserve">
<style type="text/css">
	.st0{fill:#EFEFEF;}
	.st1{fill:#808080;}
</style>
<g>
	<path class="st1" d="M37.6,6H10.4C8,6,6,8,6,10.4v27.2C6,40,8,42,10.4,42h27.2c2.4,0,4.4-2,4.4-4.4V10.4C42,8,40,6,37.6,6z
		 M41,37.6c0,1.9-1.5,3.4-3.4,3.4H10.4C8.5,41,7,39.5,7,37.6V10.4C7,8.5,8.5,7,10.4,7h27.2c1.9,0,3.4,1.5,3.4,3.4V37.6z"/>
	<path class="st1" d="M30.6,23.5h-6.1v-6.1c0-0.3-0.2-0.5-0.5-0.5s-0.5,0.2-0.5,0.5v6.1h-6.1c-0.3,0-0.5,0.2-0.5,0.5
		s0.2,0.5,0.5,0.5h6.1v6.1c0,0.3,0.2,0.5,0.5,0.5s0.5-0.2,0.5-0.5v-6.1h6.1c0.3,0,0.5-0.2,0.5-0.5S30.8,23.5,30.6,23.5z"/>
</g>
</svg>
