<?xml version="1.0" encoding="utf-8"?>
<!-- Generator: Adobe Illustrator 22.1.0, SVG Export Plug-In . SVG Version: 6.00 Build 0)  -->
<svg version="1.1" id="Layer_1" xmlns="http://www.w3.org/2000/svg" xmlns:xlink="http://www.w3.org/1999/xlink" x="0px" y="0px"
	 viewBox="0 0 48 48" style="enable-background:new 0 0 48 48;" xml:space="preserve">
<style type="text/css">
	.st0{fill:#EFEFEF;}
	.st1{fill:#808080;}
</style>
<path class="st1" d="M34.2,27.1c1.8-2.2,2.8-5,2.8-8.1c0-7.2-5.8-13-13-13s-13,5.8-13,13c0,3.1,1.1,5.9,2.8,8.1
	C9.1,29.1,6,33.8,6,39c0,1.6,1.3,3,3,3h30c1.6,0,3-1.3,3-3C42,33.8,38.9,29.1,34.2,27.1z M24,7c6.6,0,12,5.4,12,12
	c0,3.2-1.3,6.1-3.3,8.3c-0.1,0.1-0.2,0.2-0.3,0.3c-0.2,0.2-0.4,0.3-0.5,0.5c-0.1,0.1-0.3,0.2-0.4,0.3c-0.2,0.1-0.4,0.3-0.5,0.4
	c-0.2,0.1-0.3,0.2-0.5,0.3c-0.2,0.1-0.3,0.2-0.5,0.3c-0.2,0.1-0.4,0.2-0.6,0.3c-0.2,0.1-0.3,0.2-0.5,0.2c-0.2,0.1-0.5,0.2-0.7,0.3
	c-0.1,0-0.3,0.1-0.4,0.1c-0.3,0.1-0.6,0.2-0.9,0.2c-0.1,0-0.2,0.1-0.3,0.1c-0.3,0.1-0.7,0.1-1,0.2c-0.1,0-0.2,0-0.2,0
	C24.8,31,24.4,31,24,31s-0.8,0-1.3-0.1c-0.1,0-0.2,0-0.2,0c-0.3,0-0.7-0.1-1-0.2c-0.1,0-0.2-0.1-0.3-0.1c-0.3-0.1-0.6-0.1-0.9-0.2
	c-0.1,0-0.3-0.1-0.4-0.1c-0.3-0.1-0.5-0.2-0.7-0.3c-0.2-0.1-0.3-0.1-0.5-0.2c-0.2-0.1-0.4-0.2-0.6-0.3c-0.2-0.1-0.4-0.2-0.5-0.3
	c-0.2-0.1-0.3-0.2-0.5-0.3c-0.2-0.1-0.4-0.3-0.5-0.4c-0.1-0.1-0.3-0.2-0.4-0.3c-0.2-0.2-0.4-0.3-0.5-0.5c-0.1-0.1-0.2-0.2-0.3-0.3
	C13.3,25.1,12,22.2,12,19C12,12.4,17.4,7,24,7z M39,41H9c-1.1,0-2-0.9-2-2c0-4.9,3-9.3,7.5-11.2c0.1,0.1,0.1,0.1,0.2,0.2
	c0.1,0.1,0.2,0.2,0.4,0.3c0.2,0.2,0.4,0.4,0.6,0.5c0.1,0.1,0.3,0.2,0.4,0.3c0.2,0.2,0.4,0.3,0.6,0.5c0.2,0.1,0.3,0.2,0.5,0.3
	c0.2,0.1,0.4,0.2,0.6,0.3c0.2,0.1,0.5,0.2,0.7,0.4c0.1,0.1,0.3,0.1,0.4,0.2c0.3,0.1,0.6,0.3,1,0.4c0.1,0,0.2,0.1,0.2,0.1
	c0.4,0.1,0.8,0.2,1.2,0.3c0,0,0,0,0.1,0c0.4,0.1,0.9,0.2,1.3,0.2c0,0,0,0,0,0c0.4,0,0.9,0.1,1.3,0.1s0.9,0,1.3-0.1c0,0,0,0,0,0
	c0.4,0,0.9-0.1,1.3-0.2c0,0,0,0,0.1,0c0.4-0.1,0.8-0.2,1.2-0.3c0.1,0,0.2-0.1,0.2-0.1c0.3-0.1,0.7-0.2,1-0.4
	c0.1-0.1,0.3-0.1,0.4-0.2c0.2-0.1,0.5-0.2,0.7-0.4c0.2-0.1,0.4-0.2,0.6-0.3c0.2-0.1,0.4-0.2,0.5-0.3c0.2-0.1,0.4-0.3,0.6-0.5
	c0.1-0.1,0.3-0.2,0.4-0.3c0.2-0.2,0.4-0.3,0.6-0.5c0.1-0.1,0.2-0.2,0.4-0.3c0.1-0.1,0.1-0.1,0.2-0.2C38,29.7,41,34.1,41,39
	C41,40.1,40.1,41,39,41z"/>
</svg>
