<?xml version="1.0" encoding="utf-8"?>
<!-- Generator: Adobe Illustrator 22.1.0, SVG Export Plug-In . SVG Version: 6.00 Build 0)  -->
<svg version="1.1" id="Layer_1" xmlns="http://www.w3.org/2000/svg" xmlns:xlink="http://www.w3.org/1999/xlink" x="0px" y="0px"
	 viewBox="0 0 48 48" style="enable-background:new 0 0 48 48;" xml:space="preserve">
<style type="text/css">
	.st0{fill:#EFEFEF;}
	.st1{fill:#808080;}
</style>
<path class="st1" d="M42,15.8c0-0.1,0-0.2,0-0.4c0-0.1-0.1-0.1-0.1-0.2c-0.1-0.3-0.3-0.5-0.6-0.6L33,10.4c0,0,0,0,0,0l-8.3-4.3
	c-0.4-0.2-0.9-0.2-1.3,0L6.8,14.7c-0.3,0.1-0.5,0.4-0.6,0.6c-0.1,0-0.1,0.1-0.1,0.2C6,15.6,6,15.7,6,15.8c0,0.1,0,0.1,0,0.2v16
	c0,0.6,0.3,1.1,0.8,1.3l16.5,8.4c0.1,0,0.2,0.1,0.3,0.1c0.1,0.1,0.2,0.2,0.4,0.2s0.3-0.1,0.4-0.2c0.1,0,0.2-0.1,0.3-0.1l16.5-8.4
	c0.5-0.3,0.8-0.8,0.8-1.3V16C42,15.9,42,15.9,42,15.8z M40.7,15.5l-16.1,7.9c-0.4,0.2-0.9,0.2-1.3,0l-7.3-3.6l16.7-8.4L40.7,15.5z
	 M23.8,7C23.8,7,23.9,7,24,7s0.2,0,0.2,0.1l7.5,3.8L15,19.3c0,0,0,0,0,0l-7.7-3.8L23.8,7z M7.2,32.4C7.1,32.4,7,32.2,7,32V16.5
	l16,7.8c0.2,0.1,0.4,0.2,0.6,0.2v16.2L7.2,32.4z M40.8,32.4l-16.3,8.3V24.5c0.2,0,0.4-0.1,0.6-0.2l16-7.8V32
	C41,32.2,40.9,32.4,40.8,32.4z"/>
</svg>
