<?xml version="1.0" encoding="utf-8"?>
<!-- Generator: Adobe Illustrator 22.1.0, SVG Export Plug-In . SVG Version: 6.00 Build 0)  -->
<svg version="1.1" id="Layer_1" xmlns="http://www.w3.org/2000/svg" xmlns:xlink="http://www.w3.org/1999/xlink" x="0px" y="0px"
	 viewBox="0 0 48 48" style="enable-background:new 0 0 48 48;" xml:space="preserve">
<style type="text/css">
	.st0{fill:#EFEFEF;}
	.st1{fill:#808080;}
</style>
<g>
	<path class="st1" d="M42,18.7c0-0.1,0-0.2,0-0.4c0-0.1-0.1-0.2-0.2-0.2c-0.1-0.2-0.4-0.4-0.6-0.6l-10-4.6c-0.2-0.1-0.5,0-0.6,0.2
		c-0.1,0.2,0,0.5,0.2,0.6l9.9,4.5l-16,7c-0.4,0.2-0.8,0.2-1.2,0l-16-7l9.9-4.5c0.2-0.1,0.4-0.4,0.2-0.6c-0.1-0.2-0.4-0.4-0.6-0.2
		l-10,4.6c-0.3,0.1-0.5,0.3-0.6,0.6c-0.1,0-0.1,0.1-0.2,0.2c-0.1,0.1,0,0.2,0,0.4c0,0.1,0,0.1,0,0.2V33c0,0.6,0.3,1.1,0.9,1.3
		l16.5,7.5c0.1,0,0.2,0.1,0.3,0.1c0.1,0.1,0.2,0.1,0.3,0.1s0.2-0.1,0.3-0.1c0.1,0,0.2,0,0.3-0.1l16.5-7.5c0.5-0.2,0.9-0.8,0.9-1.3
		V18.9C42,18.8,42,18.8,42,18.7z M7.3,33.4C7.1,33.3,7,33.2,7,33V19.3l16.1,7c0.2,0.1,0.3,0.1,0.5,0.2v14.3L7.3,33.4z M40.7,33.4
		l-16.3,7.3V26.4c0.2,0,0.3-0.1,0.5-0.2l16.1-7V33C41,33.2,40.9,33.3,40.7,33.4z"/>
	<path class="st1" d="M21.4,10.3l2.2-2.5V19c0,0.3,0.2,0.5,0.5,0.5s0.5-0.2,0.5-0.5V7.8l2.2,2.5c0.1,0.1,0.2,0.2,0.4,0.2
		c0.1,0,0.2,0,0.3-0.1c0.2-0.2,0.2-0.5,0-0.7l-3-3.5c0,0,0,0,0,0C24.3,6.1,24.1,6,24,6s-0.3,0.1-0.4,0.2c0,0,0,0,0,0l-3,3.5
		c-0.2,0.2-0.2,0.5,0,0.7C20.9,10.5,21.2,10.5,21.4,10.3z"/>
</g>
</svg>
