<?xml version="1.0" encoding="utf-8"?>
<!-- Generator: Adobe Illustrator 22.1.0, SVG Export Plug-In . SVG Version: 6.00 Build 0)  -->
<svg version="1.1" id="Layer_1" xmlns="http://www.w3.org/2000/svg" xmlns:xlink="http://www.w3.org/1999/xlink" x="0px" y="0px"
	 viewBox="0 0 48 48" style="enable-background:new 0 0 48 48;" xml:space="preserve">
<style type="text/css">
	.st0{fill:#EFEFEF;}
	.st1{fill:#808080;}
</style>
<g>
	<path class="st1" d="M42,10.3c0-0.1-0.1-0.3-0.1-0.3L40,8.1l0,0L38,6.1C37.9,6.1,37.8,6,37.7,6c-0.1,0-0.3,0.1-0.3,0.1L36.4,7
		l-0.6-0.6c-0.2-0.2-0.5-0.2-0.7,0c-0.2,0.2-0.2,0.5,0,0.7l0.6,0.6l-1.1,1.1L34,8.2c-0.2-0.2-0.5-0.2-0.7,0c-0.2,0.2-0.2,0.5,0,0.7
		L34,9.5l-0.6,0.6l-0.1,0.4c0,0.1-0.1,0.8-1,1.7l-8.2,8.2c-0.6-0.3-1.4-0.6-2.3-0.8c-1.1-0.2-2.4-0.2-3.6,0.4
		c-0.7,0.4-1.3,0.9-1.7,1.4c-0.2,0.3-0.4,0.5-0.6,0.8c-0.2,0.3-0.4,0.5-0.5,0.7c-0.4,0.5-0.8,0.9-1.3,1.2c-0.6,0.3-1.3,0.6-2.5,0.6
		c-2.6,0.2-4.6,2.1-5.2,4.8c-0.6,2.6,0.2,5.9,3.1,9l0,0c0,0,0,0,0,0c0,0,0,0,0,0l0,0c3,2.9,6.3,3.7,9,3.1c2.6-0.6,4.6-2.6,4.8-5.2
		c0.1-1.1,0.3-1.9,0.6-2.5c0.3-0.6,0.7-1,1.2-1.3c0.2-0.2,0.5-0.4,0.7-0.5c0.3-0.2,0.5-0.4,0.8-0.6c0.5-0.4,1-0.9,1.4-1.7
		c0.6-1.2,0.6-2.5,0.4-3.6c-0.2-0.9-0.5-1.8-0.8-2.3l8.2-8.2c0.9-0.9,1.6-1,1.7-1c0.1,0,0.4-0.1,0.4-0.1l0.6-0.6l0.6,0.6
		c0.2,0.2,0.5,0.2,0.7,0c0.2-0.2,0.2-0.5,0-0.7l-0.6-0.6l1.1-1.1l0.6,0.6c0.2,0.2,0.5,0.2,0.7,0c0.2-0.2,0.2-0.5,0-0.7L41,11.6
		l0.9-0.9C41.9,10.6,42,10.4,42,10.3z M37.3,13.9c-0.5,0.1-1.4,0.4-2.3,1.3l-8.5,8.5c-0.2,0.2-0.2,0.4-0.1,0.6
		c0.3,0.5,0.6,1.4,0.8,2.4c0.2,1,0.1,2.1-0.3,3c-0.3,0.6-0.7,1-1.1,1.4c-0.2,0.2-0.5,0.4-0.7,0.5c-0.3,0.2-0.5,0.4-0.8,0.6
		c-0.5,0.4-1,0.9-1.5,1.6c-0.4,0.7-0.7,1.6-0.8,2.9c-0.1,2.1-1.7,3.8-4,4.3c-2.3,0.5-5.3-0.2-8.1-2.9c-2.7-2.8-3.4-5.8-2.9-8.1
		c0.5-2.3,2.2-3.9,4.3-4c1.2-0.1,2.1-0.4,2.9-0.8c0.7-0.4,1.2-0.9,1.6-1.5c0.2-0.3,0.4-0.5,0.6-0.8c0.2-0.3,0.4-0.5,0.5-0.7
		c0.4-0.4,0.8-0.8,1.4-1.1c0.9-0.5,2-0.5,3-0.3c1,0.2,1.9,0.5,2.4,0.8c0.2,0.1,0.6-0.1,0.6-0.1l8.5-8.5c0.9-0.9,1.2-1.7,1.3-2.3
		L35,9.9c0,0,0,0,0,0c0,0,0,0,0,0l1.8-1.8c0,0,0,0,0,0s0,0,0,0l0.9-0.9l1.6,1.6l0,0l1.6,1.6L37.3,13.9z"/>
	<path class="st1" d="M15.6,28.6c-1.1,1.1-1.1,2.8,0,3.8c1.1,1.1,2.8,1.1,3.8,0c1.1-1.1,1.1-2.8,0-3.8
		C18.4,27.6,16.7,27.6,15.6,28.6z M16.3,31.8c-0.7-0.7-0.7-1.8,0-2.5c0.7-0.7,1.8-0.7,2.5,0c0.7,0.7,0.7,1.8,0,2.5
		C18.1,32.5,17,32.5,16.3,31.8z"/>
</g>
</svg>
