<?xml version="1.0" encoding="utf-8"?>
<!-- Generator: Adobe Illustrator 22.1.0, SVG Export Plug-In . SVG Version: 6.00 Build 0)  -->
<svg version="1.1" id="Layer_1" xmlns="http://www.w3.org/2000/svg" xmlns:xlink="http://www.w3.org/1999/xlink" x="0px" y="0px"
	 viewBox="0 0 48 48" style="enable-background:new 0 0 48 48;" xml:space="preserve">
<style type="text/css">
	.st0{fill:#EFEFEF;}
	.st1{fill:#808080;}
</style>
<g>
	<path class="st1" d="M24,5.5C13.8,5.5,5.5,13.8,5.5,24S13.8,42.5,24,42.5S42.5,34.2,42.5,24S34.2,5.5,24,5.5z M24,41.5
		c-9.6,0-17.5-7.9-17.5-17.5S14.4,6.5,24,6.5S41.5,14.4,41.5,24S33.6,41.5,24,41.5z"/>
	<path class="st1" d="M24,20.7c-1.8,0-3.3,1.5-3.3,3.3s1.5,3.3,3.3,3.3s3.3-1.5,3.3-3.3S25.8,20.7,24,20.7z M24,26.3
		c-1.3,0-2.3-1-2.3-2.3s1-2.3,2.3-2.3s2.3,1,2.3,2.3S25.3,26.3,24,26.3z"/>
	<path class="st1" d="M15.9,20.7c-1.8,0-3.3,1.5-3.3,3.3s1.5,3.3,3.3,3.3s3.3-1.5,3.3-3.3S17.7,20.7,15.9,20.7z M15.9,26.3
		c-1.3,0-2.3-1-2.3-2.3s1-2.3,2.3-2.3s2.3,1,2.3,2.3S17.1,26.3,15.9,26.3z"/>
	<path class="st1" d="M32.1,20.7c-1.8,0-3.3,1.5-3.3,3.3s1.5,3.3,3.3,3.3s3.3-1.5,3.3-3.3S34,20.7,32.1,20.7z M32.1,26.3
		c-1.3,0-2.3-1-2.3-2.3s1-2.3,2.3-2.3s2.3,1,2.3,2.3S33.4,26.3,32.1,26.3z"/>
</g>
</svg>
