<?xml version="1.0" encoding="utf-8"?>
<!-- Generator: Adobe Illustrator 22.1.0, SVG Export Plug-In . SVG Version: 6.00 Build 0)  -->
<svg version="1.1" id="Layer_1" xmlns="http://www.w3.org/2000/svg" xmlns:xlink="http://www.w3.org/1999/xlink" x="0px" y="0px"
	 viewBox="0 0 48 48" style="enable-background:new 0 0 48 48;" xml:space="preserve">
<style type="text/css">
	.st0{fill:#EFEFEF;}
	.st1{fill:#808080;}
</style>
<g>
	<line class="st1" x1="18.3" y1="40.6" x2="18.2" y2="40.6"/>
	<path class="st1" d="M32.5,22.3c-0.1,0-0.2,0-0.3,0h-6.4v-1.1c0-0.3-0.2-0.5-0.5-0.5h-1.4V19c0,0,0,0,0-0.1c0-0.5-0.2-1-0.6-1.5
		c-0.4-0.4-0.9-0.6-1.6-0.6c0,0,0,0,0,0h-3c-0.4,0-0.7-0.1-1-0.3c-0.3-0.3-0.4-0.7-0.4-0.9c0-0.4,0.1-0.7,0.3-0.9
		c0.3-0.3,0.7-0.4,1-0.4v0h9.6c0,0,0,0,0,0l0,0c0,0,0,0,0,0c0.5,0,1.2-0.2,1.6-0.7c0.4-0.4,0.6-0.9,0.6-1.6l0,0c0,0,0,0,0-0.1
		c0,0,0,0,0,0h0c0-0.5-0.2-1.1-0.6-1.6c-0.4-0.4-1-0.6-1.7-0.6v0c0,0,0,0,0,0h-3c-0.4,0-0.7-0.1-1-0.3c-0.3-0.3-0.4-0.7-0.4-1V6.5
		c0-0.3-0.2-0.5-0.5-0.5s-0.5,0.2-0.5,0.5v2c0,0,0,0,0,0.1c0,0.5,0.2,1.1,0.6,1.5c0.4,0.4,0.9,0.6,1.5,0.6c0,0,0,0,0,0h3
		c0,0,0,0,0,0v0c0.4,0,0.7,0.1,1,0.3c0.3,0.3,0.4,0.7,0.4,0.9c0,0.4-0.1,0.7-0.3,0.9c-0.3,0.3-0.7,0.4-1,0.4l0,0c0,0,0,0,0,0h-9.7
		c0,0-0.1,0-0.1,0c-0.5,0-1,0.2-1.5,0.6c-0.4,0.4-0.6,0.9-0.6,1.6l0,0c0,0,0,0,0,0.1c0,0,0,0,0,0h0c0,0.5,0.2,1.1,0.6,1.6
		c0.4,0.4,1,0.6,1.6,0.6c0,0,0,0,0,0h0c0,0,0,0,0,0v0h3v0c0.4,0,0.7,0.1,1,0.3c0.3,0.3,0.4,0.7,0.4,1v1.6h-1.3
		c-0.3,0-0.5,0.2-0.5,0.5v1.1h-5.1c-0.1,0-0.2,0-0.3,0c-5.3,0-9.5,4.4-9.5,9.9c0,5.4,4.3,9.9,9.5,9.9c0.8,0,1.5-0.1,2.2-0.3l0,0
		c0,0,0,0,0,0c0,0,0,0,0,0l0,0c0.2-0.1,0.5-0.1,0.8-0.2l0,0c0,0,0,0,0,0c0,0,0,0,0,0l0,0c0.9-0.3,1.7-0.7,2.4-1.3
		c2.6-1.3,4.6-0.7,6.1,0.1c1.5,1.1,3.4,1.7,5.4,1.7c5.3,0,9.5-4.4,9.5-9.9C42,26.7,37.7,22.3,32.5,22.3z M22,21.7h2.8v0.6H22V21.7z
		 M32.5,41c-1.8,0-3.5-0.6-4.9-1.6l0,0l0,0l0,0c-1.6-0.9-4-1.6-7-0.1l0,0l0,0c-0.7,0.5-1.4,0.9-2.3,1.2l0,0
		c-0.2,0.1-0.5,0.2-0.6,0.2l0,0l0,0l0,0c-0.7,0.2-1.3,0.3-2,0.3c-4.7,0-8.6-4-8.6-8.9s3.9-8.9,8.6-8.9c0.1,0,0.2,0,0.3,0l0,0h0h16.2
		h0l0,0l0,0c0.1,0,0.2,0,0.3,0c4.7,0,8.6,4,8.6,8.9S37.2,41,32.5,41z"/>
	<path class="st1" d="M19.7,30.8h-2.5v-2.5c0-0.3-0.2-0.5-0.5-0.5h-2.4c-0.3,0-0.5,0.2-0.5,0.5v2.5h-2.5c-0.1,0-0.3,0.1-0.3,0.1
		c-0.1,0.1-0.1,0.2-0.1,0.3v2.4c0,0.1,0.1,0.3,0.1,0.3c0.1,0.1,0.2,0.1,0.3,0.1h2.5v2.5c0,0.3,0.2,0.5,0.5,0.5h2.4
		c0.3,0,0.5-0.2,0.5-0.5v-2.5h2.5c0.3,0,0.5-0.2,0.5-0.5v-2.4C20.2,31,20,30.8,19.7,30.8z M19.2,33.1h-2.5c-0.3,0-0.5,0.2-0.5,0.5
		v2.5h-1.4v-2.5c0-0.3-0.2-0.5-0.5-0.5h-2.5v-1.4h2.5c0.1,0,0.3-0.1,0.3-0.1c0.1-0.1,0.1-0.2,0.1-0.3v-2.5h1.4v2.5
		c0,0.3,0.2,0.5,0.5,0.5h2.5V33.1z"/>
	<path class="st1" d="M32.5,31.1c1.3,0,2.3-1,2.3-2.3c0-1.3-1-2.3-2.3-2.3s-2.3,1-2.3,2.3C30.2,30.1,31.2,31.1,32.5,31.1z
		 M32.5,27.5c0.7,0,1.3,0.6,1.3,1.3c0,0.7-0.6,1.3-1.3,1.3c-0.7,0-1.3-0.6-1.3-1.3C31.2,28.1,31.8,27.5,32.5,27.5z"/>
	<path class="st1" d="M28.3,30.1c-1.3,0-2.3,1-2.3,2.3c0,1.3,1,2.3,2.3,2.3s2.3-1,2.3-2.3C30.5,31.1,29.5,30.1,28.3,30.1z
		 M28.3,33.7c-0.7,0-1.3-0.6-1.3-1.3c0-0.7,0.6-1.3,1.3-1.3s1.3,0.6,1.3,1.3C29.6,33.1,29,33.7,28.3,33.7z"/>
	<path class="st1" d="M32.4,33.8c-1.3,0-2.3,1-2.3,2.3s1,2.3,2.3,2.3c1.3,0,2.3-1,2.3-2.3S33.7,33.8,32.4,33.8z M32.4,37.4
		c-0.7,0-1.3-0.6-1.3-1.3s0.6-1.3,1.3-1.3s1.3,0.6,1.3,1.3S33.1,37.4,32.4,37.4z"/>
	<path class="st1" d="M36.7,30.2c-1.3,0-2.3,1-2.3,2.3c0,1.3,1,2.3,2.3,2.3s2.3-1,2.3-2.3C38.9,31.2,37.9,30.2,36.7,30.2z
		 M36.7,33.8c-0.7,0-1.3-0.6-1.3-1.3c0-0.7,0.6-1.3,1.3-1.3s1.3,0.6,1.3,1.3C38,33.2,37.4,33.8,36.7,33.8z"/>
</g>
</svg>
