<?xml version="1.0" encoding="utf-8"?>
<!-- Generator: Adobe Illustrator 22.1.0, SVG Export Plug-In . SVG Version: 6.00 Build 0)  -->
<svg version="1.1" id="Layer_1" xmlns="http://www.w3.org/2000/svg" xmlns:xlink="http://www.w3.org/1999/xlink" x="0px" y="0px"
	 viewBox="0 0 48 48" style="enable-background:new 0 0 48 48;" xml:space="preserve">
<style type="text/css">
	.st0{fill:#EFEFEF;}
	.st1{fill:#808080;}
</style>
<path class="st1" d="M24,6C14.1,6,6,14.1,6,24s8.1,18,18,18c9.9,0,18-8.1,18-18S33.9,6,24,6z M40.9,22.2l-4.5-2.6l1.6-5.3
	C39.6,16.6,40.6,19.3,40.9,22.2z M37.3,13.3l-1.8,5.9l-6.6,3l-4.4-3.5v-7l4.8-3.9l0,0C32.4,8.9,35.2,10.8,37.3,13.3z M26.8,28.5
	h-5.6l-1.6-5.3l4.4-3.6l4.4,3.6L26.8,28.5z M28.2,7.5L24,10.9l-4.2-3.3C21.2,7.2,22.6,7,24,7C25.4,7,26.8,7.2,28.2,7.5z M18.7,7.8
	L18.7,7.8l4.8,3.9v7l-4.4,3.5L13,19.2l0,0l-2.2-5.9C12.8,10.8,15.6,8.9,18.7,7.8z M12,19.6l-5,2.9c0.3-3,1.3-5.8,3-8.2L12,19.6z
	 M7,23.6l5.8-3.4l5.7,2.8c0,0,0,0.1,0,0.1l1.7,5.7l-4.8,4.3l-6.1-0.5C7.9,30.1,7,27.2,7,24C7,23.9,7,23.8,7,23.6z M10,33.7l5.3,0.4
	L16,39C13.6,37.7,11.6,35.9,10,33.7z M17.1,39.5l-0.8-5.8l4.8-4.3h5.9L32,34l-1,5.5c-2.1,1-4.5,1.5-7,1.5
	C21.5,41,19.2,40.5,17.1,39.5z M32.1,39l0.8-4.7l5-0.6C36.5,35.9,34.5,37.7,32.1,39z M38.7,32.6l-6,0.7l-5-4.4l1.7-5.7
	c0,0,0,0,0-0.1l6.2-2.8l5.3,3.1c0,0.2,0,0.4,0,0.7C41,27.1,40.1,30.1,38.7,32.6z"/>
</svg>
