<?xml version="1.0" encoding="utf-8"?>
<!-- Generator: Adobe Illustrator 22.1.0, SVG Export Plug-In . SVG Version: 6.00 Build 0)  -->
<svg version="1.1" id="Layer_1" xmlns="http://www.w3.org/2000/svg" xmlns:xlink="http://www.w3.org/1999/xlink" x="0px" y="0px"
	 viewBox="0 0 48 48" style="enable-background:new 0 0 48 48;" xml:space="preserve">
<style type="text/css">
	.st0{fill:#EFEFEF;}
	.st1{fill:#808080;}
</style>
<g>
	<path class="st1" d="M40,32.2l0-0.4c-0.6-13.7-1-18.2-1.4-19.5c0,0,0,0,0,0l0,0c-0.1-0.3-0.2-0.4-0.2-0.5c-0.6-0.6-5.9-2.1-8.7-2.9
		l-0.8-0.3l-1.2-2.3C27.6,6.1,27.4,6,27.2,6h-1.9H24h-3.3c-0.2,0-0.3,0.1-0.4,0.3l-1.2,2.3l-0.8,0.3c-2.7,0.8-8,2.3-8.7,2.9
		c-0.1,0.1-0.2,0.2-0.2,0.5l0,0c0,0,0,0,0,0C9,13.6,8.6,18.1,8,31.8l0,9.7C8,41.8,8.2,42,8.5,42h12.7c0.1,0,0.2,0,0.3-0.1l2.5-2.5
		l2.5,2.5c0.1,0.1,0.2,0.1,0.3,0.1h12.7c0.3,0,0.5-0.2,0.5-0.5L40,32.2z M29.8,11.7c-0.2,0-0.3,0.2-0.3,0.3c0,0.2,0,0.3,0.1,0.5
		l1.6,1.7c-0.6,1.6-2.4,5.1-5.8,9c0.4-1,0.7-2.2,1.1-3.5l0,0l0,0l0,0l0,0c0,0,0,0,0,0l0,0c0.9-3.4,1.9-7.4,2.4-10
		c0.2,0,0.3,0.1,0.5,0.1l2.6,0.9v0.4L29.8,11.7z M18.5,12.6c0.1-0.1,0.2-0.3,0.1-0.5c0-0.2-0.2-0.3-0.3-0.3l-2.3-0.7v-0.4l2.6-0.9
		c0.2,0,0.3-0.1,0.5-0.1c0.6,2.6,1.5,6.7,2.4,10l0,0c0,0,0,0,0,0l0,0l0,0l0,0l0,0c0.4,1.3,0.8,2.5,1.1,3.5c-3.4-3.9-5.2-7.4-5.8-9
		L18.5,12.6z M23,9.5c-0.5,0.2-1,0.4-1.5,0.7c-0.4,0.2-0.8,0.4-1.1,0.6c0,0,0,0,0,0l-0.4-1.7l0.9-1.6L23,9.5z M27.2,7.5l0.9,1.6
		l-0.4,1.7c0,0,0,0,0,0c-0.3-0.2-0.7-0.4-1.1-0.6c-0.5-0.2-1-0.5-1.5-0.7L27.2,7.5z M24,10.1L24,10.1L24,10.1L24,10.1L24,10.1z
		 M24,10.1c0.3,0.1,0.8,0.3,1.2,0.5l-0.9,1.5h-0.7l-0.9-1.5C23.2,10.4,23.7,10.3,24,10.1z M25.5,19.6L24,24.1l-1.5-4.5
		c-0.1-0.2-0.1-0.5-0.2-0.7l-0.1-0.3l1.5-5.5h0.5l1.5,5.5l-0.1,0.4C25.6,19.2,25.6,19.4,25.5,19.6z M26.6,15.3l-0.4,1.5l-1.1-4
		l1-1.7c0,0,0,0,0,0c0.4,0.2,0.7,0.4,1,0.5c0.1,0.1,0.2,0.1,0.3,0.2L26.6,15.3z M21.8,11.1C21.9,11.1,21.9,11,21.8,11.1l1,1.7
		l-1.1,4l-0.4-1.5l-0.8-3.5c0.1-0.1,0.2-0.1,0.3-0.2C21.1,11.4,21.5,11.2,21.8,11.1z M25.3,7h1L24,9.1L21.7,7H24H25.3z M9,32.2
		l0-0.4c0.2-4.5,0.6-14,1.1-17.8c1.7,4.5,3.8,10.3,3.8,11.5l-0.5,7V41H9L9,32.2z M14.4,30.1h2.9c-0.4,0.7-1.3,1.6-3,1.6L14.4,30.1z
		 M21,41h-6.7l0-8.3c2.8,0,4-1.9,4.2-3c0-0.1,0-0.3-0.1-0.4c-0.1-0.1-0.2-0.2-0.4-0.2h-3.5l0.3-3.6c0-1.9-3.5-11-4.3-13.2
		c0.6-0.3,2.3-0.8,4.5-1.5v0.6c0,0.2,0.1,0.4,0.4,0.5l1.9,0.5l-1.3,1.3l0.3,0.3l0,0l-0.3-0.3c-0.1,0.1-0.2,0.3-0.1,0.5
		c0.6,1.8,3,6.4,7.7,11.4v12.9L21,41z M24.5,38.5V25.7c4.7-4.9,7.1-9.6,7.7-11.4c0.1-0.2,0-0.4-0.1-0.5l-0.3,0.3l0,0l0.3-0.3
		l-1.3-1.3l1.9-0.5l-0.1-0.5h0l0.1,0.5c0.2-0.1,0.4-0.3,0.4-0.5v-0.6c2.2,0.7,3.9,1.2,4.5,1.5c-0.9,2.2-4.3,11.3-4.3,13.3l0.3,3.5
		H30c-0.1,0-0.3,0.1-0.4,0.2c-0.1,0.1-0.1,0.3-0.1,0.4c0.2,1,1.4,2.9,4.2,3V41H27L24.5,38.5z M33.7,31.7c-1.6,0-2.6-0.9-3-1.6h2.9
		L33.7,31.7z M34.7,41l0-8.6l-0.5-6.9c0-1.2,2.1-7.1,3.8-11.6c0.4,3.8,0.9,13.3,1.1,17.8l0,9.2H34.7z"/>
	<path class="st1" d="M26.5,26.9c-0.4,0-0.7,0.3-0.7,0.6c0,0.3,0.3,0.6,0.7,0.6c0.4,0,0.7-0.3,0.7-0.6
		C27.2,27.1,26.9,26.9,26.5,26.9z"/>
	<path class="st1" d="M26.5,30.8c-0.4,0-0.7,0.3-0.7,0.6c0,0.3,0.3,0.6,0.7,0.6c0.4,0,0.7-0.3,0.7-0.6
		C27.2,31.1,26.9,30.8,26.5,30.8z"/>
</g>
</svg>
