<?xml version="1.0" encoding="utf-8"?>
<!-- Generator: Adobe Illustrator 22.1.0, SVG Export Plug-In . SVG Version: 6.00 Build 0)  -->
<svg version="1.1" id="Layer_1" xmlns="http://www.w3.org/2000/svg" xmlns:xlink="http://www.w3.org/1999/xlink" x="0px" y="0px"
	 viewBox="0 0 48 48" style="enable-background:new 0 0 48 48;" xml:space="preserve">
<style type="text/css">
	.st0{fill:#EFEFEF;}
	.st1{fill:#808080;}
</style>
<g>
	<path class="st1" d="M31.2,6H8.7C7.2,6,6,7.2,6,8.7v30.5C6,40.8,7.2,42,8.7,42h22.4c1.5,0,2.7-1.2,2.7-2.7V8.7
		C33.9,7.2,32.7,6,31.2,6z M7.1,39.3V8.7c0-0.9,0.7-1.6,1.6-1.6h1.7v33.8H8.7C7.8,40.9,7.1,40.2,7.1,39.3z M32.8,39.3
		c0,0.9-0.7,1.6-1.6,1.6H11.5V7.1h19.7c0.9,0,1.6,0.7,1.6,1.6V39.3z"/>
	<path class="st1" d="M25.9,11.9h-7.7c-1.5,0-2.7,1.2-2.7,2.7v1.6c0,1.5,1.2,2.7,2.7,2.7h7.7c1.5,0,2.7-1.2,2.7-2.7v-1.6
		C28.6,13.2,27.4,11.9,25.9,11.9z M27.5,16.3c0,0.9-0.7,1.6-1.6,1.6h-7.7c-0.9,0-1.6-0.7-1.6-1.6v-1.6c0-0.9,0.7-1.6,1.6-1.6h7.7
		c0.9,0,1.6,0.7,1.6,1.6V16.3z"/>
	<path class="st1" d="M42,13.3C42,13.3,42,13.3,42,13.3L42,13.3L42,13.3L42,13.3L42,13.3C42,13.3,42,13.3,42,13.3l-2.7-6.9
		C39.1,6.1,38.9,6,38.7,6c-0.2,0-0.4,0.1-0.5,0.4l0,0l-2.5,6.9l0,0l0,0l0,0c0,0,0,0,0,0.1c0,0,0,0.1,0,0.1v25.8
		c0,1.5,1.2,2.7,2.7,2.7h0.9c1.5,0,2.7-1.2,2.7-2.7V13.5C42,13.4,42,13.3,42,13.3z M40.7,12.9H37l0.8-2.1h2.1L40.7,12.9z M36.8,14
		h4.1v23h-4.1V14z M38.7,8.1l0.6,1.6h-1.2L38.7,8.1z M39.3,40.9h-0.9c-0.9,0-1.6-0.7-1.6-1.6v-1.1h4.1v1.1
		C40.9,40.2,40.2,40.9,39.3,40.9z"/>
</g>
</svg>
