<?xml version="1.0" encoding="utf-8"?>
<!-- Generator: Adobe Illustrator 22.1.0, SVG Export Plug-In . SVG Version: 6.00 Build 0)  -->
<svg version="1.1" id="Layer_1" xmlns="http://www.w3.org/2000/svg" xmlns:xlink="http://www.w3.org/1999/xlink" x="0px" y="0px"
	 viewBox="0 0 48 48" style="enable-background:new 0 0 48 48;" xml:space="preserve">
<style type="text/css">
	.st0{fill:#EFEFEF;}
	.st1{fill:#808080;}
</style>
<path class="st1" d="M41.5,39h-1.7c-0.2-2.8-0.7-6.2-1.4-9.6l0,0l0.9-0.3c0.3-0.1,0.4-0.4,0.3-0.6c-0.1-0.3-0.3-0.4-0.6-0.3
	l-0.9,0.3c-2.1-8.9-6.3-18-13.6-18.5V8.5C24.5,8.2,24.3,8,24,8s-0.5,0.2-0.5,0.5v1.3C18.8,10,14.9,13.9,12,21
	c-1,2.4-1.7,4.9-2.3,7.3l-1-0.3c-0.3-0.1-0.5,0.1-0.6,0.3c-0.1,0.3,0.1,0.5,0.3,0.6l1.1,0.3c-0.9,4.2-1.3,7.9-1.4,9.6H6.5
	C6.2,39,6,39.2,6,39.5C6,39.8,6.2,40,6.5,40h35c0.3,0,0.5-0.2,0.5-0.5C42,39.2,41.8,39,41.5,39z M38.8,39h-2.9l1.9-7.5
	C38.3,34.1,38.6,36.6,38.8,39z M32.7,16.9c1.9,3.1,3.3,7,4.3,11l-12.5-8.8v-2.2H32.7z M35.7,35.7h-3.5l-1.8-11.2l6.8,4.8
	c0,0.1,0.1,0.1,0.2,0.2L35.7,35.7z M29.3,23.7l1.9,12H16.8l2-12L24,20L29.3,23.7z M15.8,35.7h-3.5l-1.6-6.3l7-4.9L15.8,35.7z
	 M35.4,36.7L34.8,39H13.2l-0.6-2.3H35.4z M23.9,10.8c3.3,0,6,2,8.1,5.1H15.8C17.9,12.9,20.6,10.8,23.9,10.8z M15.1,16.9h8.4v2.2
	l-12.7,8.9C11.8,24.1,13.2,20.1,15.1,16.9z M10.2,31.2l2,7.8H9.1C9.3,36.7,9.6,34,10.2,31.2z"/>
</svg>
