<?xml version="1.0" encoding="utf-8"?>
<!-- Generator: Adobe Illustrator 22.1.0, SVG Export Plug-In . SVG Version: 6.00 Build 0)  -->
<svg version="1.1" id="Layer_1" xmlns="http://www.w3.org/2000/svg" xmlns:xlink="http://www.w3.org/1999/xlink" x="0px" y="0px"
	 viewBox="0 0 48 48" style="enable-background:new 0 0 48 48;" xml:space="preserve">
<style type="text/css">
	.st0{fill:#EFEFEF;}
	.st1{fill:#808080;}
</style>
<g>
	<path class="st1" d="M35.3,10.8H12.7c-0.8,0-1.5,0.7-1.5,1.5v15.3c0,0.3,0.2,0.5,0.5,0.5h24.5c0.3,0,0.5-0.2,0.5-0.5V12.3
		C36.7,11.5,36.1,10.8,35.3,10.8z M35.8,27.2H12.2V12.3c0-0.3,0.2-0.5,0.5-0.5h22.5c0.3,0,0.5,0.2,0.5,0.5V27.2z"/>
	<path class="st1" d="M42,36.2C42,36.2,42,36.2,42,36.2l-2.6-5.7c0-0.1-0.1-0.1-0.1-0.1V10.4c0-1.3-1.1-2.4-2.4-2.4H11.2
		c-1.3,0-2.4,1.1-2.4,2.4v19.9c0,0-0.1,0.1-0.1,0.1L6,36.2c0,0,0,0,0,0c0,0.1,0,0.1,0,0.2v3.1C6,39.8,6.2,40,6.5,40h35
		c0.3,0,0.5-0.2,0.5-0.5v-3.1C42,36.3,42,36.3,42,36.2z M9.7,10.4c0-0.8,0.7-1.5,1.5-1.5h25.7c0.8,0,1.5,0.7,1.5,1.5v19.7H9.7V10.4z
		 M9.4,31.1h29.3l2.1,4.8H28.5L28,33.5c0-0.2-0.2-0.4-0.5-0.4h-7c-0.2,0-0.4,0.2-0.5,0.4l-0.5,2.5H7.2L9.4,31.1z M27.5,35.9h-7
		l0.4-1.9h6.2L27.5,35.9z M41,39H7v-2.1h12.9h8.2H41V39z"/>
</g>
</svg>
