<?xml version="1.0" encoding="utf-8"?>
<!-- Generator: Adobe Illustrator 22.1.0, SVG Export Plug-In . SVG Version: 6.00 Build 0)  -->
<svg version="1.1" id="Layer_1" xmlns="http://www.w3.org/2000/svg" xmlns:xlink="http://www.w3.org/1999/xlink" x="0px" y="0px"
	 viewBox="0 0 48 48" style="enable-background:new 0 0 48 48;" xml:space="preserve">
<style type="text/css">
	.st0{fill:#EFEFEF;}
	.st1{fill:#808080;}
</style>
<path class="st1" d="M37.9,38.3L28.3,22l3.8-9.9c0.1-0.2,0-0.4-0.1-0.5c-0.6-0.5-1.4-1-2.4-1.4V6.5c0-0.3-0.2-0.5-0.5-0.5
	c-0.3,0-0.5,0.2-0.5,0.5v3.4c-1.5-0.3-3.2-0.1-4.7,1.3c-1-0.8-2.7-1.7-4.6-1.4V6.5c0-0.3-0.2-0.5-0.5-0.5c-0.3,0-0.5,0.2-0.5,0.5V10
	c-0.8,0.3-1.6,0.8-2.4,1.5c-0.1,0.1-0.2,0.4-0.1,0.5l4.4,10L10.1,38.3C10,38.4,10,38.6,10,38.7c0,0.1,0.1,0.2,0.2,0.3
	c2.5,1.4,7.5,3,13.6,3c4.2,0,9-0.8,13.9-3c0.1-0.1,0.2-0.2,0.3-0.3C38,38.6,38,38.4,37.9,38.3z M23.6,12.3c0.1,0.1,0.2,0.2,0.4,0.1
	c0.1,0,0.3-0.1,0.3-0.2c2.2-2.5,5.2-1.3,6.7-0.2l-3.6,9.4H21L16.8,12C19.5,9.6,22.4,11.1,23.6,12.3z M11.2,38.4l10-15.9h6.3
	l9.4,15.9C25.9,43.1,15.6,40.6,11.2,38.4z"/>
</svg>
