<?xml version="1.0" encoding="utf-8"?>
<!-- Generator: Adobe Illustrator 22.1.0, SVG Export Plug-In . SVG Version: 6.00 Build 0)  -->
<svg version="1.1" id="Layer_1" xmlns="http://www.w3.org/2000/svg" xmlns:xlink="http://www.w3.org/1999/xlink" x="0px" y="0px"
	 viewBox="0 0 48 48" style="enable-background:new 0 0 48 48;" xml:space="preserve">
<style type="text/css">
	.st0{fill:#EFEFEF;}
	.st1{fill:#808080;}
</style>
<path class="st1" d="M41.7,19.9c-0.6-1-1.9-1.2-2.8-0.5l-0.1,0.1v-2.6c1.1,0,2.1-0.9,2.1-2.1c0-1.2-0.9-2.1-2.1-2.1h-0.2
	c-0.5-2.1-2.4-3.7-4.7-3.7h-6.4c0.2-0.3,0.3-0.6,0.3-1c0-1.2-0.9-2.1-2.1-2.1h-3.3c-1.2,0-2.1,0.9-2.1,2.1c0,0.4,0.1,0.7,0.3,1h-6.4
	c-2.3,0-4.2,1.6-4.7,3.7H9.1C8,12.8,7,13.7,7,14.8s0.9,2.1,2.1,2.1h0.1v2.6l-0.1-0.1c-0.9-0.7-2.2-0.5-2.8,0.5
	c-0.6,0.9-0.3,2.2,0.5,2.9l2.4,1.8v12.4c0,2.7,2.2,4.9,4.9,4.9h19.7c2.7,0,4.9-2.2,4.9-4.9V24.7l2.4-1.8
	C42,22.1,42.3,20.8,41.7,19.9z M21.3,8.1c0-0.5,0.4-1,1-1h3.3c0.5,0,1,0.4,1,1c0,0.5-0.4,1-1,1h-3.3C21.8,9.1,21.3,8.6,21.3,8.1z
	 M14.1,10.2h8.2c0,0,0,0,0,0h3.3c0,0,0,0,0,0h8.2c1.7,0,3.1,1.1,3.6,2.6h-27C11,11.3,12.5,10.2,14.1,10.2z M8.1,14.8
	c0-0.5,0.4-1,1-1h0.7c0,0,0,0,0,0h28.4c0,0,0,0,0,0h0.6c0.5,0,1,0.4,1,1c0,0.5-0.4,1-1,1h-0.5c0,0,0,0,0,0H9.8c0,0,0,0,0,0H9.1
	C8.6,15.8,8.1,15.4,8.1,14.8z M7.5,21.9c-0.4-0.3-0.6-1-0.3-1.5C7.5,20.1,8,20,8.4,20.3l0.8,0.6v2.4L7.5,21.9z M33.9,40.9H14.1
	c-1.4,0-2.6-0.7-3.2-1.8h26.2C36.4,40.2,35.2,40.9,33.9,40.9z M37.6,38H10.4c-0.1-0.3-0.1-0.6-0.1-0.9V24.4c0,0,0,0,0,0v-3.7
	c0,0,0,0,0,0v-3.7h27.4v3.7c0,0,0,0,0,0v3.7c0,0,0,0,0,0v12.7C37.7,37.4,37.6,37.7,37.6,38z M38.8,23.3v-2.4l0.8-0.6
	c0.4-0.3,0.9-0.2,1.2,0.2c0.3,0.5,0.2,1.1-0.3,1.5L38.8,23.3z"/>
</svg>
