<?xml version="1.0" encoding="utf-8"?>
<!-- Generator: Adobe Illustrator 22.1.0, SVG Export Plug-In . SVG Version: 6.00 Build 0)  -->
<svg version="1.1" id="Layer_1" xmlns="http://www.w3.org/2000/svg" xmlns:xlink="http://www.w3.org/1999/xlink" x="0px" y="0px"
	 viewBox="0 0 48 48" style="enable-background:new 0 0 48 48;" xml:space="preserve">
<style type="text/css">
	.st0{fill:#EFEFEF;}
	.st1{fill:#808080;}
</style>
<g>
	<path class="st1" d="M24,6C14.1,6,6,14.1,6,24s8.1,18,18,18s18-8.1,18-18S33.9,6,24,6z M24,41c-9.4,0-17-7.6-17-17S14.6,7,24,7
		s17,7.6,17,17S33.4,41,24,41z"/>
	<path class="st1" d="M12.2,30c-0.1-0.2-0.4-0.3-0.7-0.2c-0.2,0.1-0.3,0.4-0.2,0.7c0.6,1.2,1.4,2.3,2.3,3.3c0.1,0.1,0.2,0.2,0.4,0.2
		c0.1,0,0.2,0,0.3-0.1c0.2-0.2,0.2-0.5,0-0.7C13.5,32.2,12.8,31.1,12.2,30z"/>
	<path class="st1" d="M19.8,10.9c-0.1-0.3-0.4-0.4-0.6-0.3c-1.3,0.5-2.5,1.1-3.5,1.9c-0.2,0.2-0.3,0.5-0.1,0.7
		c0.1,0.1,0.2,0.2,0.4,0.2c0.1,0,0.2,0,0.3-0.1c1-0.7,2.1-1.3,3.3-1.8C19.8,11.4,19.9,11.1,19.8,10.9z"/>
	<path class="st1" d="M11.7,19.1c0.5-1.2,1.1-2.3,1.9-3.2c0.2-0.2,0.1-0.5-0.1-0.7c-0.2-0.2-0.5-0.1-0.7,0.1c-0.8,1.1-1.5,2.2-2,3.5
		c-0.1,0.2,0,0.5,0.3,0.6c0.1,0,0.1,0,0.2,0C11.4,19.4,11.6,19.3,11.7,19.1z"/>
	<path class="st1" d="M20.8,36.9c-1.2-0.3-2.4-0.8-3.5-1.4c-0.2-0.1-0.5-0.1-0.7,0.2c-0.1,0.2-0.1,0.5,0.2,0.7
		c1.2,0.7,2.4,1.2,3.7,1.5c0,0,0.1,0,0.1,0c0.2,0,0.4-0.1,0.5-0.4C21.2,37.2,21,36.9,20.8,36.9z"/>
	<path class="st1" d="M23.2,10.8c1.5-0.1,3.1,0.1,4.5,0.5c0,0,0.1,0,0.1,0c0.2,0,0.4-0.1,0.5-0.4c0.1-0.3-0.1-0.5-0.3-0.6
		c-1.6-0.5-3.2-0.6-4.9-0.5c-0.3,0-0.5,0.2-0.5,0.5C22.7,10.6,22.9,10.8,23.2,10.8z"/>
	<path class="st1" d="M10.8,22.8c0-0.3-0.2-0.5-0.4-0.5c-0.3,0-0.5,0.2-0.5,0.4c0,0.4-0.1,0.9-0.1,1.3c0,0.9,0.1,1.8,0.2,2.7
		c0,0.2,0.2,0.4,0.5,0.4c0,0,0.1,0,0.1,0c0.3-0.1,0.4-0.3,0.4-0.6c-0.2-0.8-0.2-1.7-0.2-2.5C10.8,23.6,10.8,23.2,10.8,22.8z"/>
	<path class="st1" d="M34.3,32.5c-0.8,1-1.7,1.8-2.8,2.5c-0.2,0.2-0.3,0.5-0.1,0.7c0.1,0.1,0.2,0.2,0.4,0.2c0.1,0,0.2,0,0.3-0.1
		c1.1-0.8,2.1-1.7,3-2.7c0.2-0.2,0.1-0.5-0.1-0.7C34.8,32.2,34.5,32.3,34.3,32.5z"/>
	<path class="st1" d="M37.6,22.3C37.7,22.3,37.7,22.3,37.6,22.3c0.3,0,0.5-0.3,0.5-0.6c-0.2-1.3-0.6-2.6-1.2-3.8
		c-0.1-0.2-0.4-0.3-0.6-0.2c-0.2,0.1-0.3,0.4-0.2,0.6c0.5,1.1,0.9,2.3,1.1,3.6C37.2,22.2,37.4,22.3,37.6,22.3z"/>
	<path class="st1" d="M28.2,36.6c-1.2,0.4-2.4,0.6-3.7,0.6c-0.3,0-0.5,0.2-0.5,0.5c0,0.3,0.2,0.5,0.5,0.5c0,0,0,0,0,0
		c1.4,0,2.7-0.3,4-0.7c0.3-0.1,0.4-0.4,0.3-0.6C28.7,36.7,28.4,36.5,28.2,36.6z"/>
	<path class="st1" d="M37.8,25.2c-0.3,0-0.5,0.2-0.5,0.4c-0.2,1.2-0.5,2.5-1,3.6c-0.1,0.2,0,0.5,0.3,0.6c0.1,0,0.1,0,0.2,0
		c0.2,0,0.4-0.1,0.4-0.3c0.5-1.2,0.9-2.5,1.1-3.9C38.2,25.5,38,25.3,37.8,25.2z"/>
	<path class="st1" d="M34.4,15.4c0.1,0,0.2,0,0.3-0.1c0.2-0.2,0.2-0.5,0-0.7c-0.9-1-1.9-1.9-3.1-2.6c-0.2-0.1-0.5-0.1-0.7,0.1
		c-0.1,0.2-0.1,0.5,0.1,0.7c1.1,0.7,2,1.5,2.8,2.4C34.1,15.3,34.2,15.4,34.4,15.4z"/>
	<path class="st1" d="M30,21.6L26.2,21l-1.7-3.5c-0.2-0.3-0.7-0.3-0.9,0L21.8,21L18,21.6c-0.2,0-0.3,0.2-0.4,0.3
		c-0.1,0.2,0,0.4,0.1,0.5l2.8,2.7L19.8,29c0,0.2,0,0.4,0.2,0.5c0.1,0.1,0.2,0.1,0.3,0.1c0.1,0,0.2,0,0.2-0.1l3.5-1.8l3.5,1.8
		c0.2,0.1,0.4,0.1,0.5,0c0.2-0.1,0.2-0.3,0.2-0.5l-0.7-3.8l2.8-2.7c0.1-0.1,0.2-0.3,0.1-0.5C30.4,21.7,30.2,21.6,30,21.6z
		 M26.6,24.6c-0.1,0.1-0.2,0.3-0.1,0.4l0.5,3.1l-2.8-1.5c-0.1,0-0.1-0.1-0.2-0.1s-0.2,0-0.2,0.1L21,28.2l0.5-3.1
		c0-0.2,0-0.3-0.1-0.4l-2.3-2.2l3.1-0.5c0.2,0,0.3-0.1,0.4-0.3l1.4-2.8l1.4,2.8c0.1,0.1,0.2,0.2,0.4,0.3l3.1,0.5L26.6,24.6z"/>
</g>
</svg>
