<?xml version="1.0" encoding="utf-8"?>
<!-- Generator: Adobe Illustrator 22.1.0, SVG Export Plug-In . SVG Version: 6.00 Build 0)  -->
<svg version="1.1" id="Layer_1" xmlns="http://www.w3.org/2000/svg" xmlns:xlink="http://www.w3.org/1999/xlink" x="0px" y="0px"
	 viewBox="0 0 48 48" style="enable-background:new 0 0 48 48;" xml:space="preserve">
<style type="text/css">
	.st0{fill:#EFEFEF;}
	.st1{fill:#808080;}
</style>
<path class="st1" d="M40.5,19.8h-2.3v-8.3c0-0.3-0.2-0.5-0.5-0.5h-3.3V7.5C34.5,6.7,33.8,6,33,6H11.5C8.5,6,6,8.5,6,11.5v30
	C6,41.8,6.2,42,6.5,42h31.3c0.3,0,0.5-0.2,0.5-0.5v-8.3h2.3c0.8,0,1.5-0.7,1.5-1.5V21.2C42,20.4,41.3,19.8,40.5,19.8z M11.5,7H33
	c0.3,0,0.5,0.2,0.5,0.5V11H7C7.2,8.7,9.2,7,11.5,7z M37.3,41H7V12h27h3.3v7.8H35c-0.8,0-1.5,0.7-1.5,1.5v10.6c0,0.8,0.7,1.5,1.5,1.5
	h2.3V41z M41,31.8c0,0.3-0.2,0.5-0.5,0.5H35c-0.3,0-0.5-0.2-0.5-0.5V21.2c0-0.3,0.2-0.5,0.5-0.5h5.6c0.3,0,0.5,0.2,0.5,0.5V31.8z"/>
</svg>
