<?xml version="1.0" encoding="utf-8"?>
<!-- Generator: Adobe Illustrator 22.1.0, SVG Export Plug-In . SVG Version: 6.00 Build 0)  -->
<svg version="1.1" id="Layer_1" xmlns="http://www.w3.org/2000/svg" xmlns:xlink="http://www.w3.org/1999/xlink" x="0px" y="0px"
	 viewBox="0 0 48 48" style="enable-background:new 0 0 48 48;" xml:space="preserve">
<style type="text/css">
	.st0{fill:#EFEFEF;}
	.st1{fill:#808080;}
</style>
<g>
	<path class="st1" d="M39.5,11H37V8.5C37,7.1,35.9,6,34.5,6H8.5C7.1,6,6,7.1,6,8.5v21.1C6,30.9,7.1,32,8.5,32H11v7.5
		c0,1.4,1.1,2.5,2.5,2.5h26.1c1.4,0,2.5-1.1,2.5-2.5V13.5C42,12.1,40.9,11,39.5,11z M11,13.5V31H8.5C7.6,31,7,30.3,7,29.5V8.5
		C7,7.6,7.6,7,8.5,7h26.1C35.3,7,36,7.6,36,8.5V11H13.5C12.1,11,11,12.1,11,13.5z M41,39.5c0,0.8-0.7,1.5-1.5,1.5H13.5
		c-0.8,0-1.5-0.7-1.5-1.5V13.5c0-0.8,0.7-1.5,1.5-1.5h26.1c0.8,0,1.5,0.7,1.5,1.5V39.5z"/>
	<path class="st1" d="M33.5,19.3c-0.2-0.2-0.5-0.2-0.7,0L26.1,26l-6.7-6.7c-0.2-0.2-0.5-0.2-0.7,0s-0.2,0.5,0,0.7l6.7,6.7l-6.7,6.7
		c-0.2,0.2-0.2,0.5,0,0.7c0.1,0.1,0.2,0.1,0.3,0.1c0.1,0,0.3,0,0.3-0.1l6.7-6.7l6.7,6.7c0.1,0.1,0.2,0.1,0.3,0.1
		c0.1,0,0.3,0,0.3-0.1c0.2-0.2,0.2-0.5,0-0.7l-6.7-6.7l6.7-6.7C33.7,19.8,33.7,19.5,33.5,19.3z"/>
</g>
</svg>
