<?xml version="1.0" encoding="utf-8"?>
<!-- Generator: Adobe Illustrator 22.1.0, SVG Export Plug-In . SVG Version: 6.00 Build 0)  -->
<svg version="1.1" id="Layer_1" xmlns="http://www.w3.org/2000/svg" xmlns:xlink="http://www.w3.org/1999/xlink" x="0px" y="0px"
	 viewBox="0 0 48 48" style="enable-background:new 0 0 48 48;" xml:space="preserve">
<style type="text/css">
	.st0{fill:#EFEFEF;}
	.st1{fill:#808080;}
</style>
<g>
	<path class="st1" d="M40.5,19.8h-3c-0.3-0.8-0.6-1.6-1-2.4l2-2c0.4-0.4,0.4-1,0.2-1.5c-0.2-0.5-0.5-1.1-1-1.6l-2.1-2.1
		c-0.5-0.5-1-0.8-1.6-1C33.6,9,33,9,32.6,9.4l-2,2c-0.8-0.4-1.5-0.7-2.4-1v-3c0-0.8-0.7-1.5-1.5-1.5h-5.6c-0.8,0-1.5,0.7-1.5,1.5v3
		c-0.8,0.3-1.6,0.6-2.4,1l-2-2C15,9,14.4,9,13.9,9.2c-0.5,0.2-1.1,0.5-1.6,1l-2.1,2.1c-0.5,0.5-0.8,1-1,1.6C9,14.4,9,15,9.4,15.4
		l2,2c-0.4,0.8-0.7,1.5-1,2.4h-3c-0.8,0-1.5,0.7-1.5,1.5v5.6c0,0.8,0.7,1.5,1.5,1.5h3c0.3,0.8,0.6,1.6,1,2.4l-2,2
		C9,33,9,33.6,9.2,34.1c0.2,0.5,0.5,1.1,1,1.6l2.1,2.1c0.5,0.5,1,0.8,1.6,1c0.5,0.2,1.1,0.2,1.5-0.2l2-2c0.8,0.4,1.5,0.7,2.4,1v3
		c0,0.8,0.7,1.5,1.5,1.5h5.6c0.8,0,1.5-0.7,1.5-1.5v-3c0.8-0.3,1.6-0.6,2.4-1l2,2c0.4,0.4,1,0.4,1.5,0.2c0.5-0.2,1.1-0.5,1.6-1
		l2.1-2.1c0.5-0.5,0.8-1,1-1.6c0.2-0.5,0.2-1.1-0.2-1.5l-2-2c0.4-0.8,0.7-1.5,1-2.4h3c0.8,0,1.5-0.7,1.5-1.5v-5.6
		C42,20.4,41.3,19.8,40.5,19.8z M40.5,27.3h-3.3c-0.2,0-0.4,0.1-0.5,0.4c-0.3,1-0.7,2-1.2,2.9c-0.1,0.2-0.1,0.4,0.1,0.6l0.3-0.3h0
		l-0.3,0.3l2.2,2.2c0,0,0.1,0.2,0,0.5c-0.1,0.3-0.4,0.8-0.8,1.2L35,37.1c-0.4,0.4-0.8,0.7-1.2,0.8c-0.4,0.1-0.5,0-0.5,0l-2.2-2.2
		c-0.2-0.2-0.4-0.2-0.6-0.1l0.2,0.4l0,0l-0.2-0.4c-0.9,0.5-1.8,0.9-2.9,1.2c-0.2,0.1-0.4,0.3-0.4,0.5v3.3c0,0.3-0.2,0.5-0.5,0.5
		h-5.6c-0.3,0-0.5-0.2-0.5-0.5v-3.3c0-0.2-0.1-0.4-0.4-0.5l-0.1,0.5l0,0l0.1-0.5c-1-0.3-2-0.7-2.9-1.2L17.3,36h0l0.2-0.4
		c-0.2-0.1-0.4-0.1-0.6,0.1l-2.2,2.2c0,0-0.2,0.1-0.5,0c-0.3-0.1-0.8-0.4-1.2-0.8L10.9,35c-0.4-0.4-0.7-0.8-0.8-1.2
		c-0.1-0.4,0-0.5,0-0.5l2.2-2.2c0.2-0.2,0.2-0.4,0.1-0.6L12,30.7h0l0.4-0.2c-0.5-0.9-0.9-1.8-1.2-2.9c-0.1-0.2-0.3-0.4-0.5-0.4H7.5
		C7.2,27.3,7,27,7,26.8v-5.6c0-0.3,0.2-0.5,0.5-0.5h3.3c0.2,0,0.4-0.1,0.5-0.4c0.3-1,0.7-2,1.2-2.9L12,17.3l0,0l0.4,0.2
		c0.1-0.2,0.1-0.4-0.1-0.6l-2.2-2.2c0,0-0.1-0.2,0-0.5c0.1-0.3,0.4-0.8,0.8-1.2l2.1-2.1c0.4-0.4,0.8-0.7,1.2-0.8
		c0.4-0.1,0.5,0,0.5,0l2.2,2.2l0.3-0.3h0l-0.3,0.3c0.2,0.2,0.4,0.2,0.6,0.1c0.9-0.5,1.8-0.9,2.9-1.2c0.2-0.1,0.4-0.3,0.4-0.5V7.5
		C20.7,7.2,21,7,21.2,7h5.6c0.3,0,0.5,0.2,0.5,0.5v3.3c0,0.2,0.1,0.4,0.4,0.5c1,0.3,2,0.7,2.9,1.2c0.2,0.1,0.4,0.1,0.6-0.1L30.7,12
		v0l0.3,0.3l2.2-2.2c0,0,0.2-0.1,0.5,0c0.3,0.1,0.8,0.4,1.2,0.8l2.1,2.1c0.4,0.4,0.7,0.8,0.8,1.2c0.1,0.4,0,0.5,0,0.5l-2.2,2.2
		l0.3,0.3l0,0l-0.3-0.3c-0.2,0.2-0.2,0.4-0.1,0.6c0.5,0.9,0.9,1.8,1.2,2.9c0.1,0.2,0.3,0.4,0.5,0.4h3.3c0.3,0,0.5,0.2,0.5,0.5v5.6
		C41,27,40.8,27.3,40.5,27.3z"/>
	<path class="st1" d="M24,16c-4.4,0-8,3.6-8,8s3.6,8,8,8s8-3.6,8-8S28.4,16,24,16z M24,31c-3.9,0-7-3.1-7-7c0-3.9,3.1-7,7-7
		c3.9,0,7,3.1,7,7C31,27.9,27.9,31,24,31z"/>
</g>
</svg>
