<?xml version="1.0" encoding="utf-8"?>
<!-- Generator: Adobe Illustrator 22.1.0, SVG Export Plug-In . SVG Version: 6.00 Build 0)  -->
<svg version="1.1" id="Layer_1" xmlns="http://www.w3.org/2000/svg" xmlns:xlink="http://www.w3.org/1999/xlink" x="0px" y="0px"
	 viewBox="0 0 48 48" style="enable-background:new 0 0 48 48;" xml:space="preserve">
<style type="text/css">
	.st0{fill:#EFEFEF;}
	.st1{fill:#808080;}
</style>
<path class="st1" d="M37.6,30.3V18.9c0-5.6-4.6-10.2-10.2-10.2h-0.1C27,7.2,25.6,6,24,6c-1.6,0-3,1.2-3.3,2.7h-0.1
	c-5.6,0-10.2,4.6-10.2,10.2v11.4c-2.4,0-4.4,2-4.4,4.4v0.9C6,36.3,6.7,37,7.5,37h3.4h7.6v0.6c0,2.4,2,4.4,4.4,4.4h2.2
	c2.4,0,4.4-2,4.4-4.4V37h7.6h3.4c0.8,0,1.5-0.7,1.5-1.5v-0.9C42,32.3,40,30.3,37.6,30.3z M28.5,37.6c0,1.9-1.5,3.4-3.4,3.4h-2.2
	c-1.9,0-3.4-1.5-3.4-3.4V37h9V37.6z M40.5,36h-3.4H24h0v0l0,0v0c0,0,0,0,0,0c0,0,0,0,0,0h0H10.9H7.5C7.2,36,7,35.8,7,35.5v-0.9
	c0-1.9,1.5-3.4,3.4-3.4h0.5c0.3,0,0.5-0.2,0.5-0.5V18.9c0-5.1,4.1-9.2,9.2-9.2h0.5c0.3,0,0.5-0.2,0.5-0.5l-0.5,0l0,0l0.5,0
	C21.7,8,22.7,7,24,7c1.3,0,2.3,1,2.4,2.3l0.5,0l0,0l-0.5,0c0,0.3,0.2,0.5,0.5,0.5h0.5c5.1,0,9.2,4.1,9.2,9.2v11.8
	c0,0.3,0.2,0.5,0.5,0.5h0.5c1.9,0,3.4,1.5,3.4,3.4v0.9C41,35.8,40.8,36,40.5,36z"/>
</svg>
