<?xml version="1.0" encoding="utf-8"?>
<!-- Generator: Adobe Illustrator 22.1.0, SVG Export Plug-In . SVG Version: 6.00 Build 0)  -->
<svg version="1.1" id="Layer_1" xmlns="http://www.w3.org/2000/svg" xmlns:xlink="http://www.w3.org/1999/xlink" x="0px" y="0px"
	 viewBox="0 0 48 48" style="enable-background:new 0 0 48 48;" xml:space="preserve">
<style type="text/css">
	.st0{fill:#EFEFEF;}
	.st1{fill:#808080;}
</style>
<g>
	<path class="st1" d="M37.8,10.1h-1.7c-0.9,0-1.6-0.7-1.6-1.6c0-1.4-1.1-2.6-2.6-2.6H16.1c-1.4,0-2.6,1.1-2.6,2.6
		c0,0.9-0.7,1.6-1.6,1.6h-1.7C7.9,10.1,6,12,6,14.4v23.2C6,40,8,42,10.4,42h27.2c2.4,0,4.4-2,4.4-4.4V14.4
		C42,12,40.1,10.1,37.8,10.1z M37.6,41H10.4C8.5,41,7,39.5,7,37.6V14.4c0-1.8,1.5-3.3,3.3-3.3h1.7c1.4,0,2.6-1.1,2.6-2.6
		c0-0.9,0.7-1.6,1.6-1.6h15.9c0.9,0,1.6,0.7,1.6,1.6c0,1.4,1.1,2.6,2.6,2.6h1.7c1.8,0,3.3,1.5,3.3,3.3v23.2C41,39.5,39.5,41,37.6,41
		z"/>
	<path class="st1" d="M24,15.3c-5.8,0-10.5,4.8-10.5,10.8S18.2,36.9,24,36.9S34.5,32,34.5,26.1S29.8,15.3,24,15.3z M24,35.9
		c-5.2,0-9.5-4.4-9.5-9.8c0-5.4,4.3-9.8,9.5-9.8c5.3,0,9.5,4.4,9.5,9.8C33.5,31.5,29.3,35.9,24,35.9z"/>
	<path class="st1" d="M24,19.2c-3.7,0-6.7,3.1-6.7,6.9s3,6.9,6.7,6.9s6.7-3.1,6.7-6.9S27.7,19.2,24,19.2z M24,32
		c-3.2,0-5.8-2.7-5.8-5.9s2.6-5.9,5.8-5.9c3.2,0,5.8,2.7,5.8,5.9S27.2,32,24,32z"/>
	<path class="st1" d="M35.9,14c-1.3,0-2.4,1.1-2.4,2.4c0,1.3,1.1,2.4,2.4,2.4s2.4-1.1,2.4-2.4C38.2,15.1,37.2,14,35.9,14z
		 M35.9,17.9c-0.8,0-1.4-0.6-1.4-1.4c0-0.8,0.6-1.4,1.4-1.4c0.8,0,1.4,0.6,1.4,1.4C37.3,17.2,36.7,17.9,35.9,17.9z"/>
</g>
</svg>
