<?xml version="1.0" encoding="utf-8"?>
<!-- Generator: Adobe Illustrator 22.1.0, SVG Export Plug-In . SVG Version: 6.00 Build 0)  -->
<svg version="1.1" id="Layer_1" xmlns="http://www.w3.org/2000/svg" xmlns:xlink="http://www.w3.org/1999/xlink" x="0px" y="0px"
	 viewBox="0 0 240 180" style="enable-background:new 0 0 240 180;" xml:space="preserve">
<style type="text/css">
	.st0{fill:#E0486C;}
	.st1{fill:#EE8069;}
	.st2{fill:#F3B757;}
	.st3{fill:#FFD0DD;}
	.st4{fill:#E9A639;}
	.st5{fill:#00538D;}
	.st6{fill:#FFB53D;}
	.st7{fill:#0068B0;}
	.st8{fill:#007BD0;}
	.st9{fill:#FFC059;}
	.st10{fill:#FEFEFE;}
	.st11{fill:#FF7097;}
	.st12{fill:#F4366A;}
	.st13{fill:#ED5881;}
	.st14{fill:#FF95B2;}
	.st15{fill:#FF628D;}
	.st16{fill:#FF7963;}
	.st17{fill:#FFD0DD;filter:url(#Adobe_OpacityMaskFilter);}
	.st18{mask:url(#mask0_1_);}
	.st19{fill:#005A99;}
	.st20{fill:#444444;}
	.st21{fill:#111111;}
	.st22{fill:#1C80C5;}
	.st23{fill:#D72253;}
	.st24{fill:#F5F5F5;}
	.st25{fill:#FFE9EF;}
	.st26{fill:#00497C;}
	.st27{fill:#C79037;}
	.st28{fill:#F9A61E;}
	.st29{fill:#FFCD7D;}
	.st30{fill:#D62757;}
	.st31{fill:#E5E5E5;filter:url(#Adobe_OpacityMaskFilter_1_);}
	.st32{mask:url(#mask0_3_);}
	.st33{fill:#E5E5E5;filter:url(#Adobe_OpacityMaskFilter_2_);}
	.st34{mask:url(#mask1_2_);}
	.st35{fill:#E5E5E5;filter:url(#Adobe_OpacityMaskFilter_3_);}
	.st36{mask:url(#mask0_4_);}
	.st37{fill:#E5E5E5;filter:url(#Adobe_OpacityMaskFilter_4_);}
	.st38{mask:url(#mask0_2_);}
	.st39{fill:#FFFFFF;}
	.st40{fill:none;stroke:#FFFFFF;stroke-width:2;stroke-miterlimit:10;stroke-dasharray:5,5;}
	.st41{fill:#EFEFEF;}
	.st42{fill:#C4C4C4;}
</style>
<g>
	<path class="st25" d="M169.6,32c-4.9,0.9-9.7,2.1-14.5,3.4c-6.5-3.1-13.5-5.2-20.8-6.2l0,0.1c-30-3.7-55.1,4.6-65.3,19.7
		C44,47.5,19.4,58.6,9.2,78c-12.7,24.2,1.7,51.9,32.2,62.1l0.1-0.2c18.5,6.1,37.3,8,53.7,6.2c16.5,12.9,43,18.5,73.1,13.2l0,0.2
		c36.7-6.6,66.7-40.6,67.1-75.9c0.4-35.3-29.1-58.6-65.8-51.9L169.6,32z"/>
	<path class="st7" d="M175.7,94.7c-5.8-5.4-14.9-4.9-20.2,1.2l10.6,9.8L175.7,94.7z"/>
	<path class="st7" d="M175.7,94.7c5.7,5.3,6,14.5,0.7,20.5l-10.3-9.6L175.7,94.7z"/>
	<path class="st7" d="M155.5,95.9l20.9,19.4l-8.2,9.4l-20.9-19.4L155.5,95.9z"/>
	<path class="st6" d="M122.6,133.5l12.1,11.1l33.5-19.9l-20.9-19.4L122.6,133.5z"/>
	<path class="st6" d="M138.3,142.6c4.3-3.7,4.9-10.3,1.4-14.8l-7.9,6.6L138.3,142.6z"/>
	<path class="st9" d="M138.3,142.6c-4.2,3.6-10.6,2.8-14.2-1.7l7.7-6.5L138.3,142.6z"/>
	<path class="st6" d="M139.7,127.8l-15.5,13.1l-5.6-7l15.5-13.1L139.7,127.8z"/>
	<path class="st6" d="M96.4,73.5l-8.8,7.6l31.1,52.8l15.5-13.1L96.4,73.5z"/>
	<path class="st6" d="M89.9,66.3c-0.7-1-2.1-1.2-3.1-0.4l1.3,1.8L89.9,66.3z"/>
	<path class="st6" d="M86.3,69.1c-0.7-1-0.5-2.4,0.5-3.2l1.3,1.8L86.3,69.1z"/>
	<path class="st6" d="M86.3,69.1l3.6-2.8l4.5,6.2l-3.6,2.8L86.3,69.1z"/>
	<path class="st9" d="M93.5,86.6l3.5-13.3l-11.5-3.2l-3.4,13.3L93.5,86.6z"/>
	<path class="st6" d="M78,68.1c-1.2-0.3-2.3,0.1-2.6,1.1l2.2,0.6L78,68.1z"/>
	<path class="st6" d="M77.1,71.5c-1.2-0.3-2-1.3-1.7-2.3l2.2,0.6L77.1,71.5z"/>
	<path class="st6" d="M77.1,71.5l0.9-3.3l7.4,2l-0.9,3.3L77.1,71.5z"/>
	<path class="st6" d="M74.2,70.6c-1.4-0.4-2.8,0-3,0.9l2.6,0.7L74.2,70.6z"/>
	<path class="st6" d="M73.3,74c-1.4-0.4-2.4-1.5-2.2-2.4l2.6,0.7L73.3,74z"/>
	<path class="st6" d="M73.3,74l0.9-3.3l10.4,2.9l-0.9,3.3L73.3,74z"/>
	<path class="st6" d="M75.8,74.7c-1.3-0.3-2.5,0.1-2.7,1l2.3,0.6L75.8,74.7z"/>
	<path class="st6" d="M75,78c-1.3-0.3-2.1-1.4-1.8-2.3l2.3,0.6L75,78z"/>
	<path class="st6" d="M75,78l0.9-3.3l7.8,2.2l-0.9,3.3L75,78z"/>
	<path class="st6" d="M76.6,78.4c-1-0.3-2,0.2-2.2,1.2l1.8,0.5L76.6,78.4z"/>
	<path class="st6" d="M75.7,81.7c-1-0.3-1.6-1.2-1.4-2.2l1.8,0.5L75.7,81.7z"/>
	<path class="st6" d="M75.7,81.7l0.9-3.3l6.2,1.7l-0.9,3.3L75.7,81.7z"/>
	<path class="st7" d="M163.8,32.4c0.8-4.9,5.4-8.3,10.2-7.6l-1.5,9L163.8,32.4z"/>
	<path class="st6" d="M163.1,59.2c0.5-2.8,3.1-4.8,5.9-4.4l-0.8,5.2L163.1,59.2z"/>
	<path class="st5" d="M163.8,32.4c-0.8,4.9,2.4,9.6,7.2,10.3l1.5-9L163.8,32.4z"/>
	<path class="st7" d="M218,49.4c1.6-9.5-4.6-18.3-13.9-19.8l-2.8,17.2L218,49.4z"/>
	<path class="st5" d="M218,49.4c-1.6,9.5-10.3,16-19.5,14.5l2.8-17.2L218,49.4z"/>
	<path class="st7" d="M206.7,66.7c0.8-4.8-2.4-9.3-7-10l-1.4,8.7L206.7,66.7z"/>
	<path class="st26" d="M206.7,66.7c-0.8,4.8-5.2,8.1-9.9,7.4l1.4-8.7L206.7,66.7z"/>
	<path class="st6" d="M203,61.5c0.4-2.3-1.1-4.5-3.4-4.8l-0.7,4.2L203,61.5z"/>
	<path class="st4" d="M203,61.5c-0.4,2.2-2.5,3.8-4.7,3.4l0.7-4L203,61.5z"/>
	<path class="st7" d="M195,16.6c6.1,1,10.1,6.8,9.1,13l-11-1.7L195,16.6z"/>
	<path class="st5" d="M195,16.6c-6.1-1-11.9,3.3-12.9,9.5l11.1,1.7L195,16.6z"/>
	<path class="st7" d="M182.4,18.6c4,0.6,6.6,4.4,5.9,8.5l-7.2-1.1L182.4,18.6z"/>
	<path class="st7" d="M182.4,18.6c-4-0.6-7.8,2.1-8.5,6.2l7.3,1.1L182.4,18.6z"/>
	<path class="st7" d="M173.9,24.8l30.2,4.7l-2.9,17.9L171,42.7L173.9,24.8z"/>
	<path class="st6" d="M165.3,77.2l30.2,4.7l5.7-34.5L171,42.7L165.3,77.2z"/>
	<path class="st4" d="M189.4,81l6.1,1l5.7-34.5l-6.1-1L189.4,81z"/>
	<path class="st4" d="M173.4,78.5l22.1,3.5l-1.6,9.4l-22.1-3.5L173.4,78.5z"/>
	<path class="st6" d="M167.4,64.8l-5-0.8l0.8-4.8l5,0.8L167.4,64.8z"/>
	<path d="M181.7,53.3c-1.9-2.7-5.5-3.2-8.1-1.3l0.8,1.2c2-1.5,4.7-1,6.1,1L181.7,53.3z"/>
	<path class="st7" d="M192.2,46.1c-0.8,5.1,2.5,9.8,7.4,10.6l1.5-9.2L192.2,46.1z"/>
	<path class="st27" d="M181.9,79.8c-0.5,3-4.7,4.8-9.4,4.1l0.9-5.4L181.9,79.8z"/>
	<path class="st26" d="M170.2,66.4l3.3,0.5l-0.8,5l-3.3-0.5L170.2,66.4z"/>
	<path class="st26" d="M178.4,67.7c-0.5,2.8-3,4.7-5.7,4.3l0.8-5L178.4,67.7z"/>
	<path class="st5" d="M190.3,84.3c-21.8-5.7-43.1,4.6-47.6,23l39.4,10.3L190.3,84.3z"/>
	<path class="st26" d="M190.3,84.3c20.4,5.3,33.3,24.5,28.8,42.8l-36.9-9.6L190.3,84.3z"/>
	<path class="st26" d="M219,127.2l-76.4-19.9l-13,53c11.9,3.6,26.3,4.5,41.9,1.7l0,0.2C191.7,158.5,209.5,144.6,219,127.2z"/>
	<polygon class="st10" points="95.5,38.6 132.1,31.3 140,73.5 103.5,80.8 	"/>
	<polygon class="st11" points="111.2,35.5 73.8,42.9 81.8,85.2 119.2,77.7 	"/>
	<polygon class="st12" points="95.9,42.2 78.1,45.8 79.2,52 97.1,48.4 	"/>
	<polygon class="st13" points="98.1,52.6 80.3,56.1 79.9,54 97.7,50.4 	"/>
	<polygon class="st13" points="93,57.4 81,59.8 80.6,57.6 92.6,55.2 	"/>
	<path class="st14" d="M111.2,35.5l-37.4,7.5L63.6,32.1l37.4-7.5L111.2,35.5z"/>
	<polygon class="st12" points="111.2,35.5 132.1,31.3 140,73.5 119.2,77.7 	"/>
	<path class="st15" d="M111.2,35.5l20.8-4.2l5.6-14l-20.8,4.2L111.2,35.5z"/>
	<path class="st7" d="M214.2,101.6c-5.6-5.7-14.6-5.7-20.2,0.1l10.1,10.4L214.2,101.6z"/>
	<path class="st7" d="M214.2,101.6c5.4,5.6,5.3,14.8-0.3,20.6l-9.8-10.1L214.2,101.6z"/>
	<path class="st7" d="M194,101.7l19.9,20.5l-8.7,9l-19.9-20.5L194,101.7z"/>
	<path class="st6" d="M159.2,137.6l11.5,11.7l34.5-18.1l-19.9-20.5L159.2,137.6z"/>
	<path class="st6" d="M174.5,147.5c4.5-3.4,5.5-10,2.1-14.7l-8.2,6.2L174.5,147.5z"/>
	<path class="st9" d="M174.5,147.5c-4.4,3.3-10.7,2.3-14.1-2.4l8-6.1L174.5,147.5z"/>
	<path class="st6" d="M176.6,132.8l-16.1,12.3l-5.2-7.3l16.1-12.3L176.6,132.8z"/>
	<path class="st6" d="M136,76.3l-9.2,7.2l28.4,54.4l16.1-12.3L136,76.3z"/>
	<path class="st6" d="M137.4,67.2c0.1-1.2-0.8-2.3-2-2.4l-0.2,2.2L137.4,67.2z"/>
	<path class="st6" d="M132.9,66.7c0.1-1.2,1.2-2.1,2.4-2l-0.2,2.2L132.9,66.7z"/>
	<path class="st6" d="M132.9,66.7l4.5,0.4l-0.7,7.7l-4.5-0.4L132.9,66.7z"/>
	<path class="st9" d="M126.8,84.7l11.2-7.5l-6.5-10.3l-11.2,7.5L126.8,84.7z"/>
	<path class="st6" d="M127.3,60.3c-0.7-1.1-1.8-1.5-2.6-1l1.2,1.9L127.3,60.3z"/>
	<path class="st6" d="M124.5,62.2c-0.7-1.1-0.6-2.3,0.2-2.9l1.2,1.9L124.5,62.2z"/>
	<path class="st6" d="M124.5,62.2l2.8-1.9l4.2,6.6l-2.8,1.9L124.5,62.2z"/>
	<path class="st6" d="M122.9,59.6c-0.8-1.3-2.1-1.9-2.9-1.4l1.5,2.3L122.9,59.6z"/>
	<path class="st6" d="M120.1,61.5c-0.8-1.3-0.8-2.7-0.1-3.2l1.5,2.3L120.1,61.5z"/>
	<path class="st6" d="M120,61.4l2.8-1.9l5.9,9.3l-2.8,1.9L120,61.4z"/>
	<path class="st6" d="M121.5,63.7c-0.7-1.1-1.9-1.6-2.7-1.1l1.3,2L121.5,63.7z"/>
	<path class="st6" d="M118.7,65.6c-0.7-1.1-0.7-2.5,0.1-3l1.3,2L118.7,65.6z"/>
	<path class="st6" d="M118.7,65.6l2.8-1.9l4.4,7l-2.8,1.9L118.7,65.6z"/>
	<path class="st6" d="M119.6,67c-0.6-0.9-1.6-1.2-2.4-0.7l1,1.6L119.6,67z"/>
	<path class="st6" d="M116.8,68.9c-0.6-0.9-0.4-2,0.4-2.6l1,1.6L116.8,68.9z"/>
	<path class="st6" d="M116.8,68.9l2.8-1.9l3.5,5.6l-2.8,1.9L116.8,68.9z"/>
</g>
</svg>
