<?xml version="1.0" encoding="utf-8"?>
<!-- Generator: Adobe Illustrator 22.1.0, SVG Export Plug-In . SVG Version: 6.00 Build 0)  -->
<svg version="1.1" id="Layer_1" xmlns="http://www.w3.org/2000/svg" xmlns:xlink="http://www.w3.org/1999/xlink" x="0px" y="0px"
	 viewBox="0 0 240 180" style="enable-background:new 0 0 240 180;" xml:space="preserve">
<style type="text/css">
	.st0{fill:#E0486C;}
	.st1{fill:#EE8069;}
	.st2{fill:#F3B757;}
	.st3{fill:#FFD0DD;}
	.st4{fill:#E9A639;}
	.st5{fill:#00538D;}
	.st6{fill:#FFB53D;}
	.st7{fill:#0068B0;}
	.st8{fill:#007BD0;}
	.st9{fill:#FFC059;}
	.st10{fill:#FEFEFE;}
	.st11{fill:#FF7097;}
	.st12{fill:#F4366A;}
	.st13{fill:#ED5881;}
	.st14{fill:#FF95B2;}
	.st15{fill:#FF628D;}
	.st16{fill:#FF7963;}
	.st17{fill:#FFD0DD;filter:url(#Adobe_OpacityMaskFilter);}
	.st18{mask:url(#mask0_1_);}
	.st19{fill:#005A99;}
	.st20{fill:#444444;}
	.st21{fill:#111111;}
	.st22{fill:#1C80C5;}
	.st23{fill:#D72253;}
	.st24{fill:#F5F5F5;}
	.st25{fill:#FFE9EF;}
	.st26{fill:#00497C;}
	.st27{fill:#C79037;}
	.st28{fill:#F9A61E;}
	.st29{fill:#FFCD7D;}
	.st30{fill:#D62757;}
	.st31{fill:#E5E5E5;filter:url(#Adobe_OpacityMaskFilter_1_);}
	.st32{mask:url(#mask0_3_);}
	.st33{fill:#E5E5E5;filter:url(#Adobe_OpacityMaskFilter_2_);}
	.st34{mask:url(#mask1_2_);}
	.st35{fill:#E5E5E5;filter:url(#Adobe_OpacityMaskFilter_3_);}
	.st36{mask:url(#mask0_4_);}
	.st37{fill:#E5E5E5;filter:url(#Adobe_OpacityMaskFilter_4_);}
	.st38{mask:url(#mask0_2_);}
	.st39{fill:#FFFFFF;}
	.st40{fill:none;stroke:#FFFFFF;stroke-width:2;stroke-miterlimit:10;stroke-dasharray:5,5;}
	.st41{fill:#EFEFEF;}
	.st42{fill:#C4C4C4;}
</style>
<g>
	<path class="st3" d="M143,39.1c22.6-20,55.8-22.2,74.2-4.9l-40.9,36.2L143,39.1z"/>
	<path class="st3" d="M143.5,38.8c-31.3,27.7-41.5,64.5-22.8,82.2l56.7-50.2L143.5,38.8z"/>
	<path class="st3" d="M209.7,101.3c-31.3,27.7-71.2,36.6-89,19.7l56.7-50.2L209.7,101.3z"/>
	<path class="st3" d="M209.4,101.8c22.6-20,26.1-50.3,7.7-67.6l-40.9,36.2L209.4,101.8z"/>
	<path class="st3" d="M119.8,10.1c-31.6,4.3-58.5,31.3-60.1,60.4l57.1-7.7L119.8,10.1z"/>
	<path class="st3" d="M119.3,10.3c43.7-5.9,77.8,13.4,76.2,43.1l-79.2,10.7L119.3,10.3z"/>
	<path class="st3" d="M113.4,115.2c43.7-5.9,80.5-33.6,82-61.8l-79.2,10.7L113.4,115.2z"/>
	<path class="st3" d="M113.9,115.4c-31.6,4.3-55.8-15.8-54.2-44.9l57.1-7.7L113.9,115.4z"/>
	<path class="st3" d="M83.3,160c-39.5-7.6-71.9-46.8-72.2-87.4l71.5,13.8L83.3,160z"/>
	<path class="st3" d="M82.6,159.7c54.7,10.6,98.8-14.5,98.4-56.1L81.9,84.5L82.6,159.7z"/>
	<path class="st3" d="M81.2,13.1c54.7,10.6,99.4,51.1,99.8,90.6L81.9,84.5L81.2,13.1z"/>
	<path class="st3" d="M81.9,12.8C42.4,5.2,10.7,32,11.1,72.6l71.5,13.8L81.9,12.8z"/>
	<defs>
		<filter id="Adobe_OpacityMaskFilter" filterUnits="userSpaceOnUse" x="56.9" y="34.5" width="137" height="136.2">
			<feColorMatrix  type="matrix" values="1 0 0 0 0  0 1 0 0 0  0 0 1 0 0  0 0 0 1 0"/>
		</filter>
	</defs>
	<mask maskUnits="userSpaceOnUse" x="56.9" y="34.5" width="137" height="136.2" id="mask0_1_">
		<path class="st17" d="M143,39.1c22.6-20,55.8-22.2,74.2-4.9l-40.9,36.2L143,39.1z"/>
		<path class="st3" d="M143.5,38.8c-31.3,27.7-41.5,64.5-22.8,82.2l56.7-50.2L143.5,38.8z"/>
		<path class="st3" d="M209.7,101.3c-31.3,27.7-71.2,36.6-89,19.7l56.7-50.2L209.7,101.3z"/>
		<path class="st3" d="M209.4,101.8c22.6-20,26.1-50.3,7.7-67.6l-40.9,36.2L209.4,101.8z"/>
		<path class="st3" d="M119.8,10.1c-31.6,4.3-58.5,31.3-60.1,60.4l57.1-7.7L119.8,10.1z"/>
		<path class="st3" d="M119.3,10.3c43.7-5.9,77.8,13.4,76.2,43.1l-79.2,10.7L119.3,10.3z"/>
		<path class="st3" d="M113.4,115.2c43.7-5.9,80.5-33.6,82-61.8l-79.2,10.7L113.4,115.2z"/>
		<path class="st3" d="M113.9,115.4c-31.6,4.3-55.8-15.8-54.2-44.9l57.1-7.7L113.9,115.4z"/>
		<path class="st3" d="M83.3,160c-39.5-7.6-71.9-46.8-72.2-87.4l71.5,13.8L83.3,160z"/>
		<path class="st3" d="M82.6,159.7c54.7,10.6,98.8-14.5,98.4-56.1L81.9,84.5L82.6,159.7z"/>
		<path class="st3" d="M81.2,13.1c54.7,10.6,99.4,51.1,99.8,90.6L81.9,84.5L81.2,13.1z"/>
		<path class="st3" d="M81.9,12.8C42.4,5.2,10.7,32,11.1,72.6l71.5,13.8L81.9,12.8z"/>
	</mask>
	<g class="st18">
		<rect x="136.3" y="68.1" class="st19" width="57.6" height="33.2"/>
		<rect x="136.3" y="101.3" class="st19" width="57.6" height="6.9"/>
		<rect x="136.3" y="108.2" class="st20" width="10.8" height="62.6"/>
		<rect x="147.1" y="108.2" class="st21" width="2.8" height="62.6"/>
		<rect x="63.1" y="101.3" class="st22" width="73.2" height="6.9"/>
		<rect x="111" y="68.1" class="st23" width="25.3" height="33.2"/>
		<rect x="85.7" y="68.1" class="st12" width="25.3" height="33.2"/>
		<rect x="111" y="40.2" class="st19" width="57.6" height="27.9"/>
		<rect x="147.1" y="34.5" class="st6" width="5.6" height="33.6"/>
		<path class="st7" d="M193.9,68.1c0-15.4-11.3-27.9-25.3-27.9v27.9H193.9z"/>
		<path class="st22" d="M56.9,108.2c0-3.8,2.8-6.9,6.2-6.9v6.9H56.9z"/>
		<path class="st23" d="M136.4,68.3c0-15.5-11.4-28-25.5-28v28H136.4z"/>
		<path class="st12" d="M85.7,68.3c0-15.5,11.4-28,25.5-28v28H85.7z"/>
		<rect x="152.6" y="34.5" class="st16" width="12.1" height="11.8"/>
		<polygon class="st24" points="66.2,41.8 121.2,49.5 116.8,88.1 61.7,80.4 		"/>
		<polygon class="st10" points="70.8,47.2 125.8,54.9 121.4,93.5 66.3,85.8 		"/>
		<polygon class="st16" points="76.3,56.6 85.2,57.9 84.4,65.1 75.5,63.8 		"/>
		<polygon class="st12" points="75.4,69.2 119.3,75.4 119.1,77 75.2,70.9 		"/>
		<polygon class="st12" points="74.7,74.2 118.6,80.3 118.4,82 74.6,75.8 		"/>
	</g>
</g>
</svg>
