<?xml version="1.0" encoding="utf-8"?>
<!-- Generator: Adobe Illustrator 22.1.0, SVG Export Plug-In . SVG Version: 6.00 Build 0)  -->
<svg version="1.1" id="Layer_1" xmlns="http://www.w3.org/2000/svg" xmlns:xlink="http://www.w3.org/1999/xlink" x="0px" y="0px"
	 viewBox="0 0 240 180" style="enable-background:new 0 0 240 180;" xml:space="preserve">
<style type="text/css">
	.st0{fill:#E0486C;}
	.st1{fill:#EE8069;}
	.st2{fill:#F3B757;}
	.st3{fill:#FFD0DD;}
	.st4{fill:#E9A639;}
	.st5{fill:#00538D;}
	.st6{fill:#FFB53D;}
	.st7{fill:#0068B0;}
	.st8{fill:#007BD0;}
	.st9{fill:#FFC059;}
	.st10{fill:#FEFEFE;}
	.st11{fill:#FF7097;}
	.st12{fill:#F4366A;}
	.st13{fill:#ED5881;}
	.st14{fill:#FF95B2;}
	.st15{fill:#FF628D;}
	.st16{fill:#FF7963;}
	.st17{fill:#FFD0DD;filter:url(#Adobe_OpacityMaskFilter);}
	.st18{mask:url(#mask0_1_);}
	.st19{fill:#005A99;}
	.st20{fill:#444444;}
	.st21{fill:#111111;}
	.st22{fill:#1C80C5;}
	.st23{fill:#D72253;}
	.st24{fill:#F5F5F5;}
	.st25{fill:#FFE9EF;}
	.st26{fill:#00497C;}
	.st27{fill:#C79037;}
	.st28{fill:#F9A61E;}
	.st29{fill:#FFCD7D;}
	.st30{fill:#D62757;}
	.st31{fill:#E5E5E5;filter:url(#Adobe_OpacityMaskFilter_1_);}
	.st32{mask:url(#mask0_3_);}
	.st33{fill:#E5E5E5;filter:url(#Adobe_OpacityMaskFilter_2_);}
	.st34{mask:url(#mask1_2_);}
	.st35{fill:#E5E5E5;filter:url(#Adobe_OpacityMaskFilter_3_);}
	.st36{mask:url(#mask0_4_);}
	.st37{fill:#E5E5E5;filter:url(#Adobe_OpacityMaskFilter_4_);}
	.st38{mask:url(#mask0_2_);}
	.st39{fill:#FFFFFF;}
	.st40{fill:none;stroke:#FFFFFF;stroke-width:2;stroke-miterlimit:10;stroke-dasharray:5,5;}
	.st41{fill:#EFEFEF;}
	.st42{fill:#C4C4C4;}
</style>
<g>
	<path class="st3" d="M173.4,36.3c-4.4,0.8-8.6,1.9-12.8,3.2c-5.7-2.8-11.9-4.8-18.4-5.7l0,0.1c-26.6-3.4-48.8,4.3-57.8,18.2
		c-22.2-1.5-44,8.8-53,26.7c-11.3,22.3,0.9,47.4,27.9,56.8l0.7,0.3c16.4,5.6,33.1,7.4,47.6,5.8c14.6,11.9,37.9,17.2,64.5,12.3
		c32.5-6.1,59.3-37.4,59.6-70c0.3-32.6-24.5-54-57-47.9L173.4,36.3z"/>
	<defs>
		<filter id="Adobe_OpacityMaskFilter" filterUnits="userSpaceOnUse" x="7.4" y="66.6" width="224.2" height="94.1">
			<feColorMatrix  type="matrix" values="1 0 0 0 0  0 1 0 0 0  0 0 1 0 0  0 0 0 1 0"/>
		</filter>
	</defs>
	<mask maskUnits="userSpaceOnUse" x="7.4" y="66.6" width="224.2" height="94.1" id="mask0_2_">
		<path style="fill:#E5E5E5;filter:url(#Adobe_OpacityMaskFilter);" d="M173.4,36.3c-4.4,0.8-8.6,1.9-12.8,3.2
			c-5.7-2.8-11.9-4.8-18.4-5.7l0,0.1c-26.6-3.4-48.8,4.3-57.8,18.2c-22.2-1.5-44,8.8-53,26.7c-11.3,22.3,0.9,47.4,27.9,56.8l0.7,0.3
			c16.4,5.6,33.1,7.4,47.6,5.8c14.6,11.9,37.9,17.2,64.5,12.3c32.5-6.1,59.3-37.4,59.6-70c0.3-32.6-24.5-54-57-47.9L173.4,36.3z"/>
	</mask>
	<g class="st38">
		<path class="st7" d="M193.3,100.8c0-12-8.9-21.7-20-21.7v21.7H193.3z"/>
		<path class="st7" d="M147.9,107.6c0-12-8.9-21.7-20-21.7v21.7H147.9z"/>
		<path class="st7" d="M108.3,107.6c0-12,8.9-21.7,20-21.7v21.7H108.3z"/>
		<path class="st7" d="M206.8,88.6c-6.3,0-11.4,5.3-11.4,11.9h11.4V88.6z"/>
		<path class="st7" d="M217.6,100.8c0-6.8-5-12.3-11.1-12.3v12.3H217.6z"/>
		<path class="st7" d="M220.5,94.4c-6.3,0-11.4,5.3-11.4,11.9h11.4V94.4z"/>
		<path class="st7" d="M231.3,106.6c0-6.8-5-12.3-11.1-12.3v12.3H231.3z"/>
		<path class="st7" d="M200.2,99.6c0-6.8-5-12.3-11.1-12.3v12.3H200.2z"/>
		<path class="st5" d="M173.4,79.1c-11.2,0-20.3,9.7-20.3,21.7h20.3V79.1z"/>
		<path class="st5" d="M47.4,85.8c-11.2,0-20.3,9.7-20.3,21.7h20.3V85.8z"/>
		<path class="st7" d="M80.8,97.8c0-12-8.9-21.7-20-21.7v21.7H80.8z"/>
		<path class="st7" d="M60.8,76c-11.2,0-20.3,9.7-20.3,21.7h20.3V76z"/>
		<path class="st7" d="M41.7,102.7c-11.2,0-20.3,9.6-20.3,21.4h20.3V102.7z"/>
		<path class="st7" d="M21.4,124.1c0,12,9.1,21.7,20.3,21.7v-21.7H21.4z"/>
		<rect x="67.7" y="100.5" class="st7" width="163.9" height="58.2"/>
		<path class="st8" d="M84.3,128.4c6.5,0,11.7-5.5,11.7-12.3H84.3V128.4z"/>
		<path class="st8" d="M84.6,103.6c-6.5,0-11.7,5.5-11.7,12.3h11.7V103.6z"/>
		<path class="st8" d="M96,116.1c0-6.9-5.2-12.6-11.7-12.6v12.6H96z"/>
		<path class="st5" d="M138.5,121.3c6.5,0,11.7-5.5,11.7-12.3h-11.7V121.3z"/>
		<path class="st5" d="M127.1,108.8c0,6.9,5.1,12.6,11.4,12.6v-12.6H127.1z"/>
		<path class="st5" d="M138.8,96.5c-6.5,0-11.7,5.5-11.7,12.3h11.7V96.5z"/>
		<path class="st5" d="M150.2,109.1c0-6.9-5.2-12.6-11.7-12.6v12.6H150.2z"/>
		<path class="st5" d="M154.8,113.1c6.5,0,11.7-5.5,11.7-12.3h-11.7V113.1z"/>
		<path class="st5" d="M143.4,100.5c0,6.9,5.1,12.6,11.4,12.6v-12.6H143.4z"/>
		<path class="st5" d="M155.1,88.3c-6.5,0-11.7,5.5-11.7,12.3h11.7V88.3z"/>
		<path class="st5" d="M166.5,100.8c0-6.9-5.2-12.6-11.7-12.6v12.6H166.5z"/>
		<path class="st5" d="M148.5,132.4c6.5,0,11.7-5.5,11.7-12.3h-11.7V132.4z"/>
		<path class="st5" d="M137.1,119.8c0,6.9,5.1,12.6,11.4,12.6v-12.6H137.1z"/>
		<path class="st5" d="M148.8,107.6c-6.5,0-11.7,5.5-11.7,12.3h11.7V107.6z"/>
		<path class="st5" d="M160.2,120.1c0-6.9-5.2-12.6-11.7-12.6v12.6H160.2z"/>
		<path class="st5" d="M134,143.1c9.3,0,16.8-7.8,16.8-17.5H134V143.1z"/>
		<path class="st5" d="M117.7,125c0,10,7.3,18.1,16.3,18.1V125H117.7z"/>
		<path class="st5" d="M134.5,107.6c-9.3,0-16.8,7.8-16.8,17.5h16.8V107.6z"/>
		<path class="st5" d="M150.8,125.6c0-10-7.5-18.1-16.8-18.1v18.1H150.8z"/>
		<path class="st5" d="M152.2,148.9c9.3,0,16.8-7.8,16.8-17.5h-16.8V148.9z"/>
		<path class="st5" d="M136,130.8c0,10,7.3,18.1,16.3,18.1v-18.1H136z"/>
		<path class="st5" d="M152.8,113.4c-9.3,0-16.8,7.8-16.8,17.5h16.8V113.4z"/>
		<path class="st5" d="M169.1,131.4c0-10-7.5-18.1-16.8-18.1v18.1H169.1z"/>
		<path class="st5" d="M164.5,138.2c9.3,0,16.8-7.8,16.8-17.5h-16.8V138.2z"/>
		<path class="st5" d="M148.2,120.1c0,10,7.3,18.1,16.3,18.1v-18.1H148.2z"/>
		<path class="st5" d="M165.1,102.7c-9.3,0-16.8,7.8-16.8,17.5h16.8V102.7z"/>
		<path class="st5" d="M181.4,120.7c0-10-7.5-18.1-16.8-18.1v18.1H181.4z"/>
		<path class="st8" d="M159.4,132.4c6.5,0,11.7-5.5,11.7-12.3h-11.7V132.4z"/>
		<path class="st8" d="M147.9,119.8c0,6.9,5.1,12.6,11.4,12.6v-12.6H147.9z"/>
		<path class="st8" d="M159.7,107.6c-6.5,0-11.7,5.5-11.7,12.3h11.7V107.6z"/>
		<path class="st8" d="M171.1,120.1c0-6.9-5.2-12.6-11.7-12.6v12.6H171.1z"/>
		<path class="st8" d="M172.8,119.8c6.5,0,11.7-5.5,11.7-12.3h-11.7V119.8z"/>
		<path class="st8" d="M161.4,107.3c0,6.9,5.1,12.6,11.4,12.6v-12.6H161.4z"/>
		<path class="st8" d="M173.1,95c-6.5,0-11.7,5.5-11.7,12.3h11.7V95z"/>
		<path class="st8" d="M184.5,107.6c0-6.9-5.2-12.6-11.7-12.6v12.6H184.5z"/>
		<path class="st8" d="M185.9,114.6c6.5,0,11.7-5.5,11.7-12.3h-11.7V114.6z"/>
		<path class="st8" d="M174.5,102c0,6.9,5.1,12.6,11.4,12.6V102H174.5z"/>
		<path class="st8" d="M186.2,89.8c-6.5,0-11.7,5.5-11.7,12.3h11.7V89.8z"/>
		<path class="st8" d="M197.6,102.4c0-6.9-5.2-12.6-11.7-12.6v12.6H197.6z"/>
		<path class="st8" d="M195.9,129.6c6.5,0,11.7-5.5,11.7-12.3h-11.7V129.6z"/>
		<path class="st8" d="M184.5,117.1c0,6.9,5.1,12.6,11.4,12.6v-12.6H184.5z"/>
		<path class="st8" d="M196.2,104.8c-6.5,0-11.7,5.5-11.7,12.3h11.7V104.8z"/>
		<path class="st8" d="M207.6,117.4c0-6.9-5.2-12.6-11.7-12.6v12.6H207.6z"/>
		<path class="st8" d="M179.6,136.3c6.5,0,11.7-5.5,11.7-12.3h-11.7V136.3z"/>
		<path class="st39" d="M168.2,123.8c0,6.9,5.1,12.6,11.4,12.6v-12.6H168.2z"/>
		<path class="st8" d="M179.9,111.5c-6.5,0-11.7,5.5-11.7,12.3h11.7V111.5z"/>
		<path class="st8" d="M191.3,124.1c0-6.9-5.2-12.6-11.7-12.6v12.6H191.3z"/>
		<rect x="40.6" y="97.8" class="st7" width="41.4" height="40.7"/>
		<path class="st8" d="M70.8,93.2c-6.5,0-11.7,5.5-11.7,12.3h11.7V93.2z"/>
		<path class="st8" d="M82.3,105.7c0-6.9-5.1-12.6-11.4-12.6v12.6H82.3z"/>
		<path class="st8" d="M59.1,105.4c0,6.9,5.2,12.6,11.7,12.6v-12.6H59.1z"/>
		<path class="st8" d="M82.6,105.7c6.5,0,11.7-5.5,11.7-12.3H82.6V105.7z"/>
		<path class="st8" d="M71.1,93.2c0,6.9,5.1,12.6,11.4,12.6V93.2H71.1z"/>
		<path class="st39" d="M82.8,80.9c-6.5,0-11.7,5.5-11.7,12.3h11.7V80.9z"/>
		<path class="st8" d="M94.3,93.5c0-6.9-5.2-12.6-11.7-12.6v12.6H94.3z"/>
		<path class="st8" d="M94.3,111.8c6.5,0,11.7-5.5,11.7-12.3H94.3V111.8z"/>
		<path class="st8" d="M82.8,99.3c0,6.9,5.1,12.6,11.4,12.6V99.3H82.8z"/>
		<path class="st8" d="M94.5,87c-6.5,0-11.7,5.5-11.7,12.3h11.7V87z"/>
		<path class="st8" d="M106,99.6c0-6.9-5.2-12.6-11.7-12.6v12.6H106z"/>
		<path class="st8" d="M106,124.1c6.5,0,11.7-5.5,11.7-12.3H106V124.1z"/>
		<path class="st8" d="M94.5,111.5c0,6.9,5.1,12.6,11.4,12.6v-12.6H94.5z"/>
		<path class="st8" d="M106.3,99.3c-6.5,0-11.7,5.5-11.7,12.3h11.7V99.3z"/>
		<path class="st8" d="M117.7,111.8c0-6.9-5.2-12.6-11.7-12.6v12.6H117.7z"/>
		<rect x="70.8" y="105.7" class="st8" width="11.1" height="12.3"/>
		<path class="st8" d="M72.8,115.8c0,6.9,5.1,12.6,11.4,12.6v-12.6H72.8z"/>
		<path class="st40" d="M106.1,160.6c0.6-9.8,0.6-19.7,0.1-29.5c-0.5-9.4-6.6-18.3-15.9-19c-2.4-0.2-5.2,1.2-5.8,3.7
			c-0.5,1.9,0.2,4,1.4,5.5c8.9,10.7,20.6,6.6,28.2-3.4c6.9-9,11.1-21,8.7-32.7c-0.8-3.8-2.3-9.4,2-11.5c3.2-1.6,7,1.4,8.8,4
			c4,6,8.7,16.7,16.5,7.8c2-2.3,3.1-5.2,4.2-8.1c1.2-3.4,2.4-7.3,4.5-10.2"/>
		<path class="st40" d="M8.3,109.8c6.2-10,21.5-9.4,30.5-5.3c10.7,4.8,19.3,14.9,24.1,26c1.3,3,2.2,6.1,3,9.2"/>
	</g>
	<g>
		<path class="st41" d="M145.2,75.8l-10.1-22.2l72.7-34.2L145.2,75.8z"/>
		<path class="st42" d="M206.9,20.1l-61.7,55.7l8.2-15L206.9,20.1z"/>
		<path class="st39" d="M207.8,19.4l-54.4,41.4l20.7,9.8L207.8,19.4z"/>
		<path class="st39" d="M135.1,53.6l-19.4-6.6l92.1-27.7L135.1,53.6z"/>
	</g>
</g>
</svg>
