<?xml version="1.0" encoding="utf-8"?>
<!-- Generator: Adobe Illustrator 22.1.0, SVG Export Plug-In . SVG Version: 6.00 Build 0)  -->
<svg version="1.1" id="Layer_1" xmlns="http://www.w3.org/2000/svg" xmlns:xlink="http://www.w3.org/1999/xlink" x="0px" y="0px"
	 viewBox="0 0 228 48" style="enable-background:new 0 0 228 48;" xml:space="preserve">
<style type="text/css">
	.st0{fill:#E0486C;}
	.st1{fill:#EE8069;}
	.st2{fill:#F3B757;}
	.st3{fill:#FFD0DD;}
	.st4{fill:#E9A639;}
	.st5{fill:#00538D;}
	.st6{fill:#FFB53D;}
	.st7{fill:#0068B0;}
	.st8{fill:#007BD0;}
	.st9{fill:#FFC059;}
	.st10{fill:#FEFEFE;}
	.st11{fill:#FF7097;}
	.st12{fill:#F4366A;}
	.st13{fill:#ED5881;}
	.st14{fill:#FF95B2;}
	.st15{fill:#FF628D;}
	.st16{fill:#FF7963;}
	.st17{fill:#FFD0DD;filter:url(#Adobe_OpacityMaskFilter);}
	.st18{mask:url(#mask0_1_);}
	.st19{fill:#005A99;}
	.st20{fill:#444444;}
	.st21{fill:#111111;}
	.st22{fill:#1C80C5;}
	.st23{fill:#D72253;}
	.st24{fill:#F5F5F5;}
	.st25{fill:#FFE9EF;}
	.st26{fill:#00497C;}
	.st27{fill:#C79037;}
	.st28{fill:#F9A61E;}
	.st29{fill:#FFCD7D;}
	.st30{fill:#D62757;}
	.st31{fill:#E5E5E5;filter:url(#Adobe_OpacityMaskFilter_1_);}
	.st32{mask:url(#mask0_3_);}
	.st33{fill:#E5E5E5;filter:url(#Adobe_OpacityMaskFilter_2_);}
	.st34{mask:url(#mask1_2_);}
	.st35{fill:#E5E5E5;filter:url(#Adobe_OpacityMaskFilter_3_);}
	.st36{mask:url(#mask0_4_);}
	.st37{fill:#E5E5E5;filter:url(#Adobe_OpacityMaskFilter_4_);}
	.st38{mask:url(#mask0_2_);}
	.st39{fill:#FFFFFF;}
	.st40{fill:none;stroke:#FFFFFF;stroke-width:2;stroke-miterlimit:10;stroke-dasharray:5,5;}
	.st41{fill:#EFEFEF;}
	.st42{fill:#C4C4C4;}
</style>
<g>
	<path class="st0" d="M135.5,16.3c0-2.4-1.9-4.4-4.3-4.4h-17.3c0,2.4,1.9,4.4,4.3,4.4h4.7v19c0,2.4,1.9,4.4,4.3,4.4c0,0,0,0,0.1,0
		v-4.4v-19H135.5z"/>
	<path class="st0" d="M90.1,21.5V12c0-1.2,1.1-2.2,2.4-2.2c1.3,0,2.4,1,2.4,2.2v19.5c0,5.5-3.8,8.3-9.1,8.3c-5.9,0-9.4-3.2-9.4-9.9
		c0-6.8,3.4-9.9,8.9-9.9C87.3,19.8,89.2,20.7,90.1,21.5z M90.1,25.7c0,0-1.7-2.1-4.3-2.1c-3,0-4.7,2.1-4.7,6.2c0,4,1.7,6.1,4.7,6.1
		c2.5,0,4.3-1.6,4.3-4.5V25.7z"/>
	<path class="st0" d="M141.2,19.8c6.8,0,8.1,5.4,8.1,8.2c0,1.5,0,3.3-2.5,3.3h-9.9c0,3,2.1,4.4,4.7,4.4c1.8,0,3-0.6,4-1.3
		c0.4-0.3,0.8-0.4,1.3-0.4c1.1,0,1.9,0.9,1.9,2c0,0.7-0.3,1.2-0.7,1.5c-0.7,0.7-2.8,2.3-6.5,2.3c-5.6,0-9.1-3.1-9.1-10
		C132.5,23.4,135.7,19.8,141.2,19.8z M136.9,27.6h8c0-2-1.1-4-3.7-4C138.8,23.6,137.1,25,136.9,27.6z"/>
	<path class="st0" d="M180.5,27.2v10.3c0,1.2-1,2.2-2.2,2.2c-1.3,0-2.2-0.9-2.2-2.2V28c0-2.4-0.9-4-3.5-4c-2.9,0-4,1.6-4,3.9v9.5
		c0,1.2-1,2.2-2.2,2.2c-1.3,0-2.2-0.9-2.2-2.2V28c0-2.4-0.9-4-3.5-4c-3,0-4,1.8-4,4.3v9.2c0,1.2-0.9,2.2-2.2,2.2
		c-1.2,0-2.2-0.9-2.2-2.2V22.5c0-1.2,1-2.2,2.2-2.2c1.2,0,2.2,1,2.2,2.2c0.8-1.2,2.5-2.5,5.1-2.5c3.3,0,5,1.1,6,2.7
		c1.3-1.8,3-2.7,5.8-2.7C179,20.1,180.5,23.6,180.5,27.2z"/>
	<path class="st0" d="M222,27.2v10.3c0,1.2-1,2.2-2.2,2.2c-1.3,0-2.2-0.9-2.2-2.2V28c0-2.4-0.9-4-3.5-4c-3,0-4,1.8-4,4.3v9.2
		c0,1.2-0.9,2.2-2.2,2.2s-2.2-0.9-2.2-2.2V22.5c0-1.2,1-2.2,2.2-2.2s2.2,1,2.2,2.2c0.8-1.2,2.5-2.5,5.1-2.5
		C220.7,20.1,222,23.6,222,27.2z"/>
	<path class="st0" d="M73.3,29.8c0,0,0-0.1,0-0.1v0c0,0,0-0.1,0-0.1s0,0,0-0.1c0-0.1,0-0.2,0-0.2c0,0,0,0,0-0.1c0-0.1,0-0.2,0-0.3v0
		c0-0.1,0-0.2,0-0.2c0,0,0,0,0-0.1c0-0.1,0-0.2,0-0.2c0,0,0,0,0-0.1c0-0.1,0-0.2,0-0.3c0,0,0,0,0-0.1c0-0.1,0-0.2,0-0.2
		c0,0,0,0,0-0.1c0-0.1,0-0.2-0.1-0.3c0,0,0,0,0,0c0-0.1,0-0.2-0.1-0.3c0,0,0,0,0-0.1c0-0.1,0-0.2-0.1-0.2c0,0,0,0,0-0.1
		c-0.1-0.2-0.2-0.4-0.2-0.6c0,0,0,0,0-0.1c0-0.1-0.1-0.2-0.1-0.2c0,0,0,0,0,0c0-0.1-0.1-0.2-0.1-0.3c0,0,0,0,0,0
		c0-0.1-0.1-0.2-0.1-0.2c0,0,0,0,0,0c0-0.1-0.1-0.2-0.2-0.2c0-0.1-0.1-0.2-0.2-0.3c0,0,0,0,0,0c0-0.1-0.1-0.2-0.2-0.2c0,0,0,0,0,0
		c-0.1-0.2-0.2-0.3-0.4-0.5c0,0,0,0,0,0c0-0.1-0.1-0.2-0.2-0.2c0,0,0,0,0,0c-0.1-0.2-0.3-0.3-0.4-0.5c0,0,0,0,0,0
		c-0.2-0.2-0.4-0.4-0.7-0.6c-0.2-0.1-0.3-0.3-0.5-0.4c-0.1-0.1-0.2-0.1-0.2-0.2c-0.2-0.1-0.4-0.2-0.5-0.4c-0.1,0-0.2-0.1-0.3-0.2
		c-1.4-0.8-3-1.2-4.7-1.2c-5.3,0-9.7,4.4-9.7,9.9s4.3,9.9,9.7,9.9c2.1,0,4.1-0.7,5.7-1.9c0.9,1.2,2.3,1.9,3.9,1.9c0,0,0,0,0.1,0
		v-9.7C73.3,29.9,73.3,29.8,73.3,29.8z M63.4,35.4c-2.9,0-5.2-2.4-5.2-5.4c0-3,2.3-5.4,5.2-5.4c2.9,0,5.2,2.4,5.2,5.4
		C68.7,33,66.4,35.4,63.4,35.4z"/>
	<path class="st0" d="M117.4,29.8c0,0,0-0.1,0-0.1v0c0,0,0-0.1,0-0.1s0,0,0-0.1c0-0.1,0-0.2,0-0.2c0,0,0,0,0-0.1c0-0.1,0-0.2,0-0.3
		v0c0-0.1,0-0.2,0-0.2c0,0,0,0,0-0.1c0-0.1,0-0.2,0-0.2c0,0,0,0,0-0.1c0-0.1,0-0.2,0-0.3c0,0,0,0,0-0.1c0-0.1,0-0.2,0-0.2
		c0,0,0,0,0-0.1c0-0.1,0-0.2-0.1-0.3c0,0,0,0,0,0c0-0.1,0-0.2-0.1-0.3c0,0,0,0,0-0.1c0-0.1,0-0.2-0.1-0.2c0,0,0,0,0-0.1
		c-0.1-0.2-0.2-0.4-0.2-0.6c0,0,0,0,0-0.1c0-0.1-0.1-0.2-0.1-0.2c0,0,0,0,0,0c0-0.1-0.1-0.2-0.1-0.3c0,0,0,0,0,0
		c0-0.1-0.1-0.2-0.1-0.2c0,0,0,0,0,0c0-0.1-0.1-0.2-0.2-0.2c0-0.1-0.1-0.2-0.2-0.3c0,0,0,0,0,0c0-0.1-0.1-0.2-0.2-0.2c0,0,0,0,0,0
		c-0.1-0.2-0.2-0.3-0.4-0.5c0,0,0,0,0,0c0-0.1-0.1-0.2-0.2-0.2c0,0,0,0,0,0c-0.1-0.2-0.3-0.3-0.4-0.5c0,0,0,0,0,0
		c-0.2-0.2-0.4-0.4-0.7-0.6c-0.2-0.1-0.3-0.3-0.5-0.4c-0.1-0.1-0.2-0.1-0.2-0.2c-0.2-0.1-0.4-0.2-0.5-0.4c-0.1,0-0.2-0.1-0.3-0.2
		c-1.4-0.8-3-1.2-4.7-1.2c-5.3,0-9.7,4.4-9.7,9.9s4.3,9.9,9.7,9.9c2.1,0,4.1-0.7,5.7-1.9c0.9,1.2,2.3,1.9,3.9,1.9c0,0,0,0,0.1,0
		v-9.7C117.4,29.9,117.4,29.8,117.4,29.8z M107.9,35.4c-2.9,0-5.3-2.4-5.3-5.4s2.4-5.4,5.3-5.4c2.9,0,5.3,2.4,5.3,5.4
		C113.2,33,110.8,35.4,107.9,35.4z"/>
	<path class="st0" d="M202.5,29.8c0,0,0-0.1,0-0.1v0c0,0,0-0.1,0-0.1s0,0,0-0.1c0-0.1,0-0.2,0-0.2c0,0,0,0,0-0.1c0-0.1,0-0.2,0-0.3
		v0c0-0.1,0-0.2,0-0.2c0,0,0,0,0-0.1c0-0.1,0-0.2,0-0.2c0,0,0,0,0-0.1c0-0.1,0-0.2,0-0.3c0,0,0,0,0-0.1c0-0.1,0-0.2,0-0.2
		c0,0,0,0,0-0.1c0-0.1,0-0.2-0.1-0.3c0,0,0,0,0,0c0-0.1,0-0.2-0.1-0.3c0,0,0,0,0-0.1c0-0.1,0-0.2-0.1-0.2c0,0,0,0,0-0.1
		c-0.1-0.2-0.2-0.4-0.2-0.6c0,0,0,0,0-0.1c0-0.1-0.1-0.2-0.1-0.2c0,0,0,0,0,0c0-0.1-0.1-0.2-0.1-0.3c0,0,0,0,0,0
		c0-0.1-0.1-0.2-0.1-0.2c0,0,0,0,0,0c0-0.1-0.1-0.2-0.2-0.2c0-0.1-0.1-0.2-0.2-0.3c0,0,0,0,0,0c0-0.1-0.1-0.2-0.2-0.2c0,0,0,0,0,0
		c-0.1-0.2-0.2-0.3-0.4-0.5c0,0,0,0,0,0c0-0.1-0.1-0.2-0.2-0.2c0,0,0,0,0,0c-0.1-0.2-0.3-0.3-0.4-0.5c0,0,0,0,0,0
		c-0.2-0.2-0.4-0.4-0.7-0.6c-0.2-0.1-0.3-0.3-0.5-0.4c-0.1-0.1-0.2-0.1-0.2-0.2c-0.2-0.1-0.4-0.2-0.5-0.4c-0.1,0-0.2-0.1-0.3-0.2
		c-1.4-0.8-3-1.2-4.7-1.2c-5.3,0-9.7,4.4-9.7,9.9s4.3,9.9,9.7,9.9c2.1,0,4.1-0.7,5.7-1.9c0.9,1.2,2.3,1.9,3.9,1.9c0,0,0,0,0.1,0
		v-9.7C202.5,29.9,202.5,29.8,202.5,29.8z M192.6,35.4c-2.9,0-5.2-2.4-5.2-5.4c0-3,2.3-5.4,5.2-5.4s5.2,2.4,5.2,5.4
		C197.9,33,195.5,35.4,192.6,35.4z"/>
	<path class="st1" d="M37.7,42.7v-15c0-0.1,0-0.1,0-0.2c0-5.7-3.3-10.7-8.2-13.3V35c0,0.1,0,0.2,0,0.3c0,0,0,0,0,0
		c0.2,4.1,3.7,7.4,8.1,7.4C37.6,42.8,37.7,42.7,37.7,42.7z"/>
	<path class="st2" d="M28.4,35.4L28.4,35.4L28.4,35.4c0-0.2,0-0.3,0-0.4v-0.3V14.3h-4.8c-2.3,0-4.5-0.9-6.2-2.4
		C10.8,13.8,6,19.8,6,27c0,8.7,7.1,15.7,15.9,15.7c3.1,0,5.9-0.9,8.4-2.4C29.1,38.9,28.5,37.2,28.4,35.4z M15.6,25.9
		c-1.6,0-2.9-1.3-2.9-2.9c0-1.6,1.3-2.9,2.9-2.9s2.9,1.3,2.9,2.9C18.5,24.6,17.2,25.9,15.6,25.9z"/>
	<path class="st0" d="M40,5.2H15.6c0,4.4,3.6,7.9,8,7.9h5.9c0.2,0,0.4,0,0.5,0.1c2.6,1.4,4.8,3.4,6.4,5.9c0.5,0.8,1,1.7,1.3,2.6
		v-8.6H48C48,8.8,44.4,5.2,40,5.2z"/>
</g>
</svg>
