<?xml version="1.0" encoding="utf-8"?>
<!-- Generator: Adobe Illustrator 22.1.0, SVG Export Plug-In . SVG Version: 6.00 Build 0)  -->
<svg version="1.1" id="Layer_1" xmlns="http://www.w3.org/2000/svg" xmlns:xlink="http://www.w3.org/1999/xlink" x="0px" y="0px"
	 viewBox="0 0 240 180" style="enable-background:new 0 0 240 180;" xml:space="preserve">
<style type="text/css">
	.st0{fill:#E0486C;}
	.st1{fill:#EE8069;}
	.st2{fill:#F3B757;}
	.st3{fill:#FFD0DD;}
	.st4{fill:#E9A639;}
	.st5{fill:#00538D;}
	.st6{fill:#FFB53D;}
	.st7{fill:#0068B0;}
	.st8{fill:#007BD0;}
	.st9{fill:#FFC059;}
	.st10{fill:#FEFEFE;}
	.st11{fill:#FF7097;}
	.st12{fill:#F4366A;}
	.st13{fill:#ED5881;}
	.st14{fill:#FF95B2;}
	.st15{fill:#FF628D;}
	.st16{fill:#FF7963;}
	.st17{fill:#FFD0DD;filter:url(#Adobe_OpacityMaskFilter);}
	.st18{mask:url(#mask0_1_);}
	.st19{fill:#005A99;}
	.st20{fill:#444444;}
	.st21{fill:#111111;}
	.st22{fill:#1C80C5;}
	.st23{fill:#D72253;}
	.st24{fill:#F5F5F5;}
	.st25{fill:#FFE9EF;}
	.st26{fill:#00497C;}
	.st27{fill:#C79037;}
	.st28{fill:#F9A61E;}
	.st29{fill:#FFCD7D;}
	.st30{fill:#D62757;}
	.st31{fill:#E5E5E5;filter:url(#Adobe_OpacityMaskFilter_1_);}
	.st32{mask:url(#mask0_3_);}
	.st33{fill:#E5E5E5;filter:url(#Adobe_OpacityMaskFilter_2_);}
	.st34{mask:url(#mask1_2_);}
	.st35{fill:#E5E5E5;filter:url(#Adobe_OpacityMaskFilter_3_);}
	.st36{mask:url(#mask0_4_);}
	.st37{fill:#E5E5E5;filter:url(#Adobe_OpacityMaskFilter_4_);}
	.st38{mask:url(#mask0_2_);}
	.st39{fill:#FFFFFF;}
	.st40{fill:none;stroke:#FFFFFF;stroke-width:2;stroke-miterlimit:10;stroke-dasharray:5,5;}
	.st41{fill:#EFEFEF;}
	.st42{fill:#C4C4C4;}
</style>
<g>
	<path class="st3" d="M165.1,48.8c-4.5,0.8-8.9,1.8-13.1,3c-5.9-2.7-12.2-4.6-18.9-5.4l0,0.1c-27.3-3.2-50,4.1-59.4,17.4
		c-22.8-1.4-45.2,8.4-54.4,25.6c-11.6,21.4,1.5,45.9,29.3,54.9l0.1-0.2c16.8,5.4,33.9,7.1,48.8,5.5c15,11.4,39.1,16.3,66.4,11.7
		l0,0.2c33.4-5.9,60.7-35.9,61-67.2c0.3-31.2-26.4-51.8-59.8-45.9L165.1,48.8z"/>
	<rect x="75" y="90" transform="matrix(0.3259 -0.9454 0.9454 0.3259 -41.6403 154.9293)" class="st6" width="25.6" height="33.4"/>
	<path class="st6" d="M99.9,109c7.3,1.1,14.2-3.9,15.3-11.2l-13.3-2L99.9,109z"/>
	<path class="st9" d="M74.1,105.1c-7.3-1.1-12.4-8-11.2-15.3l13.3,2L74.1,105.1z"/>
	<path class="st9" d="M118.7,50.6c-3.2-0.9-6.4,1-7.3,4.2l5.8,1.5L118.7,50.6z"/>
	<path class="st6" d="M118.7,50.6c3.2,0.9,5.1,4.1,4.2,7.3l-5.8-1.5L118.7,50.6z"/>
	
		<rect x="99.2" y="64.1" transform="matrix(0.2591 -0.9659 0.9659 0.2591 16.4097 161.5022)" class="st6" width="28.5" height="11.9"/>
	
		<rect x="96.9" y="69.5" transform="matrix(0.2591 -0.9659 0.9659 0.2591 11.8497 157.8102)" class="st28" width="23.9" height="3.4"/>
	<path class="st9" d="M73.1,26.4c-4.1,0.1-7.3,3.5-7.2,7.5l7.3-0.2L73.1,26.4z"/>
	<path class="st6" d="M73,26.4c4.1-0.1,7.4,3.1,7.5,7.2l-7.3,0.2L73,26.4z"/>
	
		<rect x="66.2" y="33.7" transform="matrix(0.9998 -2.191449e-02 2.191449e-02 0.9998 -1.0794 1.6234)" class="st6" width="14.6" height="32.8"/>
	<path class="st6" d="M105,29.3c-4-0.3-7.6,2.7-7.9,6.7l7.3,0.6L105,29.3z"/>
	<path class="st9" d="M105,29.3c4,0.3,7.1,3.9,6.7,7.9l-7.3-0.6L105,29.3z"/>
	
		<rect x="85.6" y="46.6" transform="matrix(8.209773e-02 -0.9966 0.9966 8.209773e-02 40.7772 152.0833)" class="st9" width="34.7" height="14.6"/>
	
		<rect x="82.1" y="54.6" transform="matrix(8.209773e-02 -0.9966 0.9966 8.209773e-02 33.0707 147.9411)" class="st28" width="29.5" height="2.8"/>
	<path class="st9" d="M88.9,16.8c-4.1-0.1-7.4,3.2-7.4,7.3l7.4,0.1L88.9,16.8z"/>
	<path class="st6" d="M88.9,16.8c4.1,0.1,7.3,3.4,7.3,7.5l-7.4-0.1L88.9,16.8z"/>
	
		<rect x="66.5" y="38.8" transform="matrix(1.327946e-02 -0.9999 0.9999 1.327946e-02 41.1959 133.9723)" class="st6" width="44" height="14.6"/>
	
		<rect x="63.2" y="47.3" transform="matrix(1.327946e-02 -0.9999 0.9999 1.327946e-02 32.7537 130.5733)" class="st28" width="38.7" height="2.8"/>
	
		<rect x="77.5" y="53.8" transform="matrix(0.1515 -0.9885 0.9885 0.1515 -2.2062 158.1969)" class="st9" width="27" height="53.1"/>
	
		<rect x="81.3" y="87.3" transform="matrix(0.1515 -0.9885 0.9885 0.1515 -24.5279 172.1158)" class="st9" width="13.4" height="26"/>
	<path class="st9" d="M50.1,52.2c-5.1,2.4-7.2,8.5-4.8,13.6l9.2-4.4L50.1,52.2z"/>
	<path class="st6" d="M50,52.3c5.1-2.4,11.1-0.2,13.6,4.8l-9.2,4.4L50,52.3z"/>
	<path class="st6" d="M68.5,67.6c8.3-3.9,18.2-0.4,22.2,7.9l-15,7.1L68.5,67.6z"/>
	<path class="st6" d="M81.9,100c9.2-4.4,13.1-15.4,8.8-24.6L74,83.4L81.9,100z"/>
	<path class="st6" d="M81.9,100c-9.2,4.4-20.2,0.4-24.6-8.8L74,83.4L81.9,100z"/>
	
		<rect x="50.3" y="60.1" transform="matrix(0.9034 -0.4288 0.4288 0.9034 -25.983 33.0753)" class="st6" width="20.2" height="28.3"/>
	
		<rect x="51.8" y="66.9" transform="matrix(0.9034 -0.4288 0.4288 0.9034 -28.8629 30.5811)" class="st29" width="3.2" height="25"/>
	
		<rect x="77.2" y="104.2" transform="matrix(0.3259 -0.9454 0.9454 0.3259 -61.0686 159.9818)" class="st5" width="8.9" height="37.2"/>
	<path class="st7" d="M90.5,150.3l6.1-17.6l-32.6-11.3l-8.5,24.8C67.4,149.3,79.4,150.6,90.5,150.3z"/>
	
		<rect x="142.9" y="93.9" transform="matrix(0.9454 -0.3259 0.3259 0.9454 -26.0477 57.8408)" class="st6" width="33.4" height="25.6"/>
	<path class="st9" d="M147.6,109c-7.3,1.1-14.2-3.9-15.3-11.2l13.3-2L147.6,109z"/>
	<path class="st6" d="M173.4,105.1c7.3-1.1,12.4-8,11.2-15.3l-13.3,2L173.4,105.1z"/>
	<path class="st9" d="M128.7,50.6c3.2-0.9,6.4,1,7.3,4.2l-5.8,1.5L128.7,50.6z"/>
	<path class="st6" d="M128.7,50.6c-3.2,0.9-5.1,4.1-4.2,7.3l5.8-1.5L128.7,50.6z"/>
	
		<rect x="128" y="55.8" transform="matrix(0.9659 -0.2591 0.2591 0.9659 -13.5759 37.0986)" class="st6" width="11.9" height="28.5"/>
	
		<rect x="137" y="59.2" transform="matrix(0.9659 -0.2591 0.2591 0.9659 -13.7076 38.3514)" class="st28" width="3.4" height="23.9"/>
	<path class="st9" d="M174.4,26.4c4.1,0.1,7.3,3.5,7.2,7.5l-7.3-0.2L174.4,26.4z"/>
	<path class="st6" d="M174.4,26.4c-4.1-0.1-7.4,3.1-7.5,7.2l7.3,0.2L174.4,26.4z"/>
	
		<rect x="157.5" y="42.7" transform="matrix(2.191449e-02 -0.9998 0.9998 2.191449e-02 120.0428 222.8231)" class="st6" width="32.8" height="14.6"/>
	<path class="st6" d="M142.4,29.3c4-0.3,7.6,2.7,7.9,6.7l-7.3,0.6L142.4,29.3z"/>
	<path class="st9" d="M142.5,29.3c-4,0.3-7.1,3.9-6.7,7.9l7.3-0.6L142.5,29.3z"/>
	
		<rect x="137.2" y="36.6" transform="matrix(0.9966 -8.209773e-02 8.209773e-02 0.9966 -3.9377 12.0436)" class="st6" width="14.6" height="34.7"/>
	
		<rect x="149.2" y="41.3" transform="matrix(0.9966 -8.209773e-02 8.209773e-02 0.9966 -4.0906 12.5517)" class="st28" width="2.8" height="29.5"/>
	<path class="st9" d="M158.5,16.8c4.1-0.1,7.4,3.2,7.4,7.3l-7.4,0.1L158.5,16.8z"/>
	<path class="st6" d="M158.6,16.8c-4.1,0.1-7.3,3.4-7.3,7.5l7.4-0.1L158.6,16.8z"/>
	
		<rect x="151.6" y="24.1" transform="matrix(0.9999 -1.327946e-02 1.327946e-02 0.9999 -0.5983 2.1149)" class="st6" width="14.6" height="44"/>
	
		<rect x="163.5" y="29.3" transform="matrix(0.9999 -1.327946e-02 1.327946e-02 0.9999 -0.632 2.194)" class="st28" width="2.8" height="38.7"/>
	
		<rect x="129.8" y="66.9" transform="matrix(0.9885 -0.1515 0.1515 0.9885 -10.3736 24.6229)" class="st6" width="53.1" height="27"/>
	
		<rect x="146.4" y="93.6" transform="matrix(0.9885 -0.1515 0.1515 0.9885 -13.3627 25.3159)" class="st6" width="26" height="13.4"/>
	<path class="st6" d="M197.4,52.2c5.1,2.4,7.2,8.5,4.8,13.6l-9.2-4.4L197.4,52.2z"/>
	<path class="st9" d="M197.4,52.3c-5.1-2.4-11.1-0.2-13.6,4.8l9.2,4.4L197.4,52.3z"/>
	<path class="st6" d="M178.9,67.6c-8.3-3.9-18.2-0.4-22.2,7.9l15,7.1L178.9,67.6z"/>
	<path class="st6" d="M165.6,100c-9.2-4.4-13.1-15.4-8.8-24.6l16.7,7.9L165.6,100z"/>
	<path class="st6" d="M165.6,100c9.2,4.4,20.2,0.4,24.6-8.8l-16.7-7.9L165.6,100z"/>
	
		<rect x="172.9" y="64.1" transform="matrix(0.4288 -0.9034 0.9034 0.4288 39.7845 211.3387)" class="st6" width="28.3" height="20.2"/>
	
		<rect x="181.5" y="77.7" transform="matrix(0.4288 -0.9034 0.9034 0.4288 39.1207 220.5795)" class="st28" width="25" height="3.2"/>
	
		<rect x="147.2" y="118.3" transform="matrix(0.9454 -0.3259 0.3259 0.9454 -30.9741 60.7334)" class="st30" width="37.2" height="8.9"/>
	<path class="st12" d="M161,161.9c1-0.1,1.9-0.3,2.9-0.5l0,0.2c10.6-1.9,20.6-6.2,29.3-12.2l-9.6-28l-32.6,11.3L161,161.9z"/>
</g>
</svg>
