<?xml version="1.0" encoding="utf-8"?>
<!-- Generator: Adobe Illustrator 22.1.0, SVG Export Plug-In . SVG Version: 6.00 Build 0)  -->
<svg version="1.1" id="Layer_1" xmlns="http://www.w3.org/2000/svg" xmlns:xlink="http://www.w3.org/1999/xlink" x="0px" y="0px"
	 viewBox="0 0 240 180" style="enable-background:new 0 0 240 180;" xml:space="preserve">
<style type="text/css">
	.st0{fill:#E0486C;}
	.st1{fill:#EE8069;}
	.st2{fill:#F3B757;}
	.st3{fill:#FFD0DD;}
	.st4{fill:#E9A639;}
	.st5{fill:#00538D;}
	.st6{fill:#FFB53D;}
	.st7{fill:#0068B0;}
	.st8{fill:#007BD0;}
	.st9{fill:#FFC059;}
	.st10{fill:#FEFEFE;}
	.st11{fill:#FF7097;}
	.st12{fill:#F4366A;}
	.st13{fill:#ED5881;}
	.st14{fill:#FF95B2;}
	.st15{fill:#FF628D;}
	.st16{fill:#FF7963;}
	.st17{fill:#FFD0DD;filter:url(#Adobe_OpacityMaskFilter);}
	.st18{mask:url(#mask0_1_);}
	.st19{fill:#005A99;}
	.st20{fill:#444444;}
	.st21{fill:#111111;}
	.st22{fill:#1C80C5;}
	.st23{fill:#D72253;}
	.st24{fill:#F5F5F5;}
	.st25{fill:#FFE9EF;}
	.st26{fill:#00497C;}
	.st27{fill:#C79037;}
	.st28{fill:#F9A61E;}
	.st29{fill:#FFCD7D;}
	.st30{fill:#D62757;}
	.st31{fill:#E5E5E5;filter:url(#Adobe_OpacityMaskFilter_1_);}
	.st32{mask:url(#mask0_3_);}
	.st33{fill:#E5E5E5;filter:url(#Adobe_OpacityMaskFilter_2_);}
	.st34{mask:url(#mask1_2_);}
	.st35{fill:#E5E5E5;filter:url(#Adobe_OpacityMaskFilter_3_);}
	.st36{mask:url(#mask0_4_);}
	.st37{fill:#E5E5E5;filter:url(#Adobe_OpacityMaskFilter_4_);}
	.st38{mask:url(#mask0_2_);}
	.st39{fill:#FFFFFF;}
	.st40{fill:none;stroke:#FFFFFF;stroke-width:2;stroke-miterlimit:10;stroke-dasharray:5,5;}
	.st41{fill:#EFEFEF;}
	.st42{fill:#C4C4C4;}
</style>
<g>
	<path class="st3" d="M167.7,54.9c-4.4,0.8-8.8,1.9-13.1,3.1c-5.8-2.8-12.2-4.7-18.7-5.6l0,0.1c-27.1-3.3-49.7,4.2-59,17.8
		C54.4,68.9,32.2,79,22.9,96.6c-11.5,21.8,0.9,46.5,28.4,55.6l0.8,0.3c16.7,5.5,33.7,7.2,48.5,5.6c14.9,11.7,38.6,16.8,65.8,12.1
		c33.1-6,60.5-36.7,60.8-68.6c0.3-31.9-24.9-52.9-58.1-46.9L167.7,54.9z"/>
	<defs>
		<filter id="Adobe_OpacityMaskFilter" filterUnits="userSpaceOnUse" x="12.8" y="93.8" width="214.2" height="81">
			<feColorMatrix  type="matrix" values="1 0 0 0 0  0 1 0 0 0  0 0 1 0 0  0 0 0 1 0"/>
		</filter>
	</defs>
	<mask maskUnits="userSpaceOnUse" x="12.8" y="93.8" width="214.2" height="81" id="mask0_4_">
		<path style="fill:#E5E5E5;filter:url(#Adobe_OpacityMaskFilter);" d="M167.7,54.9c-4.4,0.8-8.8,1.9-13.1,3.1
			c-5.8-2.8-12.2-4.7-18.7-5.6l0,0.1c-27.1-3.3-49.7,4.2-59,17.8C54.4,68.9,32.2,79,22.9,96.6c-11.5,21.8,0.9,46.5,28.4,55.6
			l0.8,0.3c16.7,5.5,33.7,7.2,48.5,5.6c14.9,11.7,38.6,16.8,65.8,12.1c33.1-6,60.5-36.7,60.8-68.6c0.3-31.9-24.9-52.9-58.1-46.9
			L167.7,54.9z"/>
	</mask>
	<g class="st36">
		<path class="st7" d="M188.1,118.1c0-11.8-9.1-21.3-20.4-21.3v21.3H188.1z"/>
		<path class="st7" d="M141.8,124.7c0-11.8-9.1-21.3-20.4-21.3v21.3H141.8z"/>
		<path class="st7" d="M101.3,124.7c0-11.8,9.1-21.3,20.4-21.3v21.3H101.3z"/>
		<path class="st7" d="M201.7,106.1c-6.4,0-11.6,5.2-11.6,11.7h11.6V106.1z"/>
		<path class="st7" d="M212.8,118.1c0-6.6-5.1-12-11.4-12v12H212.8z"/>
		<path class="st7" d="M215.7,111.8c-6.4,0-11.6,5.2-11.6,11.7h11.6V111.8z"/>
		<path class="st7" d="M226.8,123.8c0-6.6-5.1-12-11.4-12v12H226.8z"/>
		<path class="st7" d="M195,116.9c0-6.6-5.1-12-11.4-12v12H195z"/>
		<path class="st5" d="M167.7,96.8c-11.4,0-20.7,9.5-20.7,21.3h20.7V96.8z"/>
		<path class="st5" d="M39.3,103.4c-11.4,0-20.7,9.5-20.7,21.3h20.7V103.4z"/>
		<path class="st7" d="M73.4,115.1c0-11.8-9.1-21.3-20.4-21.3v21.3H73.4z"/>
		<path class="st7" d="M53,93.8c-11.4,0-20.7,9.5-20.7,21.3H53V93.8z"/>
		<path class="st7" d="M33.5,119.9c-11.4,0-20.7,9.4-20.7,21h20.7V119.9z"/>
		<path class="st7" d="M12.8,140.9c0,11.8,9.3,21.3,20.7,21.3v-21.3H12.8z"/>
		<rect x="60" y="117.8" class="st7" width="167.1" height="57"/>
		<path class="st8" d="M76.9,145.1c6.6,0,11.9-5.4,11.9-12H76.9V145.1z"/>
		<path class="st8" d="M77.2,120.8c-6.6,0-11.9,5.4-11.9,12h11.9V120.8z"/>
		<path class="st8" d="M88.8,133.1c0-6.8-5.3-12.3-11.9-12.3v12.3H88.8z"/>
		<path class="st5" d="M132.2,138.2c6.6,0,11.9-5.4,11.9-12h-11.9V138.2z"/>
		<path class="st5" d="M120.5,125.9c0,6.8,5.2,12.3,11.6,12.3v-12.3H120.5z"/>
		<path class="st5" d="M132.5,113.9c-6.6,0-11.9,5.4-11.9,12h11.9V113.9z"/>
		<path class="st5" d="M144.1,126.2c0-6.8-5.3-12.3-11.9-12.3v12.3H144.1z"/>
		<path class="st5" d="M148.8,130.1c6.6,0,11.9-5.4,11.9-12h-11.9V130.1z"/>
		<path class="st5" d="M137.1,117.8c0,6.8,5.2,12.3,11.6,12.3v-12.3H137.1z"/>
		<path class="st5" d="M149.1,105.8c-6.6,0-11.9,5.4-11.9,12h11.9V105.8z"/>
		<path class="st5" d="M160.7,118.1c0-6.8-5.3-12.3-11.9-12.3v12.3H160.7z"/>
		<path class="st5" d="M142.4,149c6.6,0,11.9-5.4,11.9-12h-11.9V149z"/>
		<path class="st5" d="M130.7,136.7c0,6.8,5.2,12.3,11.6,12.3v-12.3H130.7z"/>
		<path class="st5" d="M142.7,124.7c-6.6,0-11.9,5.4-11.9,12h11.9V124.7z"/>
		<path class="st5" d="M154.3,137c0-6.8-5.3-12.3-11.9-12.3V137H154.3z"/>
		<path class="st5" d="M127.5,159.5c9.5,0,17.2-7.7,17.2-17.1h-17.2V159.5z"/>
		<path class="st5" d="M110.9,141.8c0,9.8,7.4,17.7,16.6,17.7v-17.7H110.9z"/>
		<path class="st5" d="M128.1,124.7c-9.5,0-17.2,7.7-17.2,17.1h17.2V124.7z"/>
		<path class="st5" d="M144.7,142.4c0-9.8-7.7-17.7-17.2-17.7v17.7H144.7z"/>
		<path class="st5" d="M146.1,165.2c9.5,0,17.2-7.7,17.2-17.1h-17.2V165.2z"/>
		<path class="st5" d="M129.6,147.5c0,9.8,7.4,17.7,16.6,17.7v-17.7H129.6z"/>
		<path class="st5" d="M146.7,130.4c-9.5,0-17.2,7.7-17.2,17.1h17.2V130.4z"/>
		<path class="st5" d="M163.3,148.1c0-9.8-7.7-17.7-17.2-17.7v17.7H163.3z"/>
		<path class="st5" d="M158.7,154.7c9.5,0,17.2-7.7,17.2-17.1h-17.2V154.7z"/>
		<path class="st5" d="M142.1,137c0,9.8,7.4,17.7,16.6,17.7V137H142.1z"/>
		<path class="st5" d="M159.2,119.9c-9.5,0-17.2,7.7-17.2,17.1h17.2V119.9z"/>
		<path class="st5" d="M175.8,137.6c0-9.8-7.7-17.7-17.2-17.7v17.7H175.8z"/>
		<path class="st8" d="M153.4,149c6.6,0,11.9-5.4,11.9-12h-11.9V149z"/>
		<path class="st8" d="M141.8,136.7c0,6.8,5.2,12.3,11.6,12.3v-12.3H141.8z"/>
		<path class="st8" d="M153.7,124.7c-6.6,0-11.9,5.4-11.9,12h11.9V124.7z"/>
		<path class="st8" d="M165.4,137c0-6.8-5.3-12.3-11.9-12.3V137H165.4z"/>
		<path class="st8" d="M167.1,136.7c6.6,0,11.9-5.4,11.9-12h-11.9V136.7z"/>
		<path class="st8" d="M155.5,124.4c0,6.8,5.2,12.3,11.6,12.3v-12.3H155.5z"/>
		<path class="st8" d="M167.4,112.4c-6.6,0-11.9,5.4-11.9,12h11.9V112.4z"/>
		<path class="st8" d="M179,124.7c0-6.8-5.3-12.3-11.9-12.3v12.3H179z"/>
		<path class="st8" d="M180.5,131.6c6.6,0,11.9-5.4,11.9-12h-11.9V131.6z"/>
		<path class="st8" d="M168.8,119.3c0,6.8,5.2,12.3,11.6,12.3v-12.3H168.8z"/>
		<path class="st8" d="M180.8,107.3c-6.6,0-11.9,5.4-11.9,12h11.9V107.3z"/>
		<path class="st8" d="M192.4,119.6c0-6.8-5.3-12.3-11.9-12.3v12.3H192.4z"/>
		<path class="st8" d="M190.7,146.3c6.6,0,11.9-5.4,11.9-12h-11.9V146.3z"/>
		<path class="st8" d="M179,134c0,6.8,5.2,12.3,11.6,12.3V134H179z"/>
		<path class="st8" d="M191,122c-6.6,0-11.9,5.4-11.9,12H191V122z"/>
		<path class="st8" d="M202.6,134.3c0-6.8-5.3-12.3-11.9-12.3v12.3H202.6z"/>
		<path class="st8" d="M174.1,152.9c6.6,0,11.9-5.4,11.9-12h-11.9V152.9z"/>
		<path class="st8" d="M162.4,140.6c0,6.8,5.2,12.3,11.6,12.3v-12.3H162.4z"/>
		<path class="st8" d="M174.4,128.6c-6.6,0-11.9,5.4-11.9,12h11.9V128.6z"/>
		<path class="st8" d="M186,140.9c0-6.8-5.3-12.3-11.9-12.3v12.3H186z"/>
		<rect x="32.3" y="115.1" class="st7" width="42.2" height="39.9"/>
		<path class="st8" d="M74.8,122.9c0-6.8-5.2-12.3-11.6-12.3v12.3H74.8z"/>
		<path class="st8" d="M75.1,122.9c6.6,0,11.9-5.4,11.9-12H75.1V122.9z"/>
		<path class="st8" d="M63.5,110.6c0,6.8,5.2,12.3,11.6,12.3v-12.3H63.5z"/>
		<path class="st8" d="M75.4,98.6c-6.6,0-11.9,5.4-11.9,12h11.9V98.6z"/>
		<path class="st8" d="M87.1,110.9c0-6.8-5.3-12.3-11.9-12.3v12.3H87.1z"/>
		<path class="st8" d="M87.1,128.9c6.6,0,11.9-5.4,11.9-12H87.1V128.9z"/>
		<path class="st8" d="M75.4,116.6c0,6.8,5.2,12.3,11.6,12.3v-12.3H75.4z"/>
		<path class="st8" d="M87.4,104.6c-6.6,0-11.9,5.4-11.9,12h11.9V104.6z"/>
		<path class="st8" d="M99,116.9c0-6.8-5.3-12.3-11.9-12.3v12.3H99z"/>
		<path class="st8" d="M99,140.9c6.6,0,11.9-5.4,11.9-12H99V140.9z"/>
		<path class="st8" d="M87.4,128.6c0,6.8,5.2,12.3,11.6,12.3v-12.3H87.4z"/>
		<path class="st8" d="M99.3,116.6c-6.6,0-11.9,5.4-11.9,12h11.9V116.6z"/>
		<path class="st8" d="M110.9,128.9c0-6.8-5.3-12.3-11.9-12.3v12.3H110.9z"/>
	</g>
	<rect x="72.2" y="51.4" class="st10" width="64.9" height="75.1"/>
	<rect x="109.1" y="51.4" class="st11" width="66.3" height="75.1"/>
	<rect x="137.5" y="57.7" class="st12" width="31.6" height="11"/>
	<rect x="137" y="72.4" class="st13" width="31.6" height="3.8"/>
	<rect x="147.4" y="78.9" class="st13" width="21.1" height="3.8"/>
	<path class="st14" d="M109.1,51.4h66.3l14.1-22.1h-66.3L109.1,51.4z"/>
	<rect x="72.2" y="51.4" class="st12" width="36.9" height="75.1"/>
	<path class="st15" d="M109.1,51.4H72.2L58.1,29.3H95L109.1,51.4z"/>
	<path d="M146.1,61c-0.6,0.7-0.7,1.8,0.1,2.3c4.8,3.8,11.5,3.8,16.3,0c0.7-0.6,0.7-1.7,0.1-2.3l0,0c-0.6-0.7-1.7-0.7-2.4-0.1
		c-3.4,2.5-8.1,2.5-11.6,0C147.7,60.4,146.7,60.4,146.1,61L146.1,61z"/>
	<path d="M113.9,61c-0.6,0.7-0.7,1.8,0.1,2.3c4.8,3.8,11.5,3.8,16.3,0c0.7-0.6,0.7-1.7,0.1-2.3l0,0c-0.6-0.7-1.7-0.7-2.4-0.1
		c-3.4,2.5-8.1,2.5-11.6,0C115.6,60.4,114.5,60.4,113.9,61L113.9,61z"/>
	<ellipse cx="131.4" cy="89.7" rx="3.7" ry="3.9"/>
	<path class="st7" d="M55.8,49.3H45.7v-2.2l5.6-8.1h-5.5v-2.9h9.8v2.2l-5.6,8.1h5.8V49.3z"/>
	<path class="st5" d="M79.9,24.4H65.2v-3.2l8.2-11.9h-8V5.2h14.4v3.2l-8.2,11.9h8.4V24.4z"/>
	<path class="st7" d="M186.1,71.3h-5.1v-1.1l2.8-4.1h-2.8v-1.4h4.9v1.1l-2.8,4.1h2.9V71.3z"/>
	<path class="st5" d="M198.1,59h-7.3v-1.6l4-5.9h-4v-2.1h7.1V51l-4,5.9h4.2V59z"/>
	<path class="st8" d="M46.9,141.7c8.8,0,16-7.2,16-16.1h-16V141.7z"/>
	<path class="st8" d="M31.3,125.2c0,9.1,7,16.5,15.6,16.5v-16.5H31.3z"/>
	<path class="st8" d="M47.3,109.1c-8.8,0-16,7.2-16,16.1h16V109.1z"/>
	<path class="st8" d="M62.9,125.6c0-9.1-7.2-16.5-16-16.5v16.5H62.9z"/>
	<path class="st8" d="M65.2,125.2c8.8,0,16-7.2,16-16.1h-16V125.2z"/>
	<path class="st8" d="M49.6,108.7c0,9.1,7,16.5,15.6,16.5v-16.5H49.6z"/>
	<path class="st8" d="M65.6,92.6c-8.8,0-16,7.2-16,16.1h16V92.6z"/>
	<path class="st8" d="M81.3,109.1c0-9.1-7.2-16.5-16-16.5v16.5H81.3z"/>
	<path class="st8" d="M83.2,118.3c8.8,0,16-7.2,16-16.1h-16V118.3z"/>
	<path class="st8" d="M67.6,101.8c0,9.1,7,16.5,15.6,16.5v-16.5H67.6z"/>
	<path class="st8" d="M83.6,85.7c-8.8,0-16,7.2-16,16.1h16V85.7z"/>
	<path class="st8" d="M99.2,102.2c0-9.1-7.2-16.5-16-16.5v16.5H99.2z"/>
	<path class="st8" d="M96.9,138.1c8.8,0,16-7.2,16-16.1h-16V138.1z"/>
	<path class="st8" d="M81.3,121.6c0,9.1,7,16.5,15.6,16.5v-16.5H81.3z"/>
	<path class="st8" d="M97.3,105.5c-8.8,0-16,7.2-16,16.1h16V105.5z"/>
	<path class="st8" d="M112.9,122c0-9.1-7.2-16.5-16-16.5V122H112.9z"/>
	<path class="st8" d="M74.6,146.9c8.8,0,16-7.2,16-16.1h-16V146.9z"/>
	<path class="st8" d="M59,130.4c0,9.1,7,16.5,15.6,16.5v-16.5H59z"/>
	<path class="st8" d="M75,114.3c-8.8,0-16,7.2-16,16.1h16V114.3z"/>
	<path class="st8" d="M90.6,130.8c0-9.1-7.2-16.5-16-16.5v16.5H90.6z"/>
	<path class="st8" d="M151.3,146.8c6.2,0,11.3-5.1,11.3-11.3h-11.3V146.8z"/>
	<path class="st8" d="M140.3,135.2c0,6.4,4.9,11.6,11,11.6v-11.6H140.3z"/>
	<path class="st8" d="M151.6,123.8c-6.2,0-11.3,5.1-11.3,11.3h11.3V123.8z"/>
	<path class="st8" d="M162.6,135.4c0-6.4-5-11.6-11.3-11.6v11.6H162.6z"/>
	<path class="st8" d="M164.3,135.2c6.2,0,11.3-5.1,11.3-11.3h-11.3V135.2z"/>
	<path class="st8" d="M153.2,123.5c0,6.4,4.9,11.6,11,11.6v-11.6H153.2z"/>
	<path class="st8" d="M164.5,112.2c-6.2,0-11.3,5.1-11.3,11.3h11.3V112.2z"/>
	<path class="st8" d="M175.5,123.8c0-6.4-5-11.6-11.3-11.6v11.6H175.5z"/>
	<path class="st8" d="M176.9,130.3c6.2,0,11.3-5.1,11.3-11.3h-11.3V130.3z"/>
	<path class="st8" d="M165.9,118.7c0,6.4,4.9,11.6,11,11.6v-11.6H165.9z"/>
	<path class="st8" d="M177.2,107.4c-6.2,0-11.3,5.1-11.3,11.3h11.3V107.4z"/>
	<path class="st8" d="M188.2,119c0-6.4-5-11.6-11.3-11.6V119H188.2z"/>
	<path class="st8" d="M186.5,144.2c6.2,0,11.3-5.1,11.3-11.3h-11.3V144.2z"/>
	<path class="st8" d="M175.5,132.6c0,6.4,4.9,11.6,11,11.6v-11.6H175.5z"/>
	<path class="st8" d="M186.8,121.3c-6.2,0-11.3,5.1-11.3,11.3h11.3V121.3z"/>
	<path class="st8" d="M197.8,132.9c0-6.4-5-11.6-11.3-11.6v11.6H197.8z"/>
	<path class="st8" d="M170.9,150.5c6.2,0,11.3-5.1,11.3-11.3h-11.3V150.5z"/>
	<path class="st8" d="M159.8,138.9c0,6.4,4.9,11.6,11,11.6v-11.6H159.8z"/>
	<path class="st8" d="M171.1,127.5c-6.2,0-11.3,5.1-11.3,11.3h11.3V127.5z"/>
	<path class="st8" d="M182.1,139.1c0-6.4-5-11.6-11.3-11.6v11.6H182.1z"/>
</g>
</svg>
