<?xml version="1.0" encoding="utf-8"?>
<!-- Generator: Adobe Illustrator 22.1.0, SVG Export Plug-In . SVG Version: 6.00 Build 0)  -->
<svg version="1.1" id="Layer_1" xmlns="http://www.w3.org/2000/svg" xmlns:xlink="http://www.w3.org/1999/xlink" x="0px" y="0px"
	 viewBox="0 0 280 190" style="enable-background:new 0 0 280 190;" xml:space="preserve">
<style type="text/css">
	.st0{fill:#E0486C;}
	.st1{fill:#EE8069;}
	.st2{fill:#F3B757;}
	.st3{fill:#FFD0DD;}
	.st4{fill:#E9A639;}
	.st5{fill:#00538D;}
	.st6{fill:#FFB53D;}
	.st7{fill:#0068B0;}
	.st8{fill:#007BD0;}
	.st9{fill:#FFC059;}
	.st10{fill:#FEFEFE;}
	.st11{fill:#FF7097;}
	.st12{fill:#F4366A;}
	.st13{fill:#ED5881;}
	.st14{fill:#FF95B2;}
	.st15{fill:#FF628D;}
	.st16{fill:#FF7963;}
	.st17{fill:#FFD0DD;filter:url(#Adobe_OpacityMaskFilter);}
	.st18{mask:url(#mask0_1_);}
	.st19{fill:#005A99;}
	.st20{fill:#444444;}
	.st21{fill:#111111;}
	.st22{fill:#1C80C5;}
	.st23{fill:#D72253;}
	.st24{fill:#F5F5F5;}
	.st25{fill:#FFE9EF;}
	.st26{fill:#00497C;}
	.st27{fill:#C79037;}
	.st28{fill:#F9A61E;}
	.st29{fill:#FFCD7D;}
	.st30{fill:#D62757;}
	.st31{fill:#E5E5E5;filter:url(#Adobe_OpacityMaskFilter_1_);}
	.st32{mask:url(#mask0_3_);}
	.st33{fill:#E5E5E5;filter:url(#Adobe_OpacityMaskFilter_2_);}
	.st34{mask:url(#mask1_2_);}
	.st35{fill:#E5E5E5;filter:url(#Adobe_OpacityMaskFilter_3_);}
	.st36{mask:url(#mask0_4_);}
	.st37{fill:#E5E5E5;filter:url(#Adobe_OpacityMaskFilter_4_);}
	.st38{mask:url(#mask0_2_);}
	.st39{fill:#FFFFFF;}
	.st40{fill:none;stroke:#FFFFFF;stroke-width:2;stroke-miterlimit:10;stroke-dasharray:5,5;}
	.st41{fill:#EFEFEF;}
	.st42{fill:#C4C4C4;}
</style>
<g>
	<path class="st3" d="M93.4,44.8c5.3,1,10.5,2.2,15.6,3.7c6.9-3.3,14.5-5.6,22.3-6.6l0,0.1c32.3-3.9,59.3,5,70.3,21.2
		c27-1.7,53.5,10.3,64.5,31.1c13.7,26-1.8,55.9-34.7,66.8l-0.1-0.2c-19.9,6.5-40.2,8.6-57.8,6.7c-17.7,13.9-46.3,19.9-78.6,14.2
		l0,0.2c-39.5-7.1-71.8-43.7-72.2-81.7c-0.4-38,31.3-63,70.8-55.9L93.4,44.8z"/>
	<path class="st4" d="M65.1,162.9c-4.3-5.4-3.5-13.3,1.7-17.7l7.7,9.7L65.1,162.9z"/>
	<path class="st4" d="M65.1,162.9c4.3,5.4,12,6.2,17.2,1.8l-7.7-9.7L65.1,162.9z"/>
	<polygon class="st4" points="100.1,117.3 115.5,136.7 82.3,164.7 66.8,145.2 	"/>
	<polygon class="st5" points="100.1,117.3 115.5,136.7 97.2,152.2 81.7,132.7 	"/>
	<path class="st5" d="M99.8,117.5c14-11.8,35.5-8.7,47.9,7l-25.4,21.3L99.8,117.5z"/>
	<path class="st6" d="M78.5,164.3c-3.9,3.5-9.9,3-13.3-1l7.2-6.3L78.5,164.3z"/>
	<path class="st6" d="M78.5,164.3c3.9-3.5,4.4-9.6,1-13.7l-7.2,6.3L78.5,164.3z"/>
	<polygon class="st6" points="39.9,132.9 54.2,120.3 79.5,150.7 65.2,163.3 	"/>
	<path class="st4" d="M214.8,164.3c4.3-5.4,3.5-13.3-1.7-17.7l-7.7,9.7L214.8,164.3z"/>
	<path class="st4" d="M214.8,164.3c-4.3,5.4-12,6.2-17.2,1.8l7.7-9.7L214.8,164.3z"/>
	<polygon class="st4" points="179.8,118.7 164.3,138.2 197.6,166.1 213,146.7 	"/>
	<polygon class="st5" points="179.8,118.7 164.3,138.2 182.7,153.6 198.1,134.2 	"/>
	<path class="st5" d="M180.1,118.9c-14-11.8-35.5-8.7-47.9,7l25.4,21.3L180.1,118.9z"/>
	<path class="st7" d="M184.7,144.6c0-18.6-16-33.7-35.6-33.7v33.7H184.7z"/>
	<path class="st7" d="M97.8,144.6c0-18.6,15.9-33.7,35.5-33.7v33.7H97.8z"/>
	<rect x="133.3" y="110.9" class="st7" width="15.8" height="33.7"/>
	<path class="st7" d="M97.8,182.3v-37.8h87.1v23.7c-4,0-7.8-0.3-11.6-0.7C156.1,181,128.9,187,97.8,182.3z"/>
	<rect x="97.8" y="144.6" class="st8" width="86.9" height="14"/>
	<path class="st6" d="M210.1,166.3c5.1-1.1,8.4-6.2,7.3-11.4l-9.2,2L210.1,166.3z"/>
	<path class="st6" d="M210.1,166.3c-5.1,1.1-10.1-2.3-11.1-7.5l9.2-2L210.1,166.3z"/>
	<polygon class="st6" points="209.6,115.6 191.1,119.6 199,158.8 217.4,154.9 	"/>
	<path class="st4" d="M202.1,126c5.1-1.1,8.4-6.2,7.3-11.4l-9.2,2L202.1,126z"/>
	<path class="st4" d="M202.1,126c-5.1,1.1-10.1-2.3-11.1-7.5l9.2-2L202.1,126z"/>
	<path class="st4" d="M139.9,129.5c8.4,0,15.3-7,15.3-15.7h-15.3V129.5z"/>
	<path class="st4" d="M139.9,129.5c-8.4,0-15.3-7-15.3-15.7h15.3V129.5z"/>
	<rect x="124.6" y="95.2" class="st4" width="30.5" height="18.7"/>
	<path class="st5" d="M169.2,32.4c0-14.5-11.5-26.3-25.6-26.3v26.3H169.2z"/>
	<path class="st7" d="M179.9,43.4c0-6-4.8-10.9-10.6-10.9v10.9H179.9z"/>
	<path class="st7" d="M99.9,18.9c0-7.1,5.6-12.8,12.4-12.8v12.8H99.9z"/>
	<path class="st5" d="M99.9,48.8c0,7.1,5.6,12.8,12.4,12.8V48.8H99.9z"/>
	<path class="st5" d="M143.6,6.1h-31.3v26.3h31.3V6.1z"/>
	<path class="st7" d="M112.3,18.9H99.9v29.9h12.4V18.9z"/>
	<path class="st5" d="M179.9,43.4h-10.6v18.3h10.6V43.4z"/>
	<path class="st5" d="M169.2,32.4h-56.9v29.2h56.9V32.4z"/>
	<path class="st6" d="M173.7,85.3c0,14.7-11.6,26.7-25.9,26.7V85.3H173.7z"/>
	<path class="st9" d="M106.1,85.3c0,14.7,11.6,26.7,25.9,26.7V85.3H106.1z"/>
	<rect x="132" y="85.3" class="st6" width="15.7" height="26.6"/>
	<path class="st9" d="M173.7,54.5c0-14.7-11.6-26.6-25.9-26.6v26.6H173.7z"/>
	<path class="st6" d="M106.1,54.5c0-14.7,11.6-26.6,25.9-26.6v26.6H106.1z"/>
	<rect x="132" y="27.9" class="st6" width="15.7" height="26.6"/>
	<rect x="106.1" y="54.5" class="st6" width="67.5" height="30.8"/>
	<path class="st4" d="M181.7,65.8c0-4.6-3.6-8.3-8.1-8.3v8.3H181.7z"/>
	<path class="st4" d="M181.7,73.4c0,4.6-3.6,8.3-8.1,8.3v-8.3H181.7z"/>
	<rect x="173.7" y="65.8" class="st4" width="8.1" height="7.6"/>
	<path class="st4" d="M98.1,65.8c0-4.6,3.6-8.3,8.1-8.3v8.3H98.1z"/>
	<path class="st4" d="M98.1,73.4c0,4.6,3.6,8.3,8.1,8.3v-8.3H98.1z"/>
	<rect x="98.1" y="65.8" class="st4" width="8.1" height="7.6"/>
	<path class="st7" d="M161.7,26.3c0,12.4-9.8,22.5-21.9,22.5V26.3H161.7z"/>
	<path class="st7" d="M118,26.3c0,12.4,9.8,22.5,21.9,22.5V26.3H118z"/>
	<path class="st7" d="M161.7,26.3c0-5.2-4.1-9.4-9.1-9.4v9.4H161.7z"/>
	<path class="st7" d="M118,26.3c0-5.2,4.1-9.4,9.1-9.4v9.4H118z"/>
	<rect x="127.1" y="17" class="st7" width="25.6" height="9.4"/>
	<path class="st5" d="M153.1,86.9c0,7.5-5.9,13.7-13.3,13.7V86.9H153.1z"/>
	<path class="st5" d="M126.6,86.9c0,7.5,5.9,13.7,13.3,13.7V86.9H126.6z"/>
	<path d="M148,67.7c-0.7-0.7-0.7-1.8,0.1-2.4c4.9-3.9,11.8-3.9,16.6,0c0.7,0.6,0.7,1.7,0.1,2.4l0,0c-0.7,0.7-1.7,0.7-2.5,0.1
		c-3.5-2.6-8.3-2.6-11.8,0C149.7,68.4,148.6,68.4,148,67.7L148,67.7z"/>
	<path d="M115.2,67.7c-0.7-0.7-0.7-1.8,0.1-2.4c4.9-3.9,11.8-3.9,16.6,0c0.7,0.6,0.7,1.7,0.1,2.4l0,0c-0.7,0.7-1.7,0.7-2.5,0.1
		c-3.5-2.6-8.3-2.6-11.8,0C116.9,68.4,115.8,68.4,115.2,67.7L115.2,67.7z"/>
	<path class="st9" d="M200.1,121.4l5.9-34.7l-14-2.5l-5.9,34.7L200.1,121.4z"/>
	<path class="st9" d="M201.5,113l4.5-26.3l8.1,1.5l-4.5,26.3L201.5,113z"/>
	<path class="st9" d="M185.5,82.9c-1.2-0.2-2.5,1.6-2.9,4l2.2,0.4L185.5,82.9z"/>
	<path class="st6" d="M184,91.6c-1.2-0.2-1.9-2.3-1.4-4.7l2.2,0.4L184,91.6z"/>
	<path class="st6" d="M184,91.6l1.5-8.7l7.5,1.4l-1.5,8.7L184,91.6z"/>
	<path class="st6" d="M178.7,90.7c-1.8-0.3-3.5,1.4-4,3.8l3.2,0.6L178.7,90.7z"/>
	<path class="st6" d="M177.2,99.4c-1.8-0.3-2.9-2.5-2.5-4.9l3.2,0.6L177.2,99.4z"/>
	<path class="st6" d="M177.1,99.5l1.5-8.8l12.9,2.3l-1.5,8.8L177.1,99.5z"/>
	<path class="st9" d="M179.3,99.7c-1.7-0.3-3.4,1.4-3.8,3.8l3.1,0.6L179.3,99.7z"/>
	<path class="st9" d="M177.9,108.4c-1.7-0.3-2.8-2.5-2.4-4.9l3.1,0.6L177.9,108.4z"/>
	<path class="st6" d="M177.9,108.4l1.5-8.7l10.6,1.9l-1.5,8.7L177.9,108.4z"/>
	<path class="st6" d="M181,109c-1.2-0.2-2.5,1.6-2.9,4l2.2,0.4L181,109z"/>
	<path class="st6" d="M179.5,117.7c-1.2-0.2-1.9-2.3-1.4-4.7l2.2,0.4L179.5,117.7z"/>
	<path class="st6" d="M179.5,117.7l1.5-8.7l7.5,1.4l-1.5,8.7L179.5,117.7z"/>
	<polygon class="st6" points="204.6,73.6 215.3,75.5 213.1,88 202.5,86.1 	"/>
	<path class="st6" d="M215.3,75.5c0.5-3-1.4-5.9-4.4-6.4l-0.9,5.5L215.3,75.5z"/>
	<path class="st9" d="M204.6,73.6c0.5-3,3.3-5,6.2-4.5l-0.9,5.5L204.6,73.6z"/>
	<path class="st6" d="M200.1,121.4c4.5,0.8,8.8-2.3,9.6-6.9l-8.1-1.5L200.1,121.4z"/>
	<polygon class="st10" points="59.2,97.1 19.5,103 25.9,148.8 65.6,142.9 	"/>
	<polygon class="st11" points="42.1,99.6 82.7,93.6 89.1,139.4 48.5,145.4 	"/>
	<polygon class="st12" points="60,100.9 79.4,98 80.3,104.8 61,107.6 	"/>
	<polygon class="st13" points="61.3,112.2 80.7,109.4 80.4,107 61,109.9 	"/>
	<polygon class="st13" points="68.2,115.3 81.2,113.4 80.8,111 67.9,112.9 	"/>
	<path class="st14" d="M42.1,99.6l40.6-6l6.7-14.8l-40.6,6L42.1,99.6z"/>
	<polygon class="st12" points="42.1,99.6 19.5,103 25.9,148.8 48.5,145.4 	"/>
	<path class="st15" d="M42.1,99.6L19.5,103L9,90.7l22.6-3.3L42.1,99.6z"/>
	<path class="st9" d="M75.6,140.6l-26.7,3.8L47.2,132l26.7-3.8L75.6,140.6z"/>
	<path class="st9" d="M69.2,141.5l-20.3,2.9l1,7.2l20.3-2.9L69.2,141.5z"/>
	<path class="st9" d="M46.4,126.2c-0.1-1.1,1.2-2.1,3.1-2.4l0.3,1.9L46.4,126.2z"/>
	<path class="st6" d="M53.1,125.2c-0.1-1.1-1.8-1.7-3.6-1.5l0.3,1.9L53.1,125.2z"/>
	<path class="st6" d="M53.1,125.2l-6.7,0.9l0.9,6.7l6.7-1L53.1,125.2z"/>
	<path class="st6" d="M52.4,120.5c-0.2-1.6,1.1-3.1,3-3.3l0.4,2.8L52.4,120.5z"/>
	<path class="st6" d="M59.1,119.5c-0.2-1.6-1.9-2.6-3.7-2.4l0.4,2.8L59.1,119.5z"/>
	<path class="st6" d="M59.2,119.5l-6.7,1l1.5,11.4l6.7-1L59.2,119.5z"/>
	<path class="st9" d="M59.4,121.5c-0.2-1.5,1.1-3,3-3.2l0.4,2.7L59.4,121.5z"/>
	<path class="st9" d="M66.1,120.5c-0.2-1.5-1.9-2.5-3.7-2.3l0.4,2.7L66.1,120.5z"/>
	<path class="st6" d="M66.1,120.5l-6.7,0.9l1.3,9.4l6.7-1L66.1,120.5z"/>
	<path class="st6" d="M66.5,123.3c-0.1-1.1,1.2-2.1,3.1-2.4l0.3,1.9L66.5,123.3z"/>
	<path class="st6" d="M73.2,122.4c-0.1-1.1-1.8-1.7-3.6-1.5l0.3,1.9L73.2,122.4z"/>
	<path class="st6" d="M73.2,122.4l-6.7,0.9l0.9,6.7l6.7-1L73.2,122.4z"/>
	<polygon class="st6" points="45.3,141.7 46.6,151.1 49.7,150.7 48.5,141.3 	"/>
	<path class="st6" d="M46.6,151c-2.3,0.3-4.5-1.5-4.8-4.1l4.2-0.6L46.6,151z"/>
	<path class="st9" d="M45.3,141.6c-2.3,0.3-3.9,2.7-3.6,5.3l4.2-0.6L45.3,141.6z"/>
	<path class="st6" d="M75.6,140.6c0.5,4-1.9,7.6-5.5,8.1l-1-7.2L75.6,140.6z"/>
	<path class="st16" d="M55.7,30.4c10.9,13.5,9,33.6-4.1,44.8C40.7,61.7,42.6,41.6,55.7,30.4z"/>
	<path class="st6" d="M19.1,64.1c12.7-1.3,24.1,8.3,25.3,21.4C31.7,86.8,20.3,77.2,19.1,64.1z"/>
	<path class="st12" d="M27.3,42.4c9.4,2.5,15.1,12.4,12.7,22.1C30.5,62,24.9,52.1,27.3,42.4z"/>
</g>
</svg>
