<?xml version="1.0" encoding="utf-8"?>
<!-- Generator: Adobe Illustrator 22.1.0, SVG Export Plug-In . SVG Version: 6.00 Build 0)  -->
<svg version="1.1" id="Layer_1" xmlns="http://www.w3.org/2000/svg" xmlns:xlink="http://www.w3.org/1999/xlink" x="0px" y="0px"
	 viewBox="0 0 240 180" style="enable-background:new 0 0 240 180;" xml:space="preserve">
<style type="text/css">
	.st0{fill:#E0486C;}
	.st1{fill:#EE8069;}
	.st2{fill:#F3B757;}
	.st3{fill:#FFD0DD;}
	.st4{fill:#E9A639;}
	.st5{fill:#00538D;}
	.st6{fill:#FFB53D;}
	.st7{fill:#0068B0;}
	.st8{fill:#007BD0;}
	.st9{fill:#FFC059;}
	.st10{fill:#FEFEFE;}
	.st11{fill:#FF7097;}
	.st12{fill:#F4366A;}
	.st13{fill:#ED5881;}
	.st14{fill:#FF95B2;}
	.st15{fill:#FF628D;}
	.st16{fill:#FF7963;}
	.st17{fill:#FFD0DD;filter:url(#Adobe_OpacityMaskFilter);}
	.st18{mask:url(#mask0_1_);}
	.st19{fill:#005A99;}
	.st20{fill:#444444;}
	.st21{fill:#111111;}
	.st22{fill:#1C80C5;}
	.st23{fill:#D72253;}
	.st24{fill:#F5F5F5;}
	.st25{fill:#FFE9EF;}
	.st26{fill:#00497C;}
	.st27{fill:#C79037;}
	.st28{fill:#F9A61E;}
	.st29{fill:#FFCD7D;}
	.st30{fill:#D62757;}
	.st31{fill:#E5E5E5;filter:url(#Adobe_OpacityMaskFilter_1_);}
	.st32{mask:url(#mask0_3_);}
	.st33{fill:#E5E5E5;filter:url(#Adobe_OpacityMaskFilter_2_);}
	.st34{mask:url(#mask1_2_);}
	.st35{fill:#E5E5E5;filter:url(#Adobe_OpacityMaskFilter_3_);}
	.st36{mask:url(#mask0_4_);}
	.st37{fill:#E5E5E5;filter:url(#Adobe_OpacityMaskFilter_4_);}
	.st38{mask:url(#mask0_2_);}
	.st39{fill:#FFFFFF;}
	.st40{fill:none;stroke:#FFFFFF;stroke-width:2;stroke-miterlimit:10;stroke-dasharray:5,5;}
	.st41{fill:#EFEFEF;}
	.st42{fill:#C4C4C4;}
</style>
<g>
	<path class="st3" d="M170.3,36.9c-5,0.9-9.9,2-14.6,3.3c-6.5-3-13.6-5-21-5.9l0,0.1c-30.4-3.5-55.7,4.4-66.1,18.9
		c-25.4-1.5-50.3,9.2-60.6,27.8c-12.9,23.2,1,49.4,31.9,59.1l0.9,0.3c18.7,5.8,37.8,7.7,54.4,6c16.7,12.4,43.6,17.7,74,12.7l0,0.2
		c37.2-6.4,67.6-39,67.9-72.9c0.4-33.9-28-56.2-65.1-49.8L170.3,36.9z"/>
	<defs>
		<filter id="Adobe_OpacityMaskFilter" filterUnits="userSpaceOnUse" x="14.1" y="105" width="222.8" height="69.9">
			<feColorMatrix  type="matrix" values="1 0 0 0 0  0 1 0 0 0  0 0 1 0 0  0 0 0 1 0"/>
		</filter>
	</defs>
	<mask maskUnits="userSpaceOnUse" x="14.1" y="105" width="222.8" height="69.9" id="mask0_3_">
		<path style="fill:#E5E5E5;filter:url(#Adobe_OpacityMaskFilter);" d="M170.3,36.9c-5,0.9-9.9,2-14.6,3.3c-6.5-3-13.6-5-21-5.9
			l0,0.1c-30.4-3.5-55.7,4.4-66.1,18.9c-25.4-1.5-50.3,9.2-60.6,27.8c-12.9,23.2,1,49.4,31.9,59.1l0.9,0.3c18.7,5.8,37.8,7.7,54.4,6
			c16.7,12.4,43.6,17.7,74,12.7l0,0.2c37.2-6.4,67.6-39,67.9-72.9c0.4-33.9-28-56.2-65.1-49.8L170.3,36.9z"/>
	</mask>
	<g class="st32">
		<path class="st7" d="M203.8,131.1c0-12.7-10.2-23-22.8-23v23H203.8z"/>
		<path class="st7" d="M218.8,118c-7,0-12.6,5.5-12.6,12.3h12.6V118z"/>
		<path class="st7" d="M231.4,131.1c0-7.2-5.6-13.1-12.6-13.1v13.1H231.4z"/>
		<path class="st7" d="M211.7,129.5c0-6.8-6-12.3-13.4-12.3v12.3H211.7z"/>
		<path class="st5" d="M181,108c-13,0-23.6,10.3-23.6,23H181V108z"/>
		<path class="st5" d="M36.9,115.7c-12.6,0-22.8,10-22.8,22.3h22.8V115.7z"/>
		<path class="st7" d="M74.7,128c0-12.7-9.9-23-22-23v23H74.7z"/>
		<path class="st7" d="M52.7,105c-13,0-23.6,10.3-23.6,23h23.6V105z"/>
		<path class="st7" d="M236.9,174.8H73.2v-44.5h163.8V174.8z"/>
		<path class="st8" d="M78.7,159.5c7.4,0,13.4-5.5,13.4-12.3H78.7V159.5z"/>
		<path class="st8" d="M66.1,146.4c0,7.2,5.6,13.1,12.6,13.1v-13.1H66.1z"/>
		<path class="st8" d="M79.5,134.2c-7.4,0-13.4,5.5-13.4,12.3h13.4V134.2z"/>
		<path class="st8" d="M92.1,147.2c0-7.2-6-13.1-13.4-13.1v13.1H92.1z"/>
		<path class="st5" d="M140.9,152.6c7.4,0,13.4-5.8,13.4-13.1h-13.4V152.6z"/>
		<path class="st5" d="M128.3,139.5c0,7.2,5.6,13.1,12.6,13.1v-13.1H128.3z"/>
		<path class="st5" d="M141.6,126.5c-7.4,0-13.4,5.8-13.4,13.1h13.4V126.5z"/>
		<path class="st5" d="M154.2,139.5c0-7.2-6-13.1-13.4-13.1v13.1H154.2z"/>
		<path class="st5" d="M159.8,143.4c7.4,0,13.4-5.5,13.4-12.3h-13.4V143.4z"/>
		<path class="st5" d="M146.4,130.3c0,7.2,6,13.1,13.4,13.1v-13.1H146.4z"/>
		<path class="st5" d="M159.8,118c-7.4,0-13.4,5.5-13.4,12.3h13.4V118z"/>
		<path class="st5" d="M173.1,131.1c0-7.2-6-13.1-13.4-13.1v13.1H173.1z"/>
		<path class="st5" d="M152.7,164.1c7.4,0,13.4-5.8,13.4-13.1h-13.4V164.1z"/>
		<path class="st5" d="M139.3,151c0,7.2,6,13.1,13.4,13.1V151H139.3z"/>
		<path class="st5" d="M152.7,138c-7.4,0-13.4,5.8-13.4,13.1h13.4V138z"/>
		<path class="st5" d="M166.1,151c0-7.2-6-13.1-13.4-13.1V151H166.1z"/>
		<path class="st5" d="M136.1,174.8c10.4,0,18.9-8.3,18.9-18.4h-18.9V174.8z"/>
		<path class="st5" d="M117.2,156.4c0,10.2,8.5,18.4,18.9,18.4v-18.4H117.2z"/>
		<path class="st5" d="M136.1,138c-10.4,0-18.9,8.2-18.9,18.4h18.9V138z"/>
		<path class="st5" d="M155,156.4c0-10.2-8.5-18.4-18.9-18.4v18.4H155z"/>
		<path class="st8" d="M164.5,164.1c7.4,0,13.4-5.8,13.4-13.1h-13.4V164.1z"/>
		<path class="st8" d="M151.9,151c0,7.2,5.6,13.1,12.6,13.1V151H151.9z"/>
		<path class="st8" d="M165.3,138c-7.4,0-13.4,5.8-13.4,13.1h13.4V138z"/>
		<path class="st8" d="M177.9,151c0-7.2-6-13.1-13.4-13.1V151H177.9z"/>
		<path class="st8" d="M180.2,151c7.4,0,13.4-5.8,13.4-13.1h-13.4V151z"/>
		<path class="st8" d="M166.8,138c0,7.2,6,13.1,13.4,13.1V138H166.8z"/>
		<path class="st8" d="M180.2,124.9c-7.4,0-13.4,5.8-13.4,13.1h13.4V124.9z"/>
		<path class="st8" d="M193.6,138c0-7.2-6-13.1-13.4-13.1V138H193.6z"/>
		<path class="st8" d="M195.2,144.9c7.4,0,13.4-5.5,13.4-12.3h-13.4V144.9z"/>
		<path class="st8" d="M181.8,132.6c0,6.8,6,12.3,13.4,12.3v-12.3H181.8z"/>
		<path class="st8" d="M195.2,119.6c-7.4,0-13.4,5.8-13.4,13.1h13.4V119.6z"/>
		<path class="st8" d="M208.6,132.6c0-7.2-6-13.1-13.4-13.1v13.1H208.6z"/>
		<path class="st8" d="M206.2,161c7.4,0,13.4-5.8,13.4-13.1h-13.4V161z"/>
		<path class="st8" d="M193.6,148c0,7.2,5.6,13.1,12.6,13.1V148H193.6z"/>
		<path class="st8" d="M207,134.9c-7.4,0-13.4,5.8-13.4,13.1H207V134.9z"/>
		<path class="st8" d="M219.6,148c0-7.2-6-13.1-13.4-13.1V148H219.6z"/>
		<path class="st8" d="M188.1,167.9c7.4,0,13.4-5.8,13.4-13.1h-13.4V167.9z"/>
		<path class="st8" d="M174.7,154.9c0,7.2,6,13.1,13.4,13.1v-13.1H174.7z"/>
		<path class="st8" d="M188.1,141.8c-7.4,0-13.4,5.8-13.4,13.1h13.4V141.8z"/>
		<path class="st8" d="M201.5,154.9c0-7.2-6-13.1-13.4-13.1v13.1H201.5z"/>
	</g>
	<path class="st28" d="M159.8,58.9c0-17.4-14.5-31.5-32.3-31.5v31.5H159.8z"/>
	<path class="st6" d="M112.5,27.4c-17.8,0-32.3,14.1-32.3,31.5h32.3V27.4z"/>
	<path class="st6" d="M119.6,138c8.7,0,15.7-6.5,15.7-14.6h-15.7V138z"/>
	<path class="st9" d="M112.5,27.4h15v31.5h-15V27.4z"/>
	<path class="st9" d="M80.2,58.9h79.5v32.3H80.2V58.9z"/>
	<path class="st6" d="M65.3,105h109.4V118H65.3V105z"/>
	<path class="st6" d="M80,91.2h79.8c0,7.9,6.9,14.3,15,14.3v0.3H65.3v-0.3C73.4,105.4,80,99,80,91.2z"/>
	<path class="st28" d="M65.3,118h109.4v5.4H65.3V118z"/>
	<path d="M113.2,68.4c0.6,0.6,0.6,1.6-0.1,2.1c-4.6,3.5-11,3.5-15.6,0c-0.7-0.5-0.7-1.5-0.1-2.1l0,0c0.6-0.6,1.6-0.6,2.3-0.1
		c3.3,2.3,7.8,2.3,11.1,0C111.6,67.8,112.6,67.8,113.2,68.4L113.2,68.4z"/>
	<path d="M144,68.4c0.6,0.6,0.6,1.6-0.1,2.1c-4.6,3.5-11,3.5-15.6,0c-0.7-0.5-0.7-1.5-0.1-2.1l0,0c0.6-0.6,1.6-0.6,2.3-0.1
		c3.3,2.3,7.8,2.3,11.1,0C142.4,67.8,143.4,67.8,144,68.4L144,68.4z"/>
	<path d="M130.6,94.6c0,1.9-1.6,3.5-3.5,3.5c-2,0-3.5-1.5-3.5-3.5c0-1.9,1.6-3.5,3.5-3.5C129,91.2,130.6,92.7,130.6,94.6z"/>
	<defs>
		<filter id="Adobe_OpacityMaskFilter_1_" filterUnits="userSpaceOnUse" x="29.1" y="110.3" width="90.5" height="59.9">
			<feColorMatrix  type="matrix" values="1 0 0 0 0  0 1 0 0 0  0 0 1 0 0  0 0 0 1 0"/>
		</filter>
	</defs>
	<mask maskUnits="userSpaceOnUse" x="29.1" y="110.3" width="90.5" height="59.9" id="mask1_2_">
		<path class="st31" d="M170.3,36.9c-5,0.9-9.9,2-14.6,3.3c-6.5-3-13.6-5-21-5.9l0,0.1c-30.4-3.5-55.7,4.4-66.1,18.9
			c-25.4-1.5-50.3,9.2-60.6,27.8c-12.9,23.2,1,49.4,31.9,59.1l0.9,0.3c18.7,5.8,37.8,7.7,54.4,6c16.7,12.4,43.6,17.7,74,12.7l0,0.2
			c37.2-6.4,67.6-39,67.9-72.9c0.4-33.9-28-56.2-65.1-49.8L170.3,36.9z"/>
	</mask>
	<g class="st34">
		<path class="st7" d="M76.3,170.2H29.1V128h47.2V170.2z"/>
		<path class="st8" d="M63.7,123.4c-7.4,0-13.4,5.5-13.4,12.3h13.4V123.4z"/>
		<path class="st8" d="M77.1,135.7c0-6.8-6-12.3-13.4-12.3v12.3H77.1z"/>
		<path class="st8" d="M50.3,135.7c0,7.2,6,13.1,13.4,13.1v-13.1H50.3z"/>
		<path class="st8" d="M77.1,135.7c7.4,0,13.4-5.5,13.4-12.3H77.1V135.7z"/>
		<path class="st8" d="M63.7,123.4c0,6.8,6,12.3,13.4,12.3v-12.3H63.7z"/>
		<path class="st5" d="M77.1,110.3c-7.4,0-13.4,5.8-13.4,13.1h13.4V110.3z"/>
		<path class="st8" d="M90.5,123.4c0-7.2-6-13.1-13.4-13.1v13.1H90.5z"/>
		<path class="st8" d="M90.5,142.6c7.4,0,13.4-5.8,13.4-13.1H90.5V142.6z"/>
		<path class="st8" d="M77.1,129.5c0,7.2,6,13.1,13.4,13.1v-13.1H77.1z"/>
		<path class="st8" d="M90.5,116.5c-7.4,0-13.4,5.8-13.4,13.1h13.4V116.5z"/>
		<path class="st8" d="M103.9,129.5c0-7.2-6-13.1-13.4-13.1v13.1H103.9z"/>
		<path class="st8" d="M103.9,154.9c7.4,0,13.4-5.5,13.4-12.3h-13.4V154.9z"/>
		<path class="st8" d="M90.5,141.8c0,7.2,6,13.1,13.4,13.1v-13.1H90.5z"/>
		<path class="st8" d="M103.9,129.5c-7.4,0-13.4,5.5-13.4,12.3h13.4V129.5z"/>
		<path class="st8" d="M117.2,142.6c0-7.2-6-13.1-13.4-13.1v13.1H117.2z"/>
		<path class="st8" d="M63.7,135.7h12.6v13.8H63.7V135.7z"/>
		<path class="st28" d="M104.6,123.4c0,8.1,6.7,14.6,15,14.6v-14.6H104.6z"/>
	</g>
	<path class="st8" d="M177.9,64.3h-6.3V63l3.5-4.7h-3.4v-1.7h6.1v1.3l-3.5,4.7h3.6V64.3z"/>
	<path class="st7" d="M191.2,53.5h-7.9v-1.7l4.4-6.1h-4.3v-2.2h7.7v1.7l-4.4,6.1h4.5V53.5z"/>
	<path class="st7" d="M76.3,38.9h-7.9v-1.7l4.4-6.1h-4.3V29h7.7v1.7l-4.4,6.1h4.5V38.9z"/>
	<path class="st5" d="M96,19.7H84.2v-2.4l6.6-9h-6.4V5.2h11.5v2.4l-6.6,9H96V19.7z"/>
</g>
</svg>
