<svg id="Layer_1" data-name="Layer 1" xmlns="http://www.w3.org/2000/svg" viewBox="0 0 24 24"><title>explore</title><path d="M6.63,8.63l-.87-.5c-.2.39-.47.75-1,.74a1.56,1.56,0,0,1-.7-.22c-.5-.31-.54-.79-.17-1.56A1.07,1.07,0,0,0,3.78,7a1.72,1.72,0,0,1-.43-2.3l.57-1a1.66,1.66,0,0,1,1.65-.81c1.12.19,2.24.39,3.35.62,1.45.3,2.9.63,4.35,1,.33.08.65.22,1,.34l.35-.59,1.12-1.94A.36.36,0,0,1,16.14,2a.61.61,0,0,1,.33.3.64.64,0,0,1-.1.38L14.9,5.23l-.53.91a.54.54,0,0,0,.2.82c.7.42,1.4.82,2.1,1.22a1.14,1.14,0,0,0,.87.09A3.09,3.09,0,0,1,18.74,8c.06,0,.14-.09.19-.16.52-.91,1-1.82,1.57-2.72A.64.64,0,0,1,20.58,5a.39.39,0,1,1,.67.39L20.14,7.33l-.54.95a2.11,2.11,0,0,1,.32.37.74.74,0,0,1,0,.77l-2.19,3.79a1.73,1.73,0,0,1-1.74.66l-.31-.07a1,1,0,0,0-.07.28,6.78,6.78,0,0,1-4.13,7.36,6.57,6.57,0,0,1-7-1A6.4,6.4,0,0,1,2,14.8a6.66,6.66,0,0,1,4.38-6l.21-.09Zm6-3.59L13,6.39c.11.39-.1.63-.51.56s-.81-.16-1.21-.22a.47.47,0,0,1-.44-.39c-.12-.49-.26-1-.39-1.46s-.23-.44-.64-.38c.12.46.25.91.37,1.37s-.11.64-.53.57-.76-.16-1.15-.21A.53.53,0,0,1,8,5.77c-.12-.54-.27-1.06-.42-1.59,0-.08-.1-.19-.16-.2-.63-.13-1.26-.26-1.89-.36A.89.89,0,0,0,4.64,4a.77.77,0,0,0,0,.89,1.47,1.47,0,0,0,.5.49Q8.06,7.08,11,8.76a.94.94,0,0,0,.52.1,1.72,1.72,0,0,1,1,.19l1.05.61a2.61,2.61,0,0,1,1,1.08.36.36,0,0,0,.12.15c.58.34,1.16.69,1.75,1a1,1,0,0,0,1.35-.42c.4-.76.85-1.49,1.28-2.24L19.23,9a1.12,1.12,0,0,0-.9-.15l-.91.25c-.57.15-1.14.31-1.72.45-.29.08-.48,0-.55-.25s0-.4.32-.49L16,8.68l-.24-.15c-.52-.3-1.05-.59-1.56-.9a1.31,1.31,0,0,1-.54-1.73c.06-.14.15-.28.24-.46Zm-5.5,5.3c-.18.3-.35.58-.5.87a.29.29,0,0,0,0,.24c.34.54.68,1.07,1,1.59a.31.31,0,0,0,.25.14H9.71A.36.36,0,0,0,10,13c.19-.25.35-.53.53-.8a.4.4,0,0,1,.59-.15.39.39,0,0,1,.06.58c-.18.29-.37.56-.55.85a.29.29,0,0,0,0,.22c.18.59.37,1.17.56,1.75a.23.23,0,0,0,.15.14L13,16a.22.22,0,0,0,.18,0c.46-.44.92-.9,1.4-1.37a1.07,1.07,0,0,1-.71-1.77c-.19-.18-.41-.31-.51-.51a2,2,0,0,0-.76-.86c-.36-.21-.71-.42-1.08-.61a.8.8,0,0,0-.45-.1,1.68,1.68,0,0,1-1.14-.24c-.26-.16-.53-.3-.79-.45A1.11,1.11,0,0,1,7.16,10.34ZM2.85,14.19a1,1,0,0,0,.11.18c.5.52,1,1,1.49,1.54a.31.31,0,0,0,.34.09l1.56-.36a.36.36,0,0,0,.21-.19c.19-.55.37-1.11.54-1.67a.35.35,0,0,0,0-.28C6.73,13,6.38,12.42,6,11.89a.29.29,0,0,0-.22-.09c-.72.12-1.44.26-2.16.4a.25.25,0,0,0-.16.1A6.1,6.1,0,0,0,2.85,14.19Zm5.57,4.34h0c0-.25,0-.51,0-.76a.43.43,0,0,0-.13-.26c-.48-.36-1-.71-1.45-1.05a.43.43,0,0,0-.29-.06L5,16.74c-.16,0-.21.1-.22.26-.08.73-.16,1.46-.26,2.19a.36.36,0,0,0,.11.32A5.92,5.92,0,0,0,6.45,20.7a.35.35,0,0,0,.28,0c.33-.22.65-.46,1-.69s.58-.3.7-.54A2.25,2.25,0,0,0,8.42,18.53Zm4.84.7c-.12-.8-.24-1.56-.37-2.32a.35.35,0,0,0-.21-.16c-.52-.13-1-.24-1.58-.35a.42.42,0,0,0-.27.05c-.49.35-1,.7-1.46,1.07a.29.29,0,0,0-.12.23c0,.51,0,1,0,1.52a.29.29,0,0,0,.12.23l1.79,1.1a.31.31,0,0,0,.25,0,5.76,5.76,0,0,0,1.76-1.25A.33.33,0,0,0,13.26,19.23Zm-9.34-14c0,.09,0,.13,0,.17a1.07,1.07,0,0,0,.66,1.1L10.3,9.85A1,1,0,0,0,11,10a1.35,1.35,0,0,1,.9.17l1.11.64a2.57,2.57,0,0,1,1,1,.75.75,0,0,0,.25.25c.49.29,1,.58,1.48.86a1.4,1.4,0,0,0,.38.16.82.82,0,0,0,.92-.23,5.21,5.21,0,0,1-.94-.32c-.62-.32-1.22-.68-1.81-1a.75.75,0,0,1-.26-.3,1.76,1.76,0,0,0-.73-.84c-.36-.21-.72-.43-1.09-.62a.89.89,0,0,0-.5-.1,1.64,1.64,0,0,1-1.08-.23l-5.27-3A3,3,0,0,1,3.92,5.24ZM8.85,16.92c.48-.35,1-.69,1.43-1.05a.23.23,0,0,0,.07-.21c-.15-.52-.32-1-.5-1.54A.25.25,0,0,0,9.67,14H8a.24.24,0,0,0-.18.13q-.27.78-.51,1.56a.28.28,0,0,0,0,.2Zm-6.07-1.5a5.91,5.91,0,0,0,1.05,3.11c.07-.64.15-1.23.21-1.82a.22.22,0,0,0,0-.16Zm12.07,0a7.6,7.6,0,0,1-.7.69,1,1,0,0,0-.42,1.23,8.64,8.64,0,0,1,.2,1.12A5.48,5.48,0,0,0,14.85,15.38ZM6.75,9.49a5.31,5.31,0,0,0-2.57,1.82L5.79,11a.26.26,0,0,0,.14-.09C6.2,10.45,6.46,10,6.75,9.49ZM10.33,21l-1.39-.85a.18.18,0,0,0-.16,0l-1.25.88A6.16,6.16,0,0,0,10.33,21ZM8.39,4.17c.12.43.22.84.34,1.24a.14.14,0,0,0,.09.08l.48.09c-.08-.31-.16-.58-.23-.86C8.94,4.25,8.94,4.25,8.39,4.17Zm3.73,1.89a4.67,4.67,0,0,1-.19-.71.57.57,0,0,0-.62-.59l-.06,0c.06.25.15.49.19.74s.22.57.6.56Zm-7,1.7-.53-.3a2,2,0,0,0-.11.47c0,.06.19.18.24.16A1.88,1.88,0,0,0,5.13,7.76Zm2.8,1.62a2,2,0,0,0-.08.5s.2.16.25.13a1.8,1.8,0,0,0,.36-.33Zm6.57,3.8a1.6,1.6,0,0,0-.1.45c0,.06.2.19.25.16a1.74,1.74,0,0,0,.38-.32l-.31-.18Z"/><path d="M21.6,4.39a.38.38,0,0,1-.38-.4.39.39,0,0,1,.39-.37A.4.4,0,0,1,22,4,.38.38,0,0,1,21.6,4.39Z"/><path d="M14.39,9.12a.4.4,0,0,1,.38.41.39.39,0,0,1-.39.37A.39.39,0,0,1,14,9.49.4.4,0,0,1,14.39,9.12Z"/></svg>