<svg id="Layer_1" data-name="Layer 1" xmlns="http://www.w3.org/2000/svg" viewBox="0 0 24 24"><title>explore</title><path d="M18.92,16.2l1.63,3a1,1,0,0,1,.15.73,1,1,0,0,1-.84.8,1,1,0,0,1-1.1-.54c-.52-.94-1-1.89-1.54-2.84l-.12-.22a13.5,13.5,0,0,1-4.05.81,2.29,2.29,0,0,0,0,.25v2.71a1,1,0,1,1-2.08,0V18a13.76,13.76,0,0,1-4.06-.81l-.13.21L5.24,20.2a1.05,1.05,0,0,1-1.1.55,1,1,0,0,1-.84-.82,1.2,1.2,0,0,1,.14-.69c.52-1,1.08-2,1.63-3l-.47-.38a7.13,7.13,0,0,1-2.52-4.57A5.2,5.2,0,0,1,2,10.06,2,2,0,0,1,3.09,8.62a9.19,9.19,0,0,1,2.69-1A19.6,19.6,0,0,1,9.89,7c1.24,0,2.48-.09,3.72,0a19.2,19.2,0,0,1,6.28,1.18,4.55,4.55,0,0,1,1.61,1,1.61,1.61,0,0,1,.5,1.22A7.27,7.27,0,0,1,19.11,16l-.15.11Zm2.24-4.56c-.32.17-.6.34-.89.48a13.38,13.38,0,0,1-3.68,1.05,29.35,29.35,0,0,1-5.46.33A26.5,26.5,0,0,1,6,12.9a10.55,10.55,0,0,1-2.78-1c-.13-.07-.25-.15-.42-.26A6.57,6.57,0,0,0,5.28,15.5,10.23,10.23,0,0,0,11,17.3v-.61a1,1,0,0,1,2.08,0c0,.2,0,.4,0,.64.57-.07,1.1-.11,1.62-.21a9.39,9.39,0,0,0,3.57-1.28A6.71,6.71,0,0,0,21.16,11.64ZM12,7.52c-1,.06-2,.1-3,.18a17.34,17.34,0,0,0-3.71.69A6.2,6.2,0,0,0,3.12,9.45a.86.86,0,0,0,0,1.47,4.19,4.19,0,0,0,1.36.78,18.65,18.65,0,0,0,5.68,1.1,27.93,27.93,0,0,0,6.52-.32,13.29,13.29,0,0,0,3.32-1,3.26,3.26,0,0,0,1.11-.77.74.74,0,0,0,0-1.08,2.31,2.31,0,0,0-.47-.41,7.17,7.17,0,0,0-2.26-1A25.7,25.7,0,0,0,12,7.52Zm-.33,11.31c0,.71,0,1.42,0,2.13,0,.24.12.36.33.36a.31.31,0,0,0,.34-.35c0-1.42,0-2.84,0-4.27a.41.41,0,0,0-.16-.3.32.32,0,0,0-.51.29C11.65,17.41,11.66,18.12,11.66,18.83Zm-6-2.27c-.24.44-.47.86-.69,1.28-.31.57-.63,1.15-.93,1.72-.08.15-.12.31,0,.42a.56.56,0,0,0,.38.08c.08,0,.16-.14.21-.23L6.18,17l.06-.15Zm12.09.32a.75.75,0,0,0,.06.13l1.55,2.86c.12.23.29.3.49.2s.24-.28.11-.51l-.66-1.22q-.46-.89-1-1.77Z"/><path d="M15.18,2.31a3.23,3.23,0,0,1-.19.3c-.23.28-.47.55-.71.83a.66.66,0,0,0,0,.94,1.3,1.3,0,0,1-.13,1.81.37.37,0,0,1-.51.06c-.16-.13-.17-.29,0-.48.37-.5.37-.59,0-1.1a1.23,1.23,0,0,1,.05-1.54c.27-.34.55-.68.85-1a.55.55,0,0,1,.4-.1C15,2.06,15.08,2.21,15.18,2.31Z"/><path d="M11.83,6.32c-.34,0-.5-.24-.38-.47a1,1,0,0,1,.13-.17.63.63,0,0,0,0-.91A1.29,1.29,0,0,1,11.7,3l.7-.81c.18-.2.37-.23.53-.1s.17.32,0,.53-.47.53-.7.81a.65.65,0,0,0-.05,1A1.29,1.29,0,0,1,12,6.19.91.91,0,0,1,11.83,6.32Z"/><path d="M9.67,6.37c-.11-.08-.24-.13-.28-.23a.31.31,0,0,1,0-.31c.43-.43.34-.81,0-1.27a1.13,1.13,0,0,1,.09-1.41c.27-.35.57-.68.86-1a.34.34,0,0,1,.5-.05.31.31,0,0,1,0,.47c-.25.3-.52.59-.77.9a.62.62,0,0,0,0,.91A1.3,1.3,0,0,1,10,6.18,1.19,1.19,0,0,1,9.67,6.37Z"/><path d="M13.42,8.33a2.6,2.6,0,0,1-.2.28L9.52,12.2a.35.35,0,0,1-.53,0,.33.33,0,0,1,0-.5l3.72-3.6a.36.36,0,0,1,.43-.08C13.28,8.1,13.33,8.22,13.42,8.33Z"/><path d="M15.14,8.65A1.76,1.76,0,0,1,15,9l-3.34,3.23c-.2.19-.41.2-.56.05s-.13-.33.07-.53l3.32-3.21c.13-.12.28-.21.44-.12S15.05,8.55,15.14,8.65Z"/><path d="M7.58,12c-.34,0-.5-.27-.36-.49,0-.06.1-.11.15-.17L10.61,8.2a1.07,1.07,0,0,1,.16-.14.33.33,0,0,1,.43,0,.3.3,0,0,1,0,.42,1,1,0,0,1-.14.15L7.86,11.8A1.54,1.54,0,0,1,7.58,12Z"/><path d="M13.37,12.38c-.11-.08-.23-.13-.28-.21a.5.5,0,0,1,0-.32c0-.06.08-.11.13-.16l2.95-2.85c.24-.24.5-.22.63,0s0,.31-.13.43l-1.61,1.55c-.45.45-.91.89-1.37,1.33A2.08,2.08,0,0,1,13.37,12.38Z"/><path d="M18.48,8.67c.32,0,.49.28.36.49a1.07,1.07,0,0,1-.14.16l-2.58,2.5c-.06.06-.14.15-.21.14a.56.56,0,0,1-.39-.11c-.06-.07,0-.25,0-.37s.09-.11.14-.16l2.55-2.46A1.52,1.52,0,0,1,18.48,8.67Z"/><path d="M8.93,8.64a1.58,1.58,0,0,1-.18.3L6.08,11.52a.37.37,0,0,1-.53.06.33.33,0,0,1,0-.51c.91-.88,1.81-1.76,2.73-2.62a.47.47,0,0,1,.39-.07C8.78,8.41,8.85,8.54,8.93,8.64Z"/><path d="M4.44,11a.33.33,0,0,1-.33-.48.84.84,0,0,1,.15-.18L5.8,8.85l.09-.08a.36.36,0,0,1,.49,0,.3.3,0,0,1,0,.47L4.65,10.9A.77.77,0,0,1,4.44,11Z"/><path d="M18.16,11.7c-.09-.08-.24-.14-.26-.22a.52.52,0,0,1,.08-.39c.31-.33.64-.64,1-.95l.38-.37a.37.37,0,0,1,.49,0,.31.31,0,0,1,0,.47c-.46.46-.92.9-1.39,1.34A.85.85,0,0,1,18.16,11.7Z"/></svg>