<svg id="Layer_1" data-name="Layer 1" xmlns="http://www.w3.org/2000/svg" viewBox="0 0 24 24"><title>explore</title><path d="M14.67,11.42l-.17.16-2.9,3c-.36.37-.62.31-.82-.16a2.13,2.13,0,0,0-1.17-1.17c-.47-.19-.52-.45-.15-.81L12.4,9.54l.21-.2A3.38,3.38,0,0,0,11.44,9a2.61,2.61,0,0,0-2.57,1.07c-.1.15-.17.32-.26.49a2.57,2.57,0,0,1-2.17,1.51c-.31,0-.48-.1-.5-.33s.13-.42.44-.45a1.87,1.87,0,0,0,1.53-1.08,3.38,3.38,0,0,1,3.6-2,4.57,4.57,0,0,1,1.69.53L17,5.05l-.15-.19a.91.91,0,0,1,0-1.18c.38-.43.76-.85,1.15-1.25a1.44,1.44,0,0,1,2,0c.51.49,1,1,1.49,1.5A1.42,1.42,0,0,1,21.5,6L20.35,7.07a.92.92,0,0,1-1.25,0L19,7l-3.73,3.81A4.35,4.35,0,0,1,15.8,13a3.27,3.27,0,0,1-1.94,3.1,2,2,0,0,0-1.19,1.83,3.92,3.92,0,0,1-.23,1.17A4.05,4.05,0,0,1,8.84,22a6,6,0,0,1-5.29-2.21,6,6,0,0,1-1.48-3.13,4.55,4.55,0,0,1,1.12-4,.42.42,0,0,1,.53-.14c.26.11.29.41.06.65a3.59,3.59,0,0,0-.95,1.95,4.58,4.58,0,0,0,.44,2.77,5.62,5.62,0,0,0,4.18,3.27,3.68,3.68,0,0,0,3.89-1.54,3.5,3.5,0,0,0,.56-1.8,2.64,2.64,0,0,1,1.58-2.44,2.47,2.47,0,0,0,1-.8,2.9,2.9,0,0,0,.33-2.79C14.78,11.67,14.73,11.56,14.67,11.42ZM18.4,6.47l-.85-.86-3.05,3c.13.11.25.2.35.3a.38.38,0,0,1,0,.57.4.4,0,0,1-.56,0L14,9.09l-3.65,3.56,1,1,1.4-1.35c-.11-.1-.23-.18-.33-.29a.39.39,0,0,1-.05-.58.41.41,0,0,1,.61,0,3.18,3.18,0,0,1,.26.35L16.92,8a3.64,3.64,0,0,1-.34-.28.37.37,0,0,1,0-.55.38.38,0,0,1,.55,0,2.94,2.94,0,0,1,.22.27Zm2.87-1.53a2.34,2.34,0,0,0-.27-.5c-.48-.49-1-1-1.46-1.46a.65.65,0,0,0-1,0c-.35.37-.69.76-1,1.13-.12.12-.1.22,0,.33.67.66,1.34,1.32,2,2,.11.1.2.12.31,0,.37-.35.75-.68,1.11-1A2.14,2.14,0,0,0,21.27,4.94Z"/><path d="M16.7,17.67l-.77-1.29c-.21-.35-.17-.5.17-.72l2.33-1.5c.31-.21.51-.16.71.17.43.71.83,1.43,1.29,2.12a1.29,1.29,0,0,1-.84,1.88,1,1,0,0,1-1.36-1.14,1.22,1.22,0,0,1,.82-1l.27-.08L18.61,15l-1.89,1.23L17.82,18a1.11,1.11,0,0,1-.05,1.36,1.31,1.31,0,0,1-1.43.52,1,1,0,0,1-.7-.8,1.07,1.07,0,0,1,.41-1A4,4,0,0,1,16.7,17.67Zm-.07,1.49a.62.62,0,0,0,.59-.43c0-.07,0-.18-.06-.21a.59.59,0,0,0-.64.14s-.05.05-.06.08-.06.2,0,.27S16.59,19.13,16.63,19.16Zm2.92-2.3a2.39,2.39,0,0,0-.46.29.28.28,0,0,0-.05.3.31.31,0,0,0,.3.12,1.16,1.16,0,0,0,.44-.32C19.93,17.06,19.83,16.91,19.55,16.86Z"/><path d="M9,4.4,8.56,5.75c-.15.44-.32.89-.44,1.34a1.27,1.27,0,0,1-1.06,1A1.66,1.66,0,0,1,5.48,7.6a1.22,1.22,0,0,1-.3-1.38,1.26,1.26,0,0,1,1.13-.77A1.74,1.74,0,0,1,7.66,6c.21-.63.42-1.24.62-1.85.05-.15.09-.29.15-.44A.38.38,0,0,1,9,3.47l1.34.77a.39.39,0,1,1-.34.7ZM6.66,7.35l0,0c.12,0,.25,0,.36-.08.32-.12.37-.32.16-.6a.91.91,0,0,0-.86-.41.47.47,0,0,0-.45.33.46.46,0,0,0,.18.53A3.91,3.91,0,0,0,6.66,7.35Z"/><path d="M8.73,13.44a1.83,1.83,0,1,1-1.82,1.84A1.82,1.82,0,0,1,8.73,13.44Zm0,2.87a1,1,0,1,0-1-1A1,1,0,0,0,8.74,16.31Z"/><path d="M5.19,15.82a2,2,0,0,1,.35.22L8,18.47c.21.22.22.43,0,.61A.41.41,0,0,1,7.42,19L5,16.59a.37.37,0,0,1-.12-.47C4.93,16,5.07,15.93,5.19,15.82Z"/><path d="M5.1,12.06a.38.38,0,0,1-.4.38.36.36,0,0,1-.37-.37.39.39,0,0,1,.38-.4A.4.4,0,0,1,5.1,12.06Z"/><path d="M18.92,5.4c-.11-.09-.26-.15-.31-.26a.42.42,0,0,1,0-.38A7.28,7.28,0,0,1,19.4,4a.38.38,0,0,1,.54.54c-.23.26-.47.51-.72.76A1.38,1.38,0,0,1,18.92,5.4Z"/></svg>