<svg id="Layer_1" data-name="Layer 1" xmlns="http://www.w3.org/2000/svg" viewBox="0 0 24 24"><title>explore</title><path d="M12,22H3.74A1.66,1.66,0,0,1,2,20.58a1.83,1.83,0,0,1,0-.33V6.41A1.67,1.67,0,0,1,3.27,4.73c.8-.22,1.59-.43,2.38-.66a.41.41,0,0,0,.23-.15L7,2.45a1,1,0,0,1,1.46-.24l3.4,2.32a.24.24,0,0,0,.31,0l3.4-2.32A1,1,0,0,1,17,2.46c.36.49.72,1,1.09,1.46a.42.42,0,0,0,.22.15l2.38.66A1.66,1.66,0,0,1,22,6.42c0,4.6,0,9.19,0,13.79A1.75,1.75,0,0,1,20.2,22C17.46,22,14.73,22,12,22ZM5.41,4.84c-.69.19-1.34.36-2,.55a1,1,0,0,0-.76,1V20.29a1,1,0,0,0,1.1,1h7.9V16.7a.48.48,0,0,0-.16-.4L4.88,9.69c-.26-.26-.26-.3-.13-.64s.31-.77.47-1.18l-.57-.19c-.32-.12-.38-.27-.24-.58C4.74,6.36,5.06,5.61,5.41,4.84Zm6.92,16.49h8a1,1,0,0,0,1-1V6.43a1,1,0,0,0-.81-1.07L19,5l-.44-.12,1,2.24c.15.34.09.49-.26.61l-.55.18L19.23,9c.15.36.14.38-.14.66l-6.61,6.61a.48.48,0,0,0-.15.36v4.66ZM12,15.56A.31.31,0,0,1,12,15.5l1.71-3.43a.28.28,0,0,0,0-.18L12.47,8.44a.26.26,0,0,0-.17-.11h-.6a.16.16,0,0,0-.19.12c-.42,1.14-.85,2.28-1.28,3.43a.28.28,0,0,0,0,.18C10.81,13.22,11.39,14.38,12,15.56ZM5.12,7.13l.58.19c.28.1.35.26.24.55s-.31.81-.48,1.21a.22.22,0,0,0,0,.3l5.05,5,.13.11,0,0L6,5.11Zm8.16,7.38,0,0,.07-.06L18.5,9.35a.19.19,0,0,0,.05-.25c-.17-.41-.34-.83-.5-1.24s0-.44.24-.53l.58-.2-.89-2Zm-.73-9.45,1.52,1.29c.22.18.34.18.58,0l1.56-1.14,1.31-1-.08-.13-1-1.26c-.18-.25-.33-.28-.59-.1l-1.23.83Zm-1.12,0A.17.17,0,0,0,11.37,5L8.05,2.75a.35.35,0,0,0-.54.1l-.77,1-.27.36.43.31L9.35,6.36a.37.37,0,0,0,.5,0ZM17,5.49l0,0c-.63.45-1.26.9-1.87,1.36A1.09,1.09,0,0,1,13.76,7a3.49,3.49,0,0,1-.33.49,1,1,0,0,0-.16,1.27c.35.79.62,1.61.94,2.45ZM10.23,7a1.05,1.05,0,0,1-1.31-.08C8.32,6.42,7.7,6,7.09,5.54l-.16-.1,2.86,5.72c.39-1,.76-2,1.13-3a.22.22,0,0,0,0-.18C10.69,7.62,10.46,7.3,10.23,7Zm.52-.43.72,1.09a.14.14,0,0,0,.11,0h.82s.1,0,.11,0l.74-1.09L12,5.47Z"/></svg>