<svg id="Layer_1" data-name="Layer 1" xmlns="http://www.w3.org/2000/svg" viewBox="0 0 24 24"><title>explore</title><path d="M20.08,15l.77,3.73.39-.68a.4.4,0,0,1,.56-.19c.21.11.26.32.12.57-.27.49-.56,1-.83,1.47a.55.55,0,0,1-.55.32h-17a.6.6,0,0,1-.6-.35c-.25-.48-.53-.94-.8-1.41-.15-.27-.11-.47.1-.6s.43,0,.58.22.23.39.38.65L3.92,15l-.72-.23a.33.33,0,0,1-.26-.34.56.56,0,0,1,.2-.35.58.58,0,0,1,.37,0,4.47,4.47,0,0,1,.57.16l.24-.83A17.47,17.47,0,0,1,8.93,5.79a4.24,4.24,0,0,1,2.49-1.15c.16,0,.19-.08.19-.22a1.16,1.16,0,0,1,0-.32A.35.35,0,0,1,12,3.8a.37.37,0,0,1,.39.29.49.49,0,0,1,0,.12c0,.41,0,.4.43.47A4.1,4.1,0,0,1,15,5.77,17.4,17.4,0,0,1,19.85,14a.84.84,0,0,0,0,.17s0,0,0,0L20.5,14a.4.4,0,0,1,.55.25c.06.23-.05.41-.32.5l-.61.19Zm-4.22,2.79a.76.76,0,0,1,0-.14c-.33-1.84-.67-3.67-1-5.51a.55.55,0,0,0-.18-.29l-2.52-1.7a.23.23,0,0,0-.29,0c-.84.58-1.69,1.14-2.54,1.72a.4.4,0,0,0-.16.27c-.28,1.49-.55,3-.82,4.48-.07.38-.13.77-.2,1.18ZM11.6,8.27H7.91a.35.35,0,0,0-.24.16,16.75,16.75,0,0,0-2.53,4.94L5,13.78l1.64-1.1,4.75-3.2a.39.39,0,0,0,.19-.25C11.62,8.92,11.6,8.61,11.6,8.27ZM19,13.77a1.1,1.1,0,0,0,0-.11,16.84,16.84,0,0,0-2.64-5.27A.43.43,0,0,0,16,8.26H12.61l-.22,0c0,.29,0,.56,0,.84a.4.4,0,0,0,.2.39c1.29.85,2.58,1.72,3.86,2.58ZM8.27,12.54,4.92,14.79a.18.18,0,0,0,0,.17c.24.89.49,1.78.73,2.67a.18.18,0,0,0,.2.16H7.15c.15,0,.2-.06.22-.2.17-1,.36-2,.53-3Zm7.47,0c0,.13,0,.2,0,.28.29,1.59.58,3.18.86,4.77,0,.14.08.19.22.19h1.31a.21.21,0,0,0,.25-.19c.23-.86.47-1.72.71-2.58.05-.15,0-.21-.11-.29L16.27,12.9ZM8.43,7.46H15.6c-.39-.4-.72-.78-1.09-1.11a3.66,3.66,0,0,0-3.18-.91A4.87,4.87,0,0,0,8.43,7.46Zm-2.34,12H17.91l.22-.83H5.87Zm-1.63-3h0l-.6,2.95H5.28ZM18.72,19.4h1.47l-.61-2.95h0Z"/><path d="M16.48,9.89a.94.94,0,0,1,.26.19c.27.41.52.84.77,1.27a.37.37,0,0,1-.15.54.39.39,0,0,1-.53-.17l-.74-1.21C15.92,10.22,16.08,9.9,16.48,9.89Z"/><path d="M16.08,9.35A.39.39,0,1,1,15.7,9,.38.38,0,0,1,16.08,9.35Z"/></svg>