<svg id="Layer_1" data-name="Layer 1" xmlns="http://www.w3.org/2000/svg" viewBox="0 0 24 24"><title>explore</title><path d="M4.66,6.65c0-.74,0-1.46,0-2.18A.72.72,0,0,1,4.82,4c.5-.63,1-1.23,1.53-1.84.21-.25.41-.26.62,0C7.51,2.82,8,3.45,8.55,4.09a.59.59,0,0,1,.1.34c0,.65,0,1.3,0,2v.27H10V2.5c0-.4.1-.5.5-.5h4c.43,0,.51.08.51.5V6.67h.29c1,0,1.93,0,2.89,0a1.37,1.37,0,0,1,1.06.44c.78.8,1.58,1.58,2.37,2.37a1.24,1.24,0,0,1,.4,1c0,3.5,0,7,0,10.5A1,1,0,0,1,20.94,22H3.06A1,1,0,0,1,2,20.93V7.78A1,1,0,0,1,3.08,6.67h1.4Zm0,.68H3.18c-.42,0-.51.09-.51.51v13c0,.42.08.5.49.5q8.84,0,17.68,0c.4,0,.49-.08.49-.48V10.33H18.94a1,1,0,0,1-.94-1V8h.65c0,.09,0,.91,0,1.25s.1.39.32.4c.61,0,1.21,0,1.85,0l-.07-.1c-.7-.7-1.39-1.4-2.1-2.09a.6.6,0,0,0-.39-.14H15V20.17c0,.41-.09.5-.5.5h-4c-.45,0-.54-.09-.54-.54V7.35H8.66V20.16c0,.43-.08.51-.51.51h-3c-.42,0-.51-.1-.51-.52V7.33ZM11.31,6v.66h-.63V8h.63v.66h-.62V10h.62v.66h-.63V12h.63v.66h-.63V14h.63v.68h-.63V16h.63v.67h-.63V18h.63v.66h-.63V20h3.65V2.68H10.68V4h.63v.66h-.63V6ZM5.36,4.68V20H8V4.68H7V19.32H6.33V4.68ZM5.72,4H7.61l-1-1.13Z"/></svg>