<svg id="Layer_1" data-name="Layer 1" xmlns="http://www.w3.org/2000/svg" viewBox="0 0 24 24"><title>explore</title><path d="M20.82,16.14h.76c.28,0,.43.14.42.42a5.86,5.86,0,0,1-.07,1.19,1.83,1.83,0,0,1-1.8,1.42H4A1.83,1.83,0,0,1,2.08,17.8,5.43,5.43,0,0,1,2,16.46c0-.2.16-.32.38-.32h.79v-.29c0-2.89,0-6.78,0-9.68A1.39,1.39,0,0,1,4.54,4.81q7.46,0,14.92,0a1.4,1.4,0,0,1,1.37,1.38c0,2.89,0,6.78,0,9.67ZM4,16.14H9.8c.31,0,.43.11.46.39a.58.58,0,0,0,.62.58c.75,0,1.49,0,2.24,0a.58.58,0,0,0,.61-.51c.07-.4.13-.46.54-.46H20V6.3c0-.49-.13-.63-.62-.63H4.65c-.49,0-.62.14-.62.63v9.84Zm17.17.79-.09,0H14.6a.25.25,0,0,0-.19.14,1.4,1.4,0,0,1-1.28.83H10.86a1.34,1.34,0,0,1-1.24-.79.29.29,0,0,0-.31-.19H2.79c-.09.95.35,1.49,1.2,1.49H20A1.19,1.19,0,0,0,21.2,16.93Z"/><path d="M18.09,7.54H5.9v7c0,.34-.19.53-.48.49a.39.39,0,0,1-.36-.35,1.85,1.85,0,0,1,0-.23V7.29c0-.48.12-.6.59-.61H18.35c.47,0,.6.13.6.61v7.22c0,.36-.19.55-.49.51a.39.39,0,0,1-.36-.38,1.69,1.69,0,0,1,0-.23V7.54Z"/><path d="M9.6,13.66c-.12-.09-.28-.16-.34-.28a.86.86,0,0,1,0-.42c0-.05.06-.09.1-.12L12,10.23a.44.44,0,0,1,.77.17c.06.21-.07.35-.2.48L10.39,13c-.15.15-.29.3-.44.43A2.17,2.17,0,0,1,9.6,13.66Z"/><path d="M12.82,13.6a2.1,2.1,0,0,1-.35-.31.36.36,0,0,1,.08-.46l.55-.55.52-.52a.42.42,0,0,1,.61,0,.4.4,0,0,1,0,.61q-.52.54-1.08,1.08A2,2,0,0,1,12.82,13.6Z"/></svg>