<svg id="Layer_1" data-name="Layer 1" xmlns="http://www.w3.org/2000/svg" viewBox="0 0 24 24"><title>explore</title><g id="f5ox54.tif"><path d="M6.83,19.34A2.08,2.08,0,0,1,5.07,20a10,10,0,0,1-1.1,0,1.81,1.81,0,0,1-1.51-1.41,12,12,0,0,1,.16-7.08c.25-.78.49-1.57.74-2.35a5.11,5.11,0,0,0,0-2.95A1.66,1.66,0,0,1,4.44,4.07,1.6,1.6,0,0,1,6.39,6a5.78,5.78,0,0,0,.1,3.37c.13.37.22.75.35,1.19a11.89,11.89,0,0,0,.7-2.79,5.78,5.78,0,0,0-.22-1.66,1.67,1.67,0,0,1,1.14-2.1,1.61,1.61,0,0,1,1.88,2,5.75,5.75,0,0,0,.15,3.53,2.92,2.92,0,0,0,.22.54c.14-.46.29-.91.41-1.37A5,5,0,0,0,11,6.17a1.67,1.67,0,0,1,1.12-2.12,1.64,1.64,0,0,1,1.91,2c-.12.54-.17,1.09-.24,1.63a2.62,2.62,0,0,0,0,.37,5.6,5.6,0,0,1,3.9.6A4.65,4.65,0,0,0,17.83,7c0-.34-.14-.68-.22-1A1.67,1.67,0,0,1,19,4a1.59,1.59,0,0,1,1.73,1.46,1.89,1.89,0,0,1-.06.67,5.44,5.44,0,0,0,.05,3c.39,1.28.77,2.56,1.05,3.87a11.3,11.3,0,0,1-.23,5.51A1.78,1.78,0,0,1,19.89,20a12.18,12.18,0,0,1-1.48,0,1.9,1.9,0,0,1-1-.37.34.34,0,0,0-.26,0A5.63,5.63,0,0,1,14,19.9a1.48,1.48,0,0,0-.42,0,5.23,5.23,0,0,1-2.36-.09c-.19-.07-.37-.31-.55-.31s-.36.22-.56.31a1.37,1.37,0,0,1-.48.13c-.52,0-1,0-1.56,0A1.81,1.81,0,0,1,6.83,19.34ZM18,19.16v.07a2.41,2.41,0,0,0,.52.11c.43,0,.86,0,1.29,0A1.33,1.33,0,0,0,21,18.29a12.3,12.3,0,0,0,.33-4.23c0-.38-.12-.76-.17-1.13h-.52a5.3,5.3,0,0,1,0,2.1,13.31,13.31,0,0,1-.46,1.52.27.27,0,0,1-.37.19c-.18-.07-.22-.23-.16-.42a1.42,1.42,0,0,1,.08-.18,5.77,5.77,0,0,0,.37-3,5.17,5.17,0,0,0-5.89-4.5,5.42,5.42,0,0,0-4.09,6.68,5,5,0,0,0,7.32,3.46A5.48,5.48,0,0,0,19,17.38a.42.42,0,0,1,.33-.14c.07,0,.18.12.2.21a.44.44,0,0,1-.08.31A5.92,5.92,0,0,1,18,19.16ZM2.84,12.92a1.8,1.8,0,0,0,0,.19A11.61,11.61,0,0,0,3,18.29a1.33,1.33,0,0,0,1.3,1.06H5.48a1.32,1.32,0,0,0,.9-.41.26.26,0,0,0,.06-.3A12.18,12.18,0,0,1,6,15.14c0-.26.12-.41.3-.42s.29.15.29.43A11.92,11.92,0,0,0,7,18.35a1.32,1.32,0,0,0,1.22,1H9.46a1.23,1.23,0,0,0,.82-.36,9,9,0,0,1-.5-2.1,7.49,7.49,0,0,0-.13-1.06,6.86,6.86,0,0,1-.27-2.06c0-.28,0-.56.06-.85H6.78l-.15.85c0,.24-.15.35-.34.31s-.26-.17-.23-.4.08-.5.11-.76ZM9.62,8.5a5.57,5.57,0,0,1,.16-2.57,1.08,1.08,0,0,0-.39-1.11,1,1,0,0,0-1.14,0A1.09,1.09,0,0,0,7.87,6,4.7,4.7,0,0,1,8,6.78c0,.57,0,1.14,0,1.72Zm-4,0c0-.3-.06-.58-.07-.85a6.49,6.49,0,0,1,.25-1.75,1,1,0,1,0-1.9.1,6.1,6.1,0,0,1,.23,2c0,.17,0,.33,0,.51Zm14.29,0a5.91,5.91,0,0,1,.17-2.56,1,1,0,0,0-.32-1.07.92.92,0,0,0-1.17-.07A1.05,1.05,0,0,0,18.22,6a5.8,5.8,0,0,1,.23,1.85c0,.22,0,.44-.05.66Zm-8.18,0a2.1,2.1,0,0,0,1.4-.23.31.31,0,0,0,.11-.22,6,6,0,0,1,.22-2.11,1.09,1.09,0,0,0-.38-1.12,1,1,0,0,0-1.14,0,1.06,1.06,0,0,0-.39,1.13A6,6,0,0,1,11.76,8.5Zm-5.4,2.59c-.06-.23-.12-.45-.19-.66a.17.17,0,0,0-.14-.1H3.72a.24.24,0,0,0-.16.09l-.21.67Zm.94,0c.88,0,1.71,0,2.55,0,.22,0,.3-.13.35-.29s-.1-.5-.25-.5H7.69a.24.24,0,0,0-.18.1C7.43,10.64,7.38,10.85,7.3,11.1ZM3,12.27l.08,0H6.2a.21.21,0,0,0,.15-.11c.05-.14.08-.29.13-.46H3.57C3.09,11.73,3.09,11.73,3,12.27Zm6.76-.53H7.1l-.15.5s0,0,0,0l2.51,0a.16.16,0,0,0,.12-.09A4.35,4.35,0,0,0,9.76,11.74ZM6,9.7a2.15,2.15,0,0,1-.06-.29.29.29,0,0,0-.35-.27c-.37,0-.74,0-1.11,0s-.5,0-.64.49c0,0,0,0,0,.06Zm1.78,0H9.92a2.42,2.42,0,0,0-.13-.43.2.2,0,0,0-.16-.12H8a.2.2,0,0,0-.15.1A3.45,3.45,0,0,0,7.74,9.7Zm4.71,9.62a6.1,6.1,0,0,1-1.92-1.69C10.64,18.81,11.2,19.52,12.45,19.32Zm7.81-9.61c-.05-.18-.08-.33-.13-.47s-.07-.09-.11-.09H18.49l.4.36c.08.07.17.18.25.19C19.5,9.72,19.87,9.71,20.26,9.71Zm-.65.61L20,11a.19.19,0,0,0,.13.07h.5c-.17-.78-.17-.78-.89-.78Zm.75,1.43c.12.57.19.63.6.51C20.83,11.63,20.91,11.72,20.36,11.75Z"/><path d="M12.41,16.84a.81.81,0,0,1,.78-.81.82.82,0,0,1,.77.83.78.78,0,1,1-1.55,0Zm.79.28c.07-.13.16-.21.15-.29s-.13-.17-.18-.16a.29.29,0,0,0-.16.21C13,16.93,13.11,17,13.2,17.12Z"/><path d="M14.42,14.86a.79.79,0,0,1-.76.82.81.81,0,0,1-.77-.83.77.77,0,1,1,1.53,0Zm-.5,0c-.12-.1-.19-.2-.24-.19s-.14.11-.21.17.12.17.19.19S13.8,15,13.92,14.87Z"/><path d="M12.55,15.44a.77.77,0,1,1-.76-.81A.8.8,0,0,1,12.55,15.44Zm-.77.29c.09-.13.18-.21.17-.27a.29.29,0,0,0-.18-.19s-.16.11-.16.17S11.7,15.59,11.78,15.73Z"/></g></svg>