<svg id="Layer_1" data-name="Layer 1" xmlns="http://www.w3.org/2000/svg" viewBox="0 0 24 24"><title>explore</title><path d="M9.54,3.59a2.4,2.4,0,0,1,2.45.8,2.4,2.4,0,0,1,2.45-.8c0-.4,0-.78,0-1.17A.4.4,0,0,1,15,2a.36.36,0,0,1,.24.37c0,.47,0,.94,0,1.41a.49.49,0,0,0,.13.26A1.72,1.72,0,0,1,16,5.66,10.17,10.17,0,0,1,14.37,10a.53.53,0,0,0-.06.13,8.51,8.51,0,0,1,1.93,1.49,12.47,12.47,0,0,1,3,4.92c.3.88.52,1.78.74,2.67a1.1,1.1,0,0,1-.75,1.32,23.25,23.25,0,0,1-4,1.2,18.1,18.1,0,0,1-4,.27,19,19,0,0,1-6.09-1.36l-.27-.1A1.1,1.1,0,0,1,4,19.21a16.38,16.38,0,0,1,1.74-5,11.12,11.12,0,0,1,3.3-3.76c.2-.14.41-.26.59-.37C9.35,9.53,9,9,8.76,8.38A8.7,8.7,0,0,1,8,5.47a1.6,1.6,0,0,1,.59-1.38.36.36,0,0,0,.14-.3c0-.44,0-.89,0-1.33S8.88,2,9.13,2s.4.18.41.46Zm7,17a.34.34,0,0,0,0-.11,15.1,15.1,0,0,0-1.71-4.29.63.63,0,0,1-.09-.33.34.34,0,0,1,.3-.3.43.43,0,0,1,.48.22,12.26,12.26,0,0,1,1.15,2.36c.24.72.47,1.45.71,2.19L19,19.75a.29.29,0,0,0,.17-.36c-.05-.29-.1-.57-.17-.84a14.52,14.52,0,0,0-2.26-5.12,9,9,0,0,0-2.87-2.66.33.33,0,0,0-.32,0,4.28,4.28,0,0,1-3.11,0,.33.33,0,0,0-.32,0A9,9,0,0,0,7.58,13a13.46,13.46,0,0,0-2.34,4.66c-.15.53-.27,1.07-.4,1.61,0,.18-.07.4.16.49.45.18.91.33,1.36.5a.41.41,0,0,0,0-.07,22.26,22.26,0,0,1,1.1-3.8,10.86,10.86,0,0,1,1.89-3.21.42.42,0,0,1,.6-.1.38.38,0,0,1,0,.6c-.16.2-.33.4-.47.61A16.45,16.45,0,0,0,7.14,20.5a15,15,0,0,0,2.72.58,1,1,0,0,0,0-.12A5.18,5.18,0,0,1,10.4,19,.4.4,0,0,1,11,18.8a.38.38,0,0,1,.18.54c-.09.23-.19.45-.26.68a3,3,0,0,0-.18,1.15A16.77,16.77,0,0,0,16.56,20.59Zm-4-10.34.87-.29a.19.19,0,0,0,.1-.1,9.55,9.55,0,0,0,1.69-4.33,1,1,0,0,0-.62-1.07,1.6,1.6,0,0,0-1.5,0,1,1,0,0,0-.55.75.5.5,0,0,1-.52.47.54.54,0,0,1-.51-.49,1.05,1.05,0,0,0-.18-.42,1.52,1.52,0,0,0-1.62-.45,1,1,0,0,0-.84,1.22c0,.12,0,.25.05.37a10.22,10.22,0,0,0,1.38,3.55,1.3,1.3,0,0,0,1,.66h0c.06,0,.15,0,.19-.05A2.49,2.49,0,0,0,12.21,9a.43.43,0,0,1,.15-.2.38.38,0,0,1,.47,0,.33.33,0,0,1,.16.42C12.85,9.55,12.68,9.87,12.51,10.25Z"/><path d="M14.08,14.15a.37.37,0,0,1,.4.37.39.39,0,0,1-.41.4.41.41,0,0,1-.4-.39A.39.39,0,0,1,14.08,14.15Z"/><path d="M13,8.37a.4.4,0,0,1-.39-.4.41.41,0,1,1,.39.4Z"/></svg>