<svg id="Layer_1" data-name="Layer 1" xmlns="http://www.w3.org/2000/svg" viewBox="0 0 24 24"><defs><style>.cls-1{fill:#231f20;}</style></defs><title>home</title><path class="cls-1" d="M12.91,18H11.08v3.32c0,.45-.21.69-.63.69H5.35c-.41,0-.62-.24-.62-.67V12.77c0-.43.22-.68.57-.67s.56.25.56.69v8H9.94V17.49c0-.45.22-.71.64-.72h2.85c.4,0,.61.25.61.68v3.33h4.1V12.5c0-.47.25-.74.63-.7a.57.57,0,0,1,.5.52,1.47,1.47,0,0,1,0,.21v8.72c0,.52-.2.74-.69.74h-5a.64.64,0,0,1-.7-.76c0-1,0-2,0-3A2.18,2.18,0,0,1,12.91,18Z"/><path class="cls-1" d="M16.14,6.18v-2a.6.6,0,0,1,.49-.66.57.57,0,0,1,.65.63c0,1,0,2,0,3a.6.6,0,0,0,.17.44l4.29,4.58a.72.72,0,0,1,.24.69.59.59,0,0,1-.95.3L20.85,13,12.21,3.69c-.06-.06-.11-.14-.19-.23l-.22.24Q7.44,8.34,3.06,13a1,1,0,0,1-.39.27A.46.46,0,0,1,2.12,13a.56.56,0,0,1,0-.64,2.12,2.12,0,0,1,.2-.24Q6.9,7.19,11.52,2.28c.35-.37.62-.37,1,0C13.64,3.51,14.77,4.74,15.92,6A2.22,2.22,0,0,1,16.14,6.18Z"/></svg>