<svg id="Layer_1" data-name="Layer 1" xmlns="http://www.w3.org/2000/svg" viewBox="0 0 24 24"><defs><style>.cls-1{fill:#231f20;}</style></defs><title>home</title><path class="cls-1" d="M11.89,12.59a.57.57,0,0,1-.31-.07L2.36,7.84A.7.7,0,0,1,2,7.22a.72.72,0,0,1,.38-.62L11.6,2.06a.78.78,0,0,1,.6,0L21.55,6.6a.72.72,0,0,1,.4.62.66.66,0,0,1-.38.62L12.2,12.52A.53.53,0,0,1,11.89,12.59ZM4.2,7.23l7.71,3.9,7.8-3.9-7.8-3.79Z"/><path class="cls-1" d="M11.92,22a.73.73,0,0,1-.31-.07L2.36,17.24A.69.69,0,0,1,2,16.62V7.22a.69.69,0,0,1,1.38,0v9l8.56,4.35,8.72-4.35v-9a.69.69,0,1,1,1.38,0v9.4a.72.72,0,0,1-.38.62l-9.41,4.69A.62.62,0,0,1,11.92,22Z"/><path class="cls-1" d="M11.89,22a.69.69,0,0,1-.69-.69V11.9a.69.69,0,0,1,1.38,0v9.41A.69.69,0,0,1,11.89,22Z"/><path class="cls-1" d="M7.53,10.35a.69.69,0,0,1-.6-.34.71.71,0,0,1,.25-.95l8.48-4.84a.7.7,0,0,1,.95.26.69.69,0,0,1-.26.94L7.87,10.25A.63.63,0,0,1,7.53,10.35Z"/></svg>