<svg id="Layer_1" data-name="Layer 1" xmlns="http://www.w3.org/2000/svg" viewBox="0 0 24 24"><defs><style>.cls-1{fill:#231f20;}</style></defs><title>home</title><path class="cls-1" d="M20.4,12.23A8.16,8.16,0,0,0,18.48,8a8.37,8.37,0,0,0-5.91-3h-.09a.17.17,0,0,1,0-.07c0-.06,0-.07.11-.11a1.48,1.48,0,0,0,.89-1.19,1.42,1.42,0,0,0-.55-1.33,1.43,1.43,0,0,0-1.6-.15,1.39,1.39,0,0,0-.81,1.35,1.41,1.41,0,0,0,.94,1.33c.08,0,.09,0,.07.14l-.09,0-.42,0a6.42,6.42,0,0,0-.75.1A8.56,8.56,0,0,0,3.63,15a8.66,8.66,0,0,0,8.63,7h0l.36,0c.29,0,.64-.06,1-.12A8.21,8.21,0,0,0,18.5,19,8.26,8.26,0,0,0,20.4,12.23Zm-.86,1.3A7.54,7.54,0,0,1,12,21a7.51,7.51,0,0,1-7.53-7.54A7.54,7.54,0,0,1,12,6a7.55,7.55,0,0,1,7.53,7.57ZM12,4a.51.51,0,0,1-.52-.51.43.43,0,0,1,.14-.35A.55.55,0,0,1,12,3a.53.53,0,0,1,.53.51.52.52,0,0,1-.14.35A.55.55,0,0,1,12,4Z"/><path class="cls-1" d="M16.56,8.89a.38.38,0,0,0-.31-.09.81.81,0,0,0-.35.1l-5.34,2.66a1.08,1.08,0,0,0-.5.51L8.34,15.51l-.12.23c-.14.3-.29.59-.44.88s-.29.59-.44.88a.51.51,0,0,0,.08.61.42.42,0,0,0,.32.13A.65.65,0,0,0,8,18.18l.06,0,0,0q2.72-1.35,5.41-2.72A.82.82,0,0,0,13.9,15l2.74-5.47a.52.52,0,0,0,.06-.16s0,0,0-.05V9.28A.57.57,0,0,0,16.56,8.89Zm-1.39,1.43-.57,1.14-1.3,2.61-.88-.88-1-1,1.89-.94Zm-2.62,4.49-2,1-1.73.87c.31-.61.61-1.23.92-1.85l.95-1.89c.41.42.82.84,1.24,1.25Z"/></svg>