<svg id="Layer_1" data-name="Layer 1" xmlns="http://www.w3.org/2000/svg" viewBox="0 0 24 24"><defs><style>.cls-1{fill:#231f20;}</style></defs><title>home</title><path class="cls-1" d="M12,11a.66.66,0,0,1-.65-.66V2.15a.65.65,0,1,1,1.3,0v8.19A.66.66,0,0,1,12,11Z"/><path class="cls-1" d="M12,11a.72.72,0,0,1-.46-.18L8.92,8.25a.66.66,0,0,1,.92-.94L12,9.43l2.15-2.12a.66.66,0,1,1,.92.94l-2.61,2.57A.66.66,0,0,1,12,11Z"/><path class="cls-1" d="M11.93,13.59a.65.65,0,0,1-.3-.06L2.9,9.09a.66.66,0,0,1-.36-.59.65.65,0,0,1,.36-.59L8.11,5.25a.65.65,0,1,1,.6,1.16L4.63,8.5l7.3,3.7,7.42-3.72-4-2.07A.65.65,0,1,1,16,5.25L21.1,7.91a.69.69,0,0,1,.36.59.65.65,0,0,1-.36.57l-8.88,4.44A.55.55,0,0,1,11.93,13.59Z"/><path class="cls-1" d="M11.92,22.5a.65.65,0,0,1-.3-.06L2.86,18a.6.6,0,0,1-.36-.57V8.5a.65.65,0,0,1,.65-.65.66.66,0,0,1,.66.65V17l8.12,4.12L20.19,17V8.5a.66.66,0,0,1,.66-.65.65.65,0,0,1,.65.65v8.91a.69.69,0,0,1-.36.59l-8.91,4.44A1.13,1.13,0,0,1,11.92,22.5Z"/><path class="cls-1" d="M12,22.5a.65.65,0,0,1-.65-.65V12.94a.65.65,0,1,1,1.3,0v8.91A.64.64,0,0,1,12,22.5Z"/></svg>