<svg id="Layer_1" data-name="Layer 1" xmlns="http://www.w3.org/2000/svg" viewBox="0 0 24 24"><defs><style>.cls-1{fill:#231f20;}</style></defs><title>home</title><path class="cls-1" d="M22.73,9c-.65-1.29-1.29-2.59-1.92-3.88a1.25,1.25,0,0,0-1.2-.76H4.29a1.14,1.14,0,0,0-1,.6c-.66,1.32-1.33,2.68-2,4.18A.81.81,0,0,0,2,10.37H3.39v8a1.13,1.13,0,0,0,1.13,1.21h15a1.15,1.15,0,0,0,1.15-1.17V14.93a.48.48,0,0,0-.47-.53c-.29,0-.48.17-.51.52v3.36c0,.34,0,.35-.33.35H12.49V7l.11.23c.39.78.8,1.59,1.17,2.39a1.23,1.23,0,0,0,1.24.77h4.63c0,.07,0,.12,0,.16v2.68c0,.54.34.6.49.6s.48-.06.48-.61V10.38h1.29a.93.93,0,0,0,.85-.39A1,1,0,0,0,22.73,9Zm-8.06.17L12.81,5.43v0h6.73a.4.4,0,0,1,.45.28c.43.89.87,1.78,1.31,2.67l.49,1,0,.07H15A.27.27,0,0,1,14.67,9.2ZM10.55,6.72c-.42.84-.83,1.67-1.23,2.5-.08.13-.11.16-.21.16H2.19L3.42,6.89l.63-1.27c.08-.16.16-.22.31-.22H11.2Zm-6.2,3.67H9.07a1.15,1.15,0,0,0,1.12-.73c.29-.62.6-1.24.91-1.85.13-.28.27-.55.4-.82V18.64H4.63c-.26,0-.28,0-.28-.27Z"/></svg>