<svg id="Layer_1" data-name="Layer 1" xmlns="http://www.w3.org/2000/svg" viewBox="0 0 24 24"><defs><style>.cls-1{fill:#231f20;}</style></defs><title>home</title><path class="cls-1" d="M11.94,10.23a.64.64,0,0,1-.65-.63v-8A.65.65,0,0,1,11.94,1a.66.66,0,0,1,.66.64v8A.65.65,0,0,1,11.94,10.23Z"/><path class="cls-1" d="M14.57,4.76a.7.7,0,0,1-.45-.17L11.94,2.53,9.79,4.59a.67.67,0,0,1-.93,0,.63.63,0,0,1,0-.9l2.62-2.49a.67.67,0,0,1,.91,0L15,3.67a.63.63,0,0,1,0,.9A.68.68,0,0,1,14.57,4.76Z"/><path class="cls-1" d="M11.89,14.34a.63.63,0,0,1-.29-.06L2.86,10a.62.62,0,0,1-.36-.57.63.63,0,0,1,.36-.57L8.07,6.24A.67.67,0,0,1,9,6.51a.62.62,0,0,1-.27.85l-4.09,2,7.3,3.6,7.44-3.61-4-2a.62.62,0,0,1-.28-.85A.65.65,0,0,1,16,6.24l5.12,2.58a.66.66,0,0,1,.35.57.62.62,0,0,1-.35.56l-8.89,4.31A.56.56,0,0,1,11.89,14.34Z"/><path class="cls-1" d="M11.93,23a.8.8,0,0,1-.3-.06L2.86,18.61a.6.6,0,0,1-.36-.56V9.39a.64.64,0,0,1,.65-.63.65.65,0,0,1,.66.63v8.27l8.12,4,8.26-4V9.39a.65.65,0,0,1,.66-.63.64.64,0,0,1,.65.63v8.66a.66.66,0,0,1-.36.57l-8.92,4.32A.94.94,0,0,1,11.93,23Z"/><path class="cls-1" d="M11.89,23a.64.64,0,0,1-.65-.63V13.71a.65.65,0,0,1,.65-.64.66.66,0,0,1,.66.64v8.66A.64.64,0,0,1,11.89,23Z"/></svg>